<svg width="33" height="28" viewBox="0 0 33 28" fill="none" xmlns="http://www.w3.org/2000/svg">
<path fill-rule="evenodd" clip-rule="evenodd" d="M29.463 8.67942C29.463 8.19642 29.071 7.80442 28.588 7.80442H4.12417C3.64117 7.80442 3.24917 8.19642 3.24917 8.67942C3.24917 9.16242 3.64117 9.55442 4.12417 9.55442H28.588C28.8202 9.55442 29.0436 9.46342 29.2081 9.29658C29.372 9.13267 29.463 8.911 29.463 8.67942ZM19.2663 12.6578C19.2681 12.4256 19.1747 12.2022 19.0108 12.0382C18.8469 11.8737 18.6235 11.7828 18.3913 11.7828H4.12417C3.64117 11.7828 3.24917 12.1748 3.24917 12.6578C3.24917 13.1402 3.64117 13.5328 4.12417 13.5328H18.3913C18.6235 13.5328 18.8469 13.4394 19.0108 13.2755C19.1747 13.111 19.2681 12.8905 19.2663 12.6578ZM18.0723 16.6291C18.0723 16.3969 17.9789 16.1735 17.8144 16.0096C17.6505 15.8457 17.4294 15.7541 17.1973 15.7541H4.12417C3.64117 15.7541 3.24917 16.1461 3.24917 16.6291C3.24917 17.1127 3.64117 17.5041 4.12417 17.5041H17.1973C17.4294 17.5041 17.6505 17.4131 17.8144 17.2492C17.9789 17.0853 18.0723 16.8618 18.0723 16.6291ZM10.1448 4.70517C10.1424 4.93792 10.2358 5.16133 10.3997 5.32525C10.5636 5.48917 10.787 5.5825 11.0198 5.58017H21.693C22.176 5.58017 22.568 5.1905 22.568 4.70517C22.568 4.22217 22.176 3.83017 21.693 3.83017H11.0198C10.787 3.83017 10.5636 3.9235 10.3997 4.088C10.2358 4.25192 10.1424 4.47533 10.1448 4.70517ZM32.7122 0.583333V22.9524C32.7122 23.2762 32.4526 23.5357 32.1288 23.5357H29.6911V21.7292C30.6343 20.699 31.1558 19.3544 31.1558 17.9603C31.1605 15.4467 29.4992 13.2364 27.0842 12.5463C24.6709 11.8533 22.0891 12.8485 20.7655 14.9817C19.4413 17.1167 19.6945 19.8718 21.385 21.7292V23.5357H0.583333C0.259583 23.5357 0 23.2762 0 22.9524V0.583333C0 0.259583 0.259583 0 0.583333 0H32.1288C32.4526 0 32.7122 0.259583 32.7122 0.583333ZM23.1309 23.0277V27.0772C23.1309 27.2843 23.24 27.4756 23.4179 27.5806C23.5976 27.6856 23.8163 27.6873 23.9989 27.5876L25.1154 26.9698C25.3773 26.824 25.6987 26.824 25.963 26.9698L27.0772 27.5876C27.2598 27.6873 27.4785 27.6856 27.6558 27.5806C27.8337 27.4756 27.9434 27.2843 27.9434 27.0772V23.0277C26.4233 23.7615 24.6528 23.7615 23.1309 23.0277ZM29.4058 17.9603C29.4058 20.0952 27.6745 21.8289 25.5372 21.8289C23.4016 21.8289 21.6679 20.0952 21.6679 17.9603C21.6679 15.8229 23.4016 14.0887 25.5372 14.0887C27.6745 14.091 29.4058 15.8229 29.4058 17.9603Z" fill="#167F71"/>
</svg>
