<svg width="28" height="28" viewBox="0 0 28 28" fill="none" xmlns="http://www.w3.org/2000/svg">
<path fill-rule="evenodd" clip-rule="evenodd" d="M28 14C28 21.7338 21.7338 28 14 28C6.26617 28 0 21.7338 0 14C0 6.26617 6.26617 0 14 0C21.7338 0 28 6.26617 28 14Z" fill="#50B748"/>
<path fill-rule="evenodd" clip-rule="evenodd" d="M16.944 27.6723C17.2123 27.6175 17.4818 27.558 17.7455 27.4903C18.197 27.3666 18.6391 27.2161 19.072 27.0481C19.5095 26.879 19.9341 26.6876 20.3483 26.4788C20.7671 26.2641 21.1731 26.032 21.5651 25.7811C21.9571 25.5303 22.3351 25.2573 22.7038 24.9656C23.069 24.6786 23.4201 24.3683 23.7526 24.0405C24.0898 23.7161 24.4083 23.3743 24.7093 23.0196C25.0103 22.6638 25.2926 22.2905 25.5528 21.9031C25.8165 21.5205 26.0626 21.1238 26.2866 20.7131C26.5095 20.3036 26.7148 19.8836 26.8968 19.4555C27.08 19.0226 27.2386 18.5851 27.3751 18.1383C27.4941 17.7463 27.5945 17.3543 27.6808 16.953L19.359 8.6358C17.9415 7.21013 16.0141 6.41213 14.004 6.41213C11.9891 6.40746 10.0583 7.21013 8.63498 8.6358C7.21514 10.058 6.41248 11.9853 6.41248 14.0001C6.41248 16.0103 7.21514 17.9423 8.63498 19.3645L16.944 27.6676V27.6723Z" fill="#10A711"/>
<path fill-rule="evenodd" clip-rule="evenodd" d="M17.4544 11.6668C17.3447 11.6761 17.2397 11.7169 17.1487 11.7858L12.888 14.9848L10.914 13.0061C10.4859 12.5651 9.64353 13.4028 10.0892 13.8309L12.4225 16.1643C12.6279 16.3649 12.9475 16.3883 13.1844 16.2191L17.851 12.7191C18.243 12.4368 18.0015 11.6761 17.5139 11.6668H17.4544ZM13.9999 6.41211C15.9412 6.41211 17.8779 7.15528 19.3642 8.63578C20.7852 10.0579 21.5879 11.9853 21.5879 14.0001C21.5879 16.0149 20.7852 17.9423 19.3642 19.3644C17.942 20.7854 16.0147 21.5881 13.9999 21.5881C11.985 21.5881 10.0577 20.7854 8.63553 19.3644C7.21453 17.9423 6.41187 16.0149 6.41187 14.0001C6.41187 11.9853 7.21453 10.0579 8.63553 8.63578C10.0577 7.21011 11.9897 6.41211 13.9999 6.41211Z" fill="white"/>
</svg>
