<svg width="360" height="500" viewBox="0 0 360 500" fill="none" xmlns="http://www.w3.org/2000/svg">
<g clip-path="url(#clip0_38_3357)">
<rect width="360" height="500" rx="40" fill="#F5F9FF"/>
<path fill-rule="evenodd" clip-rule="evenodd" d="M131.489 175.954C131.489 174.993 132.273 174.209 133.234 174.209H138.468V193.4H133.234C132.273 193.4 131.489 192.616 131.489 191.655V175.954ZM131.489 156.293C131.468 144.524 135.933 133.198 143.98 124.611L146.421 127.071C139.047 135.018 134.957 145.464 134.978 156.307V170.72H133.234C132.641 170.727 132.048 170.828 131.489 171.034V156.293ZM216.715 124.625C224.749 133.212 229.213 144.538 229.185 156.293V171.034C228.627 170.828 228.034 170.727 227.441 170.72H225.696V156.293C225.717 145.459 221.628 135.011 214.253 127.071L216.715 124.625ZM229.185 191.655C229.185 192.616 228.402 193.4 227.441 193.4H222.207V174.209H227.441C228.402 174.209 229.185 174.993 229.185 175.954V191.655ZM133.234 196.889H138.468C138.475 199.778 140.812 202.115 143.701 202.122H150.68C153.569 202.115 155.906 199.778 155.913 196.889V170.72C155.906 167.831 153.569 165.493 150.68 165.486H143.701C140.812 165.493 138.475 167.831 138.468 170.72V156.307C138.461 146.392 142.203 136.844 148.935 129.566C150.83 131.556 153.951 131.726 156.049 129.948C162.912 124.325 171.532 121.286 180.405 121.368C189.231 121.3 197.804 124.332 204.625 129.934C206.724 131.72 209.852 131.563 211.76 129.566C218.479 136.844 222.207 146.385 222.207 156.293V170.72C222.2 167.831 219.862 165.493 216.973 165.486H209.995C207.106 165.493 204.768 167.831 204.761 170.72V196.889C204.768 199.778 207.106 202.115 209.995 202.122H216.973C217.566 202.115 218.159 202.014 218.718 201.808V202.122C218.711 205.011 216.373 207.349 213.484 207.356H187.315C184.426 207.349 182.089 205.011 182.082 202.122V181.535C188.392 181.202 194.444 178.939 199.424 175.047C201.169 173.569 202.165 171.388 202.144 169.098V158.107C202.144 157.814 201.994 157.54 201.748 157.378C201.504 157.221 201.19 157.193 200.925 157.308L185.468 164.157C182.197 165.602 178.477 165.602 175.206 164.157L159.75 157.308C159.484 157.193 159.17 157.214 158.926 157.378C158.68 157.54 158.53 157.814 158.53 158.107V169.098C158.509 171.381 159.505 173.562 161.25 175.047C166.231 178.939 172.283 181.202 178.593 181.535V202.122C178.593 206.941 182.497 210.845 187.315 210.845H213.484C218.302 210.845 222.207 206.941 222.207 202.122V196.889H227.441C230.33 196.882 232.667 194.544 232.674 191.655V156.293C232.709 143.018 227.42 130.281 218.002 120.932C207.978 110.997 194.383 105.496 180.269 105.667C166.217 105.531 152.696 111.016 142.707 120.897C133.269 130.255 127.972 143.004 128 156.293V191.655C128.007 194.544 130.345 196.882 133.234 196.889Z" fill="black"/>
<path fill-rule="evenodd" clip-rule="evenodd" d="M184.051 160.969C188.671 158.924 204.217 152.049 208.55 150.119C210.52 149.242 211.793 147.284 211.793 145.125C211.793 142.972 210.52 141.016 208.55 140.137L184.051 129.266C181.687 128.225 178.989 128.225 176.623 129.266L152.124 140.137C150.154 141.016 148.881 142.972 148.881 145.125C148.881 147.284 150.154 149.242 152.124 150.119C156.37 152.007 172.097 158.966 176.623 160.969C178.989 162.019 181.687 162.019 184.051 160.969Z" fill="black"/>
<path d="M115.5 46.5L139.5 78.5" stroke="#0F0F0F" stroke-width="2.4" stroke-linecap="round" stroke-linejoin="round"/>
<path d="M140.5 55.5L164.5 87.5" stroke="#167F71" stroke-width="2.4" stroke-linecap="round" stroke-linejoin="round"/>
<path fill-rule="evenodd" clip-rule="evenodd" d="M253 53.5L247.71 56.2812L248.72 50.3906L244.44 46.2188L250.355 45.3594L253 40L255.645 45.3594L261.56 46.2188L257.28 50.3906L258.29 56.2812L253 53.5Z" fill="#FCC202"/>
<path fill-rule="evenodd" clip-rule="evenodd" d="M285 111L292 125H278L285 111Z" fill="#167F71"/>
<circle cx="242" cy="97" r="6" fill="#472D2D"/>
<path fill-rule="evenodd" clip-rule="evenodd" d="M87 174.5L81.7099 177.281L82.7202 171.391L78.4405 167.219L84.355 166.359L87 161L89.645 166.359L95.5595 167.219L91.2798 171.391L92.2901 177.281L87 174.5Z" fill="#FF001E"/>
<path fill-rule="evenodd" clip-rule="evenodd" d="M117 218L124 232H110L117 218Z" fill="#332DA1"/>
<circle cx="115" cy="187" r="4" fill="#167F71"/>
<circle cx="98" cy="87" r="6" fill="#FF6B00"/>
<path d="M83.5762 262.6C83.5762 261.48 83.8242 260.512 84.3202 259.696C84.8322 258.88 85.4962 258.256 86.3122 257.824C87.1282 257.376 88.0162 257.152 88.9762 257.152C89.7762 257.152 90.4882 257.256 91.1122 257.464C91.7362 257.672 92.2962 257.952 92.7922 258.304C93.3042 258.656 93.7442 259.04 94.1122 259.456V255.592C93.4242 255.048 92.6722 254.624 91.8562 254.32C91.0562 254.016 90.0402 253.864 88.8082 253.864C87.5282 253.864 86.3362 254.072 85.2322 254.488C84.1442 254.904 83.1922 255.504 82.3762 256.288C81.5762 257.072 80.9522 258 80.5042 259.072C80.0722 260.128 79.8562 261.304 79.8562 262.6C79.8562 263.896 80.0722 265.08 80.5042 266.152C80.9522 267.208 81.5762 268.128 82.3762 268.912C83.1922 269.696 84.1442 270.296 85.2322 270.712C86.3362 271.128 87.5282 271.336 88.8082 271.336C90.0402 271.336 91.0562 271.184 91.8562 270.88C92.6722 270.576 93.4242 270.152 94.1122 269.608V265.744C93.7442 266.16 93.3042 266.544 92.7922 266.896C92.2962 267.248 91.7362 267.528 91.1122 267.736C90.4882 267.944 89.7762 268.048 88.9762 268.048C88.0162 268.048 87.1282 267.832 86.3122 267.4C85.4962 266.952 84.8322 266.32 84.3202 265.504C83.8242 264.672 83.5762 263.704 83.5762 262.6ZM96.4951 265.48C96.4951 266.616 96.7591 267.624 97.2871 268.504C97.8311 269.368 98.5591 270.04 99.4711 270.52C100.399 271 101.447 271.24 102.615 271.24C103.783 271.24 104.823 271 105.735 270.52C106.663 270.04 107.391 269.368 107.919 268.504C108.463 267.624 108.735 266.616 108.735 265.48C108.735 264.328 108.463 263.32 107.919 262.456C107.391 261.592 106.663 260.92 105.735 260.44C104.823 259.96 103.783 259.72 102.615 259.72C101.447 259.72 100.399 259.96 99.4711 260.44C98.5591 260.92 97.8311 261.592 97.2871 262.456C96.7591 263.32 96.4951 264.328 96.4951 265.48ZM99.6631 265.48C99.6631 264.856 99.7911 264.304 100.047 263.824C100.319 263.344 100.679 262.976 101.127 262.72C101.575 262.464 102.071 262.336 102.615 262.336C103.159 262.336 103.655 262.464 104.103 262.72C104.551 262.976 104.903 263.344 105.159 263.824C105.431 264.304 105.567 264.856 105.567 265.48C105.567 266.104 105.431 266.656 105.159 267.136C104.903 267.6 104.551 267.968 104.103 268.24C103.655 268.496 103.159 268.624 102.615 268.624C102.071 268.624 101.575 268.496 101.127 268.24C100.679 267.968 100.319 267.6 100.047 267.136C99.7911 266.656 99.6631 266.104 99.6631 265.48ZM114.283 266.68V259.96H111.067V267.016C111.067 268.328 111.387 269.36 112.027 270.112C112.683 270.864 113.667 271.24 114.979 271.24C115.763 271.24 116.427 271.08 116.971 270.76C117.515 270.424 117.963 269.944 118.315 269.32V271H121.411V259.96H118.315V266.68C118.315 267.144 118.219 267.544 118.027 267.88C117.851 268.216 117.595 268.48 117.259 268.672C116.939 268.848 116.555 268.936 116.107 268.936C115.467 268.936 115.003 268.744 114.715 268.36C114.427 267.96 114.283 267.4 114.283 266.68ZM127.522 259.96H124.474V271H127.522V259.96ZM130.762 263.2L132.178 260.56C131.954 260.272 131.658 260.056 131.29 259.912C130.938 259.768 130.562 259.696 130.162 259.696C129.586 259.696 129.026 259.904 128.482 260.32C127.938 260.72 127.498 261.264 127.162 261.952C126.826 262.624 126.658 263.4 126.658 264.28L127.522 265.144C127.522 264.616 127.586 264.168 127.714 263.8C127.858 263.416 128.066 263.12 128.338 262.912C128.61 262.704 128.938 262.6 129.322 262.6C129.642 262.6 129.906 262.656 130.114 262.768C130.338 262.864 130.554 263.008 130.762 263.2ZM134.377 267.184L132.865 269.128C133.281 269.528 133.745 269.904 134.257 270.256C134.785 270.592 135.369 270.864 136.009 271.072C136.665 271.28 137.385 271.384 138.169 271.384C139.433 271.384 140.425 271.08 141.145 270.472C141.865 269.848 142.225 268.984 142.225 267.88C142.225 267.208 142.073 266.664 141.769 266.248C141.465 265.832 141.057 265.488 140.545 265.216C140.049 264.928 139.505 264.672 138.913 264.448C138.433 264.24 138.001 264.064 137.617 263.92C137.249 263.776 136.961 263.616 136.753 263.44C136.561 263.248 136.465 263.032 136.465 262.792C136.465 262.52 136.561 262.32 136.753 262.192C136.961 262.048 137.241 261.976 137.593 261.976C138.121 261.976 138.657 262.112 139.201 262.384C139.761 262.656 140.241 263.008 140.641 263.44L142.009 261.52C141.657 261.168 141.249 260.864 140.785 260.608C140.321 260.336 139.817 260.12 139.273 259.96C138.729 259.8 138.145 259.72 137.521 259.72C136.785 259.72 136.113 259.84 135.505 260.08C134.913 260.304 134.441 260.648 134.089 261.112C133.737 261.56 133.561 262.112 133.561 262.768C133.561 263.456 133.713 264.024 134.017 264.472C134.337 264.904 134.737 265.256 135.217 265.528C135.697 265.784 136.193 266.008 136.705 266.2C137.249 266.376 137.697 266.544 138.049 266.704C138.401 266.864 138.665 267.048 138.841 267.256C139.033 267.448 139.129 267.688 139.129 267.976C139.129 268.296 139.017 268.552 138.793 268.744C138.569 268.92 138.249 269.008 137.833 269.008C137.513 269.008 137.169 268.944 136.801 268.816C136.449 268.688 136.073 268.496 135.673 268.24C135.273 267.968 134.841 267.616 134.377 267.184ZM149.58 271.24C150.908 271.24 152.044 270.984 152.988 270.472C153.948 269.944 154.716 269.16 155.292 268.12L152.58 267.28C152.26 267.808 151.852 268.208 151.356 268.48C150.876 268.736 150.292 268.864 149.604 268.864C148.996 268.864 148.476 268.728 148.044 268.456C147.612 268.184 147.284 267.792 147.06 267.28C146.852 266.768 146.748 266.144 146.748 265.408C146.764 264.64 146.876 264 147.084 263.488C147.308 262.96 147.62 262.568 148.02 262.312C148.436 262.04 148.948 261.904 149.556 261.904C150.052 261.904 150.484 262.016 150.852 262.24C151.22 262.464 151.5 262.768 151.692 263.152C151.9 263.536 152.004 264 152.004 264.544C152.004 264.656 151.972 264.8 151.908 264.976C151.86 265.136 151.804 265.264 151.74 265.36L152.58 264.256H145.404V266.176H155.292C155.308 266.08 155.316 265.952 155.316 265.792C155.332 265.632 155.34 265.48 155.34 265.336C155.34 264.152 155.116 263.144 154.668 262.312C154.22 261.464 153.564 260.824 152.7 260.392C151.852 259.944 150.82 259.72 149.604 259.72C148.388 259.72 147.332 259.96 146.436 260.44C145.54 260.904 144.844 261.568 144.348 262.432C143.868 263.28 143.628 264.296 143.628 265.48C143.628 266.648 143.868 267.664 144.348 268.528C144.844 269.376 145.54 270.04 146.436 270.52C147.332 271 148.38 271.24 149.58 271.24ZM167.928 262.6C167.928 261.48 168.176 260.512 168.672 259.696C169.184 258.88 169.848 258.256 170.664 257.824C171.48 257.376 172.368 257.152 173.328 257.152C174.128 257.152 174.84 257.256 175.464 257.464C176.088 257.672 176.648 257.952 177.144 258.304C177.656 258.656 178.096 259.04 178.464 259.456V255.592C177.776 255.048 177.024 254.624 176.208 254.32C175.408 254.016 174.392 253.864 173.16 253.864C171.88 253.864 170.688 254.072 169.584 254.488C168.496 254.904 167.544 255.504 166.728 256.288C165.928 257.072 165.304 258 164.856 259.072C164.424 260.128 164.208 261.304 164.208 262.6C164.208 263.896 164.424 265.08 164.856 266.152C165.304 267.208 165.928 268.128 166.728 268.912C167.544 269.696 168.496 270.296 169.584 270.712C170.688 271.128 171.88 271.336 173.16 271.336C174.392 271.336 175.408 271.184 176.208 270.88C177.024 270.576 177.776 270.152 178.464 269.608V265.744C178.096 266.16 177.656 266.544 177.144 266.896C176.648 267.248 176.088 267.528 175.464 267.736C174.84 267.944 174.128 268.048 173.328 268.048C172.368 268.048 171.48 267.832 170.664 267.4C169.848 266.952 169.184 266.32 168.672 265.504C168.176 264.672 167.928 263.704 167.928 262.6ZM180.847 265.48C180.847 266.616 181.111 267.624 181.639 268.504C182.183 269.368 182.911 270.04 183.823 270.52C184.751 271 185.799 271.24 186.967 271.24C188.135 271.24 189.175 271 190.087 270.52C191.015 270.04 191.743 269.368 192.271 268.504C192.815 267.624 193.087 266.616 193.087 265.48C193.087 264.328 192.815 263.32 192.271 262.456C191.743 261.592 191.015 260.92 190.087 260.44C189.175 259.96 188.135 259.72 186.967 259.72C185.799 259.72 184.751 259.96 183.823 260.44C182.911 260.92 182.183 261.592 181.639 262.456C181.111 263.32 180.847 264.328 180.847 265.48ZM184.015 265.48C184.015 264.856 184.143 264.304 184.399 263.824C184.671 263.344 185.031 262.976 185.479 262.72C185.927 262.464 186.423 262.336 186.967 262.336C187.511 262.336 188.007 262.464 188.455 262.72C188.903 262.976 189.255 263.344 189.511 263.824C189.783 264.304 189.919 264.856 189.919 265.48C189.919 266.104 189.783 266.656 189.511 267.136C189.255 267.6 188.903 267.968 188.455 268.24C188.007 268.496 187.511 268.624 186.967 268.624C186.423 268.624 185.927 268.496 185.479 268.24C185.031 267.968 184.671 267.6 184.399 267.136C184.143 266.656 184.015 266.104 184.015 265.48ZM211.739 263.944C211.739 263.048 211.611 262.288 211.355 261.664C211.115 261.024 210.739 260.544 210.227 260.224C209.715 259.888 209.051 259.72 208.235 259.72C207.483 259.72 206.811 259.88 206.219 260.2C205.643 260.52 205.155 260.992 204.755 261.616C204.515 260.992 204.131 260.52 203.603 260.2C203.075 259.88 202.403 259.72 201.587 259.72C200.851 259.72 200.219 259.88 199.691 260.2C199.163 260.52 198.739 260.984 198.419 261.592V259.96H195.419V271H198.419V264.28C198.419 263.8 198.499 263.392 198.659 263.056C198.819 262.704 199.043 262.448 199.331 262.288C199.619 262.112 199.955 262.024 200.339 262.024C200.915 262.024 201.331 262.216 201.587 262.6C201.843 262.968 201.971 263.528 201.971 264.28V271H205.067V264.28C205.067 263.8 205.147 263.392 205.307 263.056C205.467 262.704 205.691 262.448 205.979 262.288C206.267 262.112 206.603 262.024 206.987 262.024C207.563 262.024 207.979 262.216 208.235 262.6C208.491 262.968 208.619 263.528 208.619 264.28V271H211.739V263.944ZM217.85 276.28V259.96H214.73V276.28H217.85ZM226.922 265.48C226.922 264.216 226.674 263.152 226.178 262.288C225.682 261.408 225.026 260.744 224.21 260.296C223.41 259.848 222.546 259.624 221.618 259.624C220.674 259.624 219.85 259.864 219.146 260.344C218.458 260.824 217.922 261.504 217.538 262.384C217.17 263.248 216.986 264.28 216.986 265.48C216.986 266.664 217.17 267.696 217.538 268.576C217.922 269.456 218.458 270.136 219.146 270.616C219.85 271.096 220.674 271.336 221.618 271.336C222.546 271.336 223.41 271.112 224.21 270.664C225.026 270.216 225.682 269.552 226.178 268.672C226.674 267.792 226.922 266.728 226.922 265.48ZM223.706 265.48C223.706 266.136 223.57 266.696 223.298 267.16C223.026 267.624 222.658 267.976 222.194 268.216C221.746 268.456 221.25 268.576 220.706 268.576C220.242 268.576 219.786 268.464 219.338 268.24C218.906 268 218.546 267.648 218.258 267.184C217.986 266.72 217.85 266.152 217.85 265.48C217.85 264.808 217.986 264.24 218.258 263.776C218.546 263.312 218.906 262.968 219.338 262.744C219.786 262.504 220.242 262.384 220.706 262.384C221.25 262.384 221.746 262.504 222.194 262.744C222.658 262.984 223.026 263.336 223.298 263.8C223.57 264.264 223.706 264.824 223.706 265.48ZM229.239 252.28V271H232.359V252.28H229.239ZM240.635 271.24C241.963 271.24 243.099 270.984 244.043 270.472C245.003 269.944 245.771 269.16 246.347 268.12L243.635 267.28C243.315 267.808 242.907 268.208 242.411 268.48C241.931 268.736 241.347 268.864 240.659 268.864C240.051 268.864 239.531 268.728 239.099 268.456C238.667 268.184 238.339 267.792 238.115 267.28C237.907 266.768 237.803 266.144 237.803 265.408C237.819 264.64 237.931 264 238.139 263.488C238.363 262.96 238.675 262.568 239.075 262.312C239.491 262.04 240.003 261.904 240.611 261.904C241.107 261.904 241.539 262.016 241.907 262.24C242.275 262.464 242.555 262.768 242.747 263.152C242.955 263.536 243.059 264 243.059 264.544C243.059 264.656 243.027 264.8 242.963 264.976C242.915 265.136 242.859 265.264 242.795 265.36L243.635 264.256H236.459V266.176H246.347C246.363 266.08 246.371 265.952 246.371 265.792C246.387 265.632 246.395 265.48 246.395 265.336C246.395 264.152 246.171 263.144 245.723 262.312C245.275 261.464 244.619 260.824 243.755 260.392C242.907 259.944 241.875 259.72 240.659 259.72C239.443 259.72 238.387 259.96 237.491 260.44C236.595 260.904 235.899 261.568 235.403 262.432C234.923 263.28 234.683 264.296 234.683 265.48C234.683 266.648 234.923 267.664 235.403 268.528C235.899 269.376 236.595 270.04 237.491 270.52C238.387 271 239.435 271.24 240.635 271.24ZM247.323 259.96V262.576H254.139V259.96H247.323ZM249.219 256.12V271H252.219V256.12H249.219ZM261.002 271.24C262.33 271.24 263.466 270.984 264.41 270.472C265.37 269.944 266.138 269.16 266.714 268.12L264.002 267.28C263.682 267.808 263.274 268.208 262.778 268.48C262.298 268.736 261.714 268.864 261.026 268.864C260.418 268.864 259.898 268.728 259.466 268.456C259.034 268.184 258.706 267.792 258.482 267.28C258.274 266.768 258.17 266.144 258.17 265.408C258.186 264.64 258.298 264 258.506 263.488C258.73 262.96 259.042 262.568 259.442 262.312C259.858 262.04 260.37 261.904 260.978 261.904C261.474 261.904 261.906 262.016 262.274 262.24C262.642 262.464 262.922 262.768 263.114 263.152C263.322 263.536 263.426 264 263.426 264.544C263.426 264.656 263.394 264.8 263.33 264.976C263.282 265.136 263.226 265.264 263.162 265.36L264.002 264.256H256.826V266.176H266.714C266.73 266.08 266.738 265.952 266.738 265.792C266.754 265.632 266.762 265.48 266.762 265.336C266.762 264.152 266.538 263.144 266.09 262.312C265.642 261.464 264.986 260.824 264.122 260.392C263.274 259.944 262.242 259.72 261.026 259.72C259.81 259.72 258.754 259.96 257.858 260.44C256.962 260.904 256.266 261.568 255.77 262.432C255.29 263.28 255.05 264.296 255.05 265.48C255.05 266.648 255.29 267.664 255.77 268.528C256.266 269.376 256.962 270.04 257.858 270.52C258.754 271 259.802 271.24 261.002 271.24ZM277.434 252.28V271H280.554V252.28H277.434ZM268.362 265.48C268.362 266.696 268.61 267.736 269.106 268.6C269.602 269.464 270.258 270.12 271.074 270.568C271.89 271.016 272.754 271.24 273.666 271.24C274.594 271.24 275.41 271.008 276.114 270.544C276.834 270.08 277.394 269.416 277.794 268.552C278.21 267.688 278.418 266.664 278.418 265.48C278.418 264.28 278.21 263.256 277.794 262.408C277.394 261.544 276.834 260.88 276.114 260.416C275.41 259.952 274.594 259.72 273.666 259.72C272.754 259.72 271.89 259.944 271.074 260.392C270.258 260.84 269.602 261.496 269.106 262.36C268.61 263.208 268.362 264.248 268.362 265.48ZM271.578 265.48C271.578 264.824 271.714 264.256 271.986 263.776C272.258 263.296 272.626 262.928 273.09 262.672C273.554 262.416 274.05 262.288 274.578 262.288C275.042 262.288 275.49 262.416 275.922 262.672C276.37 262.912 276.73 263.272 277.002 263.752C277.29 264.232 277.434 264.808 277.434 265.48C277.434 266.152 277.29 266.728 277.002 267.208C276.73 267.688 276.37 268.056 275.922 268.312C275.49 268.552 275.042 268.672 274.578 268.672C274.05 268.672 273.554 268.544 273.09 268.288C272.626 268.032 272.258 267.664 271.986 267.184C271.714 266.704 271.578 266.136 271.578 265.48Z" fill="#202244"/>
<path d="M59.976 306.112C58.9866 306.112 58.128 305.907 57.4 305.496C56.672 305.076 56.112 304.483 55.72 303.718C55.3373 302.953 55.146 302.047 55.146 301.002C55.146 299.966 55.3373 299.07 55.72 298.314C56.112 297.549 56.672 296.961 57.4 296.55C58.128 296.13 58.9866 295.92 59.976 295.92C60.648 295.92 61.278 296.023 61.866 296.228C62.4633 296.424 62.958 296.713 63.35 297.096L62.762 298.412C62.3046 298.048 61.8566 297.787 61.418 297.628C60.9793 297.46 60.508 297.376 60.004 297.376C59.0426 297.376 58.296 297.689 57.764 298.314C57.2413 298.93 56.98 299.826 56.98 301.002C56.98 302.178 57.2413 303.083 57.764 303.718C58.296 304.343 59.0426 304.656 60.004 304.656C60.508 304.656 60.9793 304.577 61.418 304.418C61.8566 304.25 62.3046 303.984 62.762 303.62L63.35 304.936C62.958 305.319 62.4633 305.613 61.866 305.818C61.278 306.014 60.648 306.112 59.976 306.112ZM67.9676 306.098C67.2302 306.098 66.5909 305.949 66.0496 305.65C65.5176 305.351 65.1069 304.931 64.8176 304.39C64.5282 303.839 64.3836 303.186 64.3836 302.43C64.3836 301.683 64.5282 301.035 64.8176 300.484C65.1069 299.924 65.5176 299.495 66.0496 299.196C66.5909 298.897 67.2302 298.748 67.9676 298.748C68.6862 298.748 69.3116 298.897 69.8436 299.196C70.3849 299.495 70.8002 299.924 71.0896 300.484C71.3882 301.035 71.5376 301.683 71.5376 302.43C71.5376 303.186 71.3882 303.839 71.0896 304.39C70.8002 304.931 70.3849 305.351 69.8436 305.65C69.3116 305.949 68.6862 306.098 67.9676 306.098ZM67.9676 304.754C68.5462 304.754 68.9896 304.563 69.2976 304.18C69.6149 303.788 69.7736 303.205 69.7736 302.43C69.7736 301.665 69.6149 301.091 69.2976 300.708C68.9896 300.316 68.5462 300.12 67.9676 300.12C67.3796 300.12 66.9222 300.316 66.5956 300.708C66.2782 301.091 66.1196 301.665 66.1196 302.43C66.1196 303.205 66.2782 303.788 66.5956 304.18C66.9129 304.563 67.3702 304.754 67.9676 304.754ZM73.0327 306V300.932C73.0327 300.605 73.0234 300.274 73.0047 299.938C72.9954 299.593 72.9674 299.257 72.9207 298.93H74.5727L74.7267 300.33L74.5727 300.344C74.7594 299.84 75.0581 299.448 75.4687 299.168C75.8794 298.888 76.3647 298.748 76.9247 298.748C77.5874 298.748 78.1054 298.916 78.4787 299.252C78.8614 299.579 79.1087 300.083 79.2207 300.764L78.8847 300.456C79.0714 299.943 79.3887 299.532 79.8367 299.224C80.2847 298.907 80.8074 298.748 81.4047 298.748C82.1981 298.748 82.7907 298.991 83.1827 299.476C83.5747 299.952 83.7707 300.68 83.7707 301.66V306H82.0207V301.716C82.0207 301.175 81.9274 300.778 81.7407 300.526C81.5634 300.265 81.2647 300.134 80.8447 300.134C80.3594 300.134 79.9767 300.307 79.6967 300.652C79.4261 300.988 79.2907 301.455 79.2907 302.052V306H77.5407V301.716C77.5407 301.175 77.4427 300.778 77.2467 300.526C77.0601 300.265 76.7614 300.134 76.3507 300.134C75.8561 300.134 75.4687 300.307 75.1887 300.652C74.9181 300.988 74.7827 301.455 74.7827 302.052V306H73.0327ZM85.6245 309.024V300.932C85.6245 300.605 85.6152 300.274 85.5965 299.938C85.5872 299.593 85.5592 299.257 85.5125 298.93H87.1645L87.3185 300.33L87.2205 300.414C87.3699 299.891 87.6639 299.485 88.1025 299.196C88.5412 298.897 89.0592 298.748 89.6565 298.748C90.2725 298.748 90.8139 298.907 91.2805 299.224C91.7565 299.532 92.1299 299.966 92.4005 300.526C92.6712 301.077 92.8065 301.725 92.8065 302.472C92.8065 303.209 92.6712 303.853 92.4005 304.404C92.1299 304.945 91.7612 305.365 91.2945 305.664C90.8279 305.953 90.2819 306.098 89.6565 306.098C89.0592 306.098 88.5412 305.958 88.1025 305.678C87.6639 305.389 87.3699 304.983 87.2205 304.46L87.3745 304.236V309.024H85.6245ZM89.2085 304.754C89.7872 304.754 90.2352 304.558 90.5525 304.166C90.8699 303.765 91.0285 303.2 91.0285 302.472C91.0285 301.725 90.8699 301.147 90.5525 300.736C90.2352 300.325 89.7872 300.12 89.2085 300.12C88.6112 300.12 88.1539 300.321 87.8365 300.722C87.5285 301.114 87.3745 301.688 87.3745 302.444C87.3745 303.181 87.5285 303.751 87.8365 304.152C88.1539 304.553 88.6112 304.754 89.2085 304.754ZM94.3062 306V295.696H96.0562V306H94.3062ZM104.019 305.216C103.683 305.496 103.268 305.715 102.773 305.874C102.288 306.023 101.793 306.098 101.289 306.098C100.524 306.098 99.8609 305.953 99.3009 305.664C98.7502 305.375 98.3255 304.955 98.0269 304.404C97.7282 303.853 97.5789 303.2 97.5789 302.444C97.5789 301.716 97.7235 301.077 98.0129 300.526C98.3022 299.966 98.7035 299.532 99.2169 299.224C99.7302 298.907 100.323 298.748 100.995 298.748C101.648 298.748 102.208 298.893 102.675 299.182C103.142 299.462 103.501 299.868 103.753 300.4C104.014 300.932 104.145 301.562 104.145 302.29V302.556H99.1189L99.1329 301.618H103.109L102.633 302.094C102.642 301.413 102.507 300.895 102.227 300.54C101.956 300.185 101.56 300.008 101.037 300.008C100.477 300.008 100.043 300.209 99.7349 300.61C99.4269 301.002 99.2729 301.567 99.2729 302.304C99.2729 303.144 99.4455 303.765 99.7909 304.166C100.136 304.558 100.659 304.754 101.359 304.754C101.742 304.754 102.115 304.693 102.479 304.572C102.852 304.441 103.198 304.255 103.515 304.012L104.019 305.216ZM104.649 300.246V298.93H109.633V300.246H104.649ZM109.633 304.544V305.93C109.446 305.995 109.26 306.037 109.073 306.056C108.896 306.084 108.704 306.098 108.499 306.098C107.706 306.098 107.09 305.874 106.651 305.426C106.222 304.978 106.007 304.334 106.007 303.494V297.208L107.757 296.62V303.41C107.757 303.727 107.808 303.979 107.911 304.166C108.014 304.343 108.149 304.469 108.317 304.544C108.494 304.619 108.69 304.656 108.905 304.656C109.026 304.656 109.143 304.647 109.255 304.628C109.367 304.609 109.493 304.581 109.633 304.544ZM116.898 305.216C116.562 305.496 116.146 305.715 115.652 305.874C115.166 306.023 114.672 306.098 114.168 306.098C113.402 306.098 112.74 305.953 112.18 305.664C111.629 305.375 111.204 304.955 110.906 304.404C110.607 303.853 110.458 303.2 110.458 302.444C110.458 301.716 110.602 301.077 110.892 300.526C111.181 299.966 111.582 299.532 112.096 299.224C112.609 298.907 113.202 298.748 113.874 298.748C114.527 298.748 115.087 298.893 115.554 299.182C116.02 299.462 116.38 299.868 116.632 300.4C116.893 300.932 117.024 301.562 117.024 302.29V302.556H111.998L112.012 301.618H115.988L115.512 302.094C115.521 301.413 115.386 300.895 115.106 300.54C114.835 300.185 114.438 300.008 113.916 300.008C113.356 300.008 112.922 300.209 112.614 300.61C112.306 301.002 112.152 301.567 112.152 302.304C112.152 303.144 112.324 303.765 112.67 304.166C113.015 304.558 113.538 304.754 114.238 304.754C114.62 304.754 114.994 304.693 115.358 304.572C115.731 304.441 116.076 304.255 116.394 304.012L116.898 305.216ZM122.18 309.178L121.788 307.834C122.226 307.741 122.59 307.629 122.88 307.498C123.169 307.377 123.407 307.218 123.594 307.022C123.79 306.826 123.953 306.574 124.084 306.266L124.588 305.118L125.036 304.474L127.304 298.93H129.04L125.764 306.476C125.493 307.092 125.18 307.582 124.826 307.946C124.471 308.319 124.07 308.599 123.622 308.786C123.183 308.973 122.702 309.103 122.18 309.178ZM124.63 306.462L121.368 298.93H123.202L125.428 304.474L124.63 306.462ZM133.046 306.098C132.308 306.098 131.669 305.949 131.128 305.65C130.596 305.351 130.185 304.931 129.896 304.39C129.606 303.839 129.462 303.186 129.462 302.43C129.462 301.683 129.606 301.035 129.896 300.484C130.185 299.924 130.596 299.495 131.128 299.196C131.669 298.897 132.308 298.748 133.046 298.748C133.764 298.748 134.39 298.897 134.922 299.196C135.463 299.495 135.878 299.924 136.168 300.484C136.466 301.035 136.616 301.683 136.616 302.43C136.616 303.186 136.466 303.839 136.168 304.39C135.878 304.931 135.463 305.351 134.922 305.65C134.39 305.949 133.764 306.098 133.046 306.098ZM133.046 304.754C133.624 304.754 134.068 304.563 134.376 304.18C134.693 303.788 134.852 303.205 134.852 302.43C134.852 301.665 134.693 301.091 134.376 300.708C134.068 300.316 133.624 300.12 133.046 300.12C132.458 300.12 132 300.316 131.674 300.708C131.356 301.091 131.198 301.665 131.198 302.43C131.198 303.205 131.356 303.788 131.674 304.18C131.991 304.563 132.448 304.754 133.046 304.754ZM140.673 306.098C139.805 306.098 139.152 305.86 138.713 305.384C138.284 304.899 138.069 304.171 138.069 303.2V298.93H139.819V303.214C139.819 303.727 139.926 304.105 140.141 304.348C140.356 304.591 140.678 304.712 141.107 304.712C141.62 304.712 142.031 304.544 142.339 304.208C142.647 303.872 142.801 303.424 142.801 302.864V298.93H144.565V306H142.857V304.544L143.039 304.53C142.834 305.043 142.526 305.435 142.115 305.706C141.704 305.967 141.224 306.098 140.673 306.098ZM146.437 306V300.932C146.437 300.605 146.428 300.274 146.409 299.938C146.4 299.593 146.372 299.257 146.325 298.93H147.977L148.173 300.75L147.977 300.652C148.098 300.027 148.374 299.555 148.803 299.238C149.232 298.921 149.718 298.762 150.259 298.762C150.399 298.762 150.53 298.771 150.651 298.79C150.772 298.809 150.88 298.837 150.973 298.874L150.945 300.47C150.656 300.349 150.348 300.288 150.021 300.288C149.601 300.288 149.256 300.372 148.985 300.54C148.724 300.708 148.523 300.937 148.383 301.226C148.252 301.506 148.187 301.823 148.187 302.178V306H146.437ZM160.423 306.112C159.434 306.112 158.575 305.907 157.847 305.496C157.119 305.076 156.559 304.483 156.167 303.718C155.785 302.953 155.593 302.047 155.593 301.002C155.593 299.966 155.785 299.07 156.167 298.314C156.559 297.549 157.119 296.961 157.847 296.55C158.575 296.13 159.434 295.92 160.423 295.92C161.095 295.92 161.725 296.023 162.313 296.228C162.911 296.424 163.405 296.713 163.797 297.096L163.209 298.412C162.752 298.048 162.304 297.787 161.865 297.628C161.427 297.46 160.955 297.376 160.451 297.376C159.49 297.376 158.743 297.689 158.211 298.314C157.689 298.93 157.427 299.826 157.427 301.002C157.427 302.178 157.689 303.083 158.211 303.718C158.743 304.343 159.49 304.656 160.451 304.656C160.955 304.656 161.427 304.577 161.865 304.418C162.304 304.25 162.752 303.984 163.209 303.62L163.797 304.936C163.405 305.319 162.911 305.613 162.313 305.818C161.725 306.014 161.095 306.112 160.423 306.112ZM168.415 306.098C167.678 306.098 167.038 305.949 166.497 305.65C165.965 305.351 165.554 304.931 165.265 304.39C164.976 303.839 164.831 303.186 164.831 302.43C164.831 301.683 164.976 301.035 165.265 300.484C165.554 299.924 165.965 299.495 166.497 299.196C167.038 298.897 167.678 298.748 168.415 298.748C169.134 298.748 169.759 298.897 170.291 299.196C170.832 299.495 171.248 299.924 171.537 300.484C171.836 301.035 171.985 301.683 171.985 302.43C171.985 303.186 171.836 303.839 171.537 304.39C171.248 304.931 170.832 305.351 170.291 305.65C169.759 305.949 169.134 306.098 168.415 306.098ZM168.415 304.754C168.994 304.754 169.437 304.563 169.745 304.18C170.062 303.788 170.221 303.205 170.221 302.43C170.221 301.665 170.062 301.091 169.745 300.708C169.437 300.316 168.994 300.12 168.415 300.12C167.827 300.12 167.37 300.316 167.043 300.708C166.726 301.091 166.567 301.665 166.567 302.43C166.567 303.205 166.726 303.788 167.043 304.18C167.36 304.563 167.818 304.754 168.415 304.754ZM176.042 306.098C175.174 306.098 174.521 305.86 174.082 305.384C173.653 304.899 173.438 304.171 173.438 303.2V298.93H175.188V303.214C175.188 303.727 175.295 304.105 175.51 304.348C175.725 304.591 176.047 304.712 176.476 304.712C176.989 304.712 177.4 304.544 177.708 304.208C178.016 303.872 178.17 303.424 178.17 302.864V298.93H179.934V306H178.226V304.544L178.408 304.53C178.203 305.043 177.895 305.435 177.484 305.706C177.073 305.967 176.593 306.098 176.042 306.098ZM181.806 306V300.932C181.806 300.605 181.797 300.274 181.778 299.938C181.769 299.593 181.741 299.257 181.694 298.93H183.346L183.542 300.75L183.346 300.652C183.467 300.027 183.743 299.555 184.172 299.238C184.601 298.921 185.087 298.762 185.628 298.762C185.768 298.762 185.899 298.771 186.02 298.79C186.141 298.809 186.249 298.837 186.342 298.874L186.314 300.47C186.025 300.349 185.717 300.288 185.39 300.288C184.97 300.288 184.625 300.372 184.354 300.54C184.093 300.708 183.892 300.937 183.752 301.226C183.621 301.506 183.556 301.823 183.556 302.178V306H181.806ZM189.824 306.098C188.536 306.098 187.519 305.804 186.772 305.216L187.262 303.984C187.636 304.264 188.042 304.474 188.48 304.614C188.919 304.754 189.376 304.824 189.852 304.824C190.282 304.824 190.608 304.754 190.832 304.614C191.056 304.474 191.168 304.278 191.168 304.026C191.168 303.811 191.089 303.643 190.93 303.522C190.772 303.391 190.501 303.279 190.118 303.186L188.942 302.92C188.298 302.78 187.813 302.547 187.486 302.22C187.169 301.884 187.01 301.459 187.01 300.946C187.01 300.517 187.132 300.139 187.374 299.812C187.617 299.476 187.958 299.215 188.396 299.028C188.835 298.841 189.344 298.748 189.922 298.748C190.426 298.748 190.912 298.827 191.378 298.986C191.845 299.135 192.251 299.355 192.596 299.644L192.092 300.848C191.738 300.577 191.374 300.377 191 300.246C190.636 300.115 190.272 300.05 189.908 300.05C189.507 300.05 189.194 300.125 188.97 300.274C188.746 300.423 188.634 300.629 188.634 300.89C188.634 301.095 188.7 301.259 188.83 301.38C188.97 301.501 189.208 301.599 189.544 301.674L190.734 301.968C191.434 302.117 191.943 302.36 192.26 302.696C192.587 303.023 192.75 303.457 192.75 303.998C192.75 304.642 192.489 305.155 191.966 305.538C191.444 305.911 190.73 306.098 189.824 306.098ZM200.31 305.216C199.974 305.496 199.559 305.715 199.064 305.874C198.579 306.023 198.084 306.098 197.58 306.098C196.815 306.098 196.152 305.953 195.592 305.664C195.041 305.375 194.617 304.955 194.318 304.404C194.019 303.853 193.87 303.2 193.87 302.444C193.87 301.716 194.015 301.077 194.304 300.526C194.593 299.966 194.995 299.532 195.508 299.224C196.021 298.907 196.614 298.748 197.286 298.748C197.939 298.748 198.499 298.893 198.966 299.182C199.433 299.462 199.792 299.868 200.044 300.4C200.305 300.932 200.436 301.562 200.436 302.29V302.556H195.41L195.424 301.618H199.4L198.924 302.094C198.933 301.413 198.798 300.895 198.518 300.54C198.247 300.185 197.851 300.008 197.328 300.008C196.768 300.008 196.334 300.209 196.026 300.61C195.718 301.002 195.564 301.567 195.564 302.304C195.564 303.144 195.737 303.765 196.082 304.166C196.427 304.558 196.95 304.754 197.65 304.754C198.033 304.754 198.406 304.693 198.77 304.572C199.143 304.441 199.489 304.255 199.806 304.012L200.31 305.216ZM201.736 304.04H203.71V306H201.736V304.04ZM209.399 306V296.032H213.725C214.808 296.032 215.643 296.293 216.231 296.816C216.829 297.329 217.127 298.034 217.127 298.93C217.127 299.817 216.824 300.521 216.217 301.044C215.62 301.567 214.789 301.828 213.725 301.828H211.205V306H209.399ZM211.205 300.442H213.515C214.15 300.442 214.621 300.311 214.929 300.05C215.247 299.789 215.405 299.42 215.405 298.944C215.405 298.459 215.251 298.09 214.943 297.838C214.635 297.577 214.159 297.446 213.515 297.446H211.205V300.442ZM218.584 306V295.696H220.334V306H218.584ZM228.296 305.216C227.96 305.496 227.545 305.715 227.05 305.874C226.565 306.023 226.07 306.098 225.566 306.098C224.801 306.098 224.138 305.953 223.578 305.664C223.028 305.375 222.603 304.955 222.304 304.404C222.006 303.853 221.856 303.2 221.856 302.444C221.856 301.716 222.001 301.077 222.29 300.526C222.58 299.966 222.981 299.532 223.494 299.224C224.008 298.907 224.6 298.748 225.272 298.748C225.926 298.748 226.486 298.893 226.952 299.182C227.419 299.462 227.778 299.868 228.03 300.4C228.292 300.932 228.422 301.562 228.422 302.29V302.556H223.396L223.41 301.618H227.386L226.91 302.094C226.92 301.413 226.784 300.895 226.504 300.54C226.234 300.185 225.837 300.008 225.314 300.008C224.754 300.008 224.32 300.209 224.012 300.61C223.704 301.002 223.55 301.567 223.55 302.304C223.55 303.144 223.723 303.765 224.068 304.166C224.414 304.558 224.936 304.754 225.636 304.754C226.019 304.754 226.392 304.693 226.756 304.572C227.13 304.441 227.475 304.255 227.792 304.012L228.296 305.216ZM232.648 306.098C232.032 306.098 231.486 305.953 231.01 305.664C230.534 305.365 230.165 304.945 229.904 304.404C229.652 303.853 229.526 303.209 229.526 302.472C229.526 301.725 229.657 301.077 229.918 300.526C230.179 299.966 230.543 299.532 231.01 299.224C231.486 298.907 232.032 298.748 232.648 298.748C233.245 298.748 233.763 298.897 234.202 299.196C234.65 299.485 234.953 299.891 235.112 300.414L234.944 300.512V298.93H236.666V306H234.944V304.404L235.112 304.46C234.953 304.983 234.65 305.389 234.202 305.678C233.763 305.958 233.245 306.098 232.648 306.098ZM233.124 304.754C233.703 304.754 234.151 304.553 234.468 304.152C234.785 303.751 234.944 303.181 234.944 302.444C234.944 301.688 234.785 301.114 234.468 300.722C234.151 300.321 233.703 300.12 233.124 300.12C232.536 300.12 232.079 300.325 231.752 300.736C231.425 301.147 231.262 301.725 231.262 302.472C231.262 303.2 231.425 303.765 231.752 304.166C232.079 304.558 232.536 304.754 233.124 304.754ZM241.162 306.098C239.874 306.098 238.857 305.804 238.11 305.216L238.6 303.984C238.973 304.264 239.379 304.474 239.818 304.614C240.257 304.754 240.714 304.824 241.19 304.824C241.619 304.824 241.946 304.754 242.17 304.614C242.394 304.474 242.506 304.278 242.506 304.026C242.506 303.811 242.427 303.643 242.268 303.522C242.109 303.391 241.839 303.279 241.456 303.186L240.28 302.92C239.636 302.78 239.151 302.547 238.824 302.22C238.507 301.884 238.348 301.459 238.348 300.946C238.348 300.517 238.469 300.139 238.712 299.812C238.955 299.476 239.295 299.215 239.734 299.028C240.173 298.841 240.681 298.748 241.26 298.748C241.764 298.748 242.249 298.827 242.716 298.986C243.183 299.135 243.589 299.355 243.934 299.644L243.43 300.848C243.075 300.577 242.711 300.377 242.338 300.246C241.974 300.115 241.61 300.05 241.246 300.05C240.845 300.05 240.532 300.125 240.308 300.274C240.084 300.423 239.972 300.629 239.972 300.89C239.972 301.095 240.037 301.259 240.168 301.38C240.308 301.501 240.546 301.599 240.882 301.674L242.072 301.968C242.772 302.117 243.281 302.36 243.598 302.696C243.925 303.023 244.088 303.457 244.088 303.998C244.088 304.642 243.827 305.155 243.304 305.538C242.781 305.911 242.067 306.098 241.162 306.098ZM251.648 305.216C251.312 305.496 250.896 305.715 250.402 305.874C249.916 306.023 249.422 306.098 248.918 306.098C248.152 306.098 247.49 305.953 246.93 305.664C246.379 305.375 245.954 304.955 245.656 304.404C245.357 303.853 245.208 303.2 245.208 302.444C245.208 301.716 245.352 301.077 245.642 300.526C245.931 299.966 246.332 299.532 246.846 299.224C247.359 298.907 247.952 298.748 248.624 298.748C249.277 298.748 249.837 298.893 250.304 299.182C250.77 299.462 251.13 299.868 251.382 300.4C251.643 300.932 251.774 301.562 251.774 302.29V302.556H246.748L246.762 301.618H250.738L250.262 302.094C250.271 301.413 250.136 300.895 249.856 300.54C249.585 300.185 249.188 300.008 248.666 300.008C248.106 300.008 247.672 300.209 247.364 300.61C247.056 301.002 246.902 301.567 246.902 302.304C246.902 303.144 247.074 303.765 247.42 304.166C247.765 304.558 248.288 304.754 248.988 304.754C249.37 304.754 249.744 304.693 250.108 304.572C250.481 304.441 250.826 304.255 251.144 304.012L251.648 305.216ZM260.01 306L256.482 296.032H258.316L261.046 304.222H260.542L263.398 296.032L264.686 296.046L267.458 304.222H266.982L269.768 296.032H271.49L267.976 306H266.506L263.832 298.356H264.168L261.466 306H260.01ZM271.959 306V300.932C271.959 300.605 271.949 300.274 271.931 299.938C271.921 299.593 271.893 299.257 271.847 298.93H273.499L273.695 300.75L273.499 300.652C273.62 300.027 273.895 299.555 274.325 299.238C274.754 298.921 275.239 298.762 275.781 298.762C275.921 298.762 276.051 298.771 276.173 298.79C276.294 298.809 276.401 298.837 276.495 298.874L276.467 300.47C276.177 300.349 275.869 300.288 275.543 300.288C275.123 300.288 274.777 300.372 274.507 300.54C274.245 300.708 274.045 300.937 273.905 301.226C273.774 301.506 273.709 301.823 273.709 302.178V306H271.959ZM277.441 306V298.93H279.191V306H277.441ZM277.357 295.724H279.303V297.446H277.357V295.724ZM280.21 300.246V298.93H285.194V300.246H280.21ZM285.194 304.544V305.93C285.007 305.995 284.82 306.037 284.634 306.056C284.456 306.084 284.265 306.098 284.06 306.098C283.266 306.098 282.65 305.874 282.212 305.426C281.782 304.978 281.568 304.334 281.568 303.494V297.208L283.318 296.62V303.41C283.318 303.727 283.369 303.979 283.472 304.166C283.574 304.343 283.71 304.469 283.878 304.544C284.055 304.619 284.251 304.656 284.466 304.656C284.587 304.656 284.704 304.647 284.816 304.628C284.928 304.609 285.054 304.581 285.194 304.544ZM292.458 305.216C292.122 305.496 291.707 305.715 291.212 305.874C290.727 306.023 290.232 306.098 289.728 306.098C288.963 306.098 288.3 305.953 287.74 305.664C287.19 305.375 286.765 304.955 286.466 304.404C286.168 303.853 286.018 303.2 286.018 302.444C286.018 301.716 286.163 301.077 286.452 300.526C286.742 299.966 287.143 299.532 287.656 299.224C288.17 298.907 288.762 298.748 289.434 298.748C290.088 298.748 290.648 298.893 291.114 299.182C291.581 299.462 291.94 299.868 292.192 300.4C292.454 300.932 292.584 301.562 292.584 302.29V302.556H287.558L287.572 301.618H291.548L291.072 302.094C291.082 301.413 290.946 300.895 290.666 300.54C290.396 300.185 289.999 300.008 289.476 300.008C288.916 300.008 288.482 300.209 288.174 300.61C287.866 301.002 287.712 301.567 287.712 302.304C287.712 303.144 287.885 303.765 288.23 304.166C288.576 304.558 289.098 304.754 289.798 304.754C290.181 304.754 290.554 304.693 290.918 304.572C291.292 304.441 291.637 304.255 291.954 304.012L292.458 305.216ZM300.652 306.098C300.036 306.098 299.49 305.953 299.014 305.664C298.538 305.365 298.169 304.945 297.908 304.404C297.656 303.853 297.53 303.209 297.53 302.472C297.53 301.725 297.661 301.077 297.922 300.526C298.183 299.966 298.547 299.532 299.014 299.224C299.49 298.907 300.036 298.748 300.652 298.748C301.249 298.748 301.767 298.897 302.206 299.196C302.654 299.485 302.957 299.891 303.116 300.414L302.948 300.512V298.93H304.67V306H302.948V304.404L303.116 304.46C302.957 304.983 302.654 305.389 302.206 305.678C301.767 305.958 301.249 306.098 300.652 306.098ZM301.128 304.754C301.707 304.754 302.155 304.553 302.472 304.152C302.789 303.751 302.948 303.181 302.948 302.444C302.948 301.688 302.789 301.114 302.472 300.722C302.155 300.321 301.707 300.12 301.128 300.12C300.54 300.12 300.083 300.325 299.756 300.736C299.429 301.147 299.266 301.725 299.266 302.472C299.266 303.2 299.429 303.765 299.756 304.166C300.083 304.558 300.54 304.754 301.128 304.754ZM156.804 324V314.032H161.074C162.203 314.032 163.062 314.279 163.65 314.774C164.238 315.269 164.532 315.978 164.532 316.902C164.532 317.779 164.228 318.479 163.622 319.002C163.015 319.515 162.17 319.772 161.088 319.772L162.208 319.548C162.553 319.548 162.861 319.651 163.132 319.856C163.402 320.061 163.617 320.379 163.776 320.808L165.008 324H163.104L161.844 320.682C161.713 320.355 161.526 320.136 161.284 320.024C161.05 319.912 160.756 319.856 160.402 319.856H158.582V324H156.804ZM158.568 318.456H160.822C161.512 318.456 162.016 318.33 162.334 318.078C162.651 317.826 162.81 317.448 162.81 316.944C162.81 316.431 162.651 316.053 162.334 315.81C162.016 315.567 161.512 315.446 160.822 315.446H158.568V318.456ZM172.57 323.216C172.234 323.496 171.818 323.715 171.324 323.874C170.838 324.023 170.344 324.098 169.84 324.098C169.074 324.098 168.412 323.953 167.852 323.664C167.301 323.375 166.876 322.955 166.578 322.404C166.279 321.853 166.13 321.2 166.13 320.444C166.13 319.716 166.274 319.077 166.564 318.526C166.853 317.966 167.254 317.532 167.768 317.224C168.281 316.907 168.874 316.748 169.546 316.748C170.199 316.748 170.759 316.893 171.226 317.182C171.692 317.462 172.052 317.868 172.304 318.4C172.565 318.932 172.696 319.562 172.696 320.29V320.556H167.67L167.684 319.618H171.66L171.184 320.094C171.193 319.413 171.058 318.895 170.778 318.54C170.507 318.185 170.11 318.008 169.588 318.008C169.028 318.008 168.594 318.209 168.286 318.61C167.978 319.002 167.824 319.567 167.824 320.304C167.824 321.144 167.996 321.765 168.342 322.166C168.687 322.558 169.21 322.754 169.91 322.754C170.292 322.754 170.666 322.693 171.03 322.572C171.403 322.441 171.748 322.255 172.066 322.012L172.57 323.216ZM176.14 324L173.088 316.944H174.922L177.148 322.474H176.756L179.024 316.944H180.76L177.666 324H176.14ZM181.656 324V316.93H183.406V324H181.656ZM181.572 313.724H183.518V315.446H181.572V313.724ZM191.368 323.216C191.032 323.496 190.617 323.715 190.122 323.874C189.637 324.023 189.142 324.098 188.638 324.098C187.873 324.098 187.21 323.953 186.65 323.664C186.1 323.375 185.675 322.955 185.376 322.404C185.078 321.853 184.928 321.2 184.928 320.444C184.928 319.716 185.073 319.077 185.362 318.526C185.652 317.966 186.053 317.532 186.566 317.224C187.08 316.907 187.672 316.748 188.344 316.748C188.998 316.748 189.558 316.893 190.024 317.182C190.491 317.462 190.85 317.868 191.102 318.4C191.364 318.932 191.494 319.562 191.494 320.29V320.556H186.468L186.482 319.618H190.458L189.982 320.094C189.992 319.413 189.856 318.895 189.576 318.54C189.306 318.185 188.909 318.008 188.386 318.008C187.826 318.008 187.392 318.209 187.084 318.61C186.776 319.002 186.622 319.567 186.622 320.304C186.622 321.144 186.795 321.765 187.14 322.166C187.486 322.558 188.008 322.754 188.708 322.754C189.091 322.754 189.464 322.693 189.828 322.572C190.202 322.441 190.547 322.255 190.864 322.012L191.368 323.216ZM194.827 324L192.055 316.93H193.861L195.849 322.404H195.499L197.501 316.93H198.775L200.763 322.404H200.441L202.429 316.93H204.123L201.351 324H199.825L197.669 318.302H198.467L196.353 324H194.827Z" fill="#545454"/>
<path fill-rule="evenodd" clip-rule="evenodd" d="M117.98 347.621L120.207 352.094C120.371 352.418 120.683 352.645 121.046 352.699L126.043 353.426C126.335 353.469 126.601 353.621 126.777 353.855C126.957 354.09 127.031 354.383 126.988 354.672C126.953 354.91 126.839 355.133 126.668 355.301L123.046 358.809C122.781 359.059 122.66 359.418 122.722 359.773L123.617 364.711C123.714 365.301 123.32 365.859 122.722 365.98C122.48 366.019 122.23 365.98 122.011 365.867L117.55 363.543C117.218 363.375 116.828 363.375 116.5 363.543L112.039 365.867C111.487 366.16 110.801 365.957 110.503 365.418C110.391 365.203 110.352 364.957 110.387 364.719L111.28 359.781C111.344 359.43 111.223 359.066 110.957 358.816L107.335 355.312C107.125 355.105 107.003 354.824 107.003 354.531C107.003 354.238 107.125 353.957 107.335 353.75C107.507 353.578 107.733 353.465 107.98 353.434L112.977 352.707C113.339 352.652 113.651 352.43 113.812 352.102L115.964 347.621C116.151 347.242 116.546 347 116.98 347.008H117.113C117.488 347.055 117.816 347.285 117.98 347.621Z" fill="#FF9C07"/>
<path fill-rule="evenodd" clip-rule="evenodd" d="M117.008 363.411C116.812 363.411 116.629 363.477 116.453 363.563L112.008 365.88C111.473 366.149 110.797 365.934 110.504 365.419C110.391 365.208 110.348 364.966 110.387 364.727L111.281 359.802C111.34 359.442 111.219 359.083 110.957 358.829L107.328 355.321C106.891 354.892 106.891 354.192 107.328 353.759C107.5 353.591 107.723 353.481 107.961 353.446L112.977 352.708C113.359 352.653 113.637 352.439 113.812 352.103L115.992 347.571C116.156 347.204 116.715 346.95 117.016 347.009C117.008 347.31 117.008 363.212 117.008 363.411Z" fill="#E78B01"/>
<path fill-rule="evenodd" clip-rule="evenodd" d="M149.409 347.621L151.636 352.094C151.8 352.418 152.112 352.645 152.475 352.699L157.472 353.426C157.764 353.469 158.03 353.621 158.206 353.855C158.386 354.09 158.46 354.383 158.417 354.672C158.382 354.91 158.268 355.133 158.097 355.301L154.475 358.809C154.21 359.059 154.089 359.418 154.151 359.773L155.046 364.711C155.143 365.301 154.749 365.859 154.151 365.98C153.909 366.019 153.659 365.98 153.44 365.867L148.979 363.543C148.647 363.375 148.257 363.375 147.929 363.543L143.468 365.867C142.916 366.16 142.23 365.957 141.932 365.418C141.82 365.203 141.781 364.957 141.816 364.719L142.709 359.781C142.773 359.43 142.652 359.066 142.386 358.816L138.764 355.312C138.554 355.105 138.432 354.824 138.432 354.531C138.432 354.238 138.554 353.957 138.764 353.75C138.936 353.578 139.162 353.465 139.409 353.434L144.406 352.707C144.768 352.652 145.08 352.43 145.241 352.102L147.393 347.621C147.58 347.242 147.975 347 148.409 347.008H148.542C148.917 347.055 149.245 347.285 149.409 347.621Z" fill="#FF9C07"/>
<path fill-rule="evenodd" clip-rule="evenodd" d="M148.436 363.411C148.24 363.411 148.057 363.477 147.881 363.563L143.436 365.88C142.901 366.149 142.225 365.934 141.932 365.419C141.819 365.208 141.776 364.966 141.815 364.727L142.709 359.802C142.768 359.442 142.647 359.083 142.385 358.829L138.756 355.321C138.319 354.892 138.319 354.192 138.756 353.759C138.928 353.591 139.151 353.481 139.389 353.446L144.405 352.708C144.787 352.653 145.065 352.439 145.24 352.103L147.42 347.571C147.584 347.204 148.143 346.95 148.444 347.009C148.436 347.31 148.436 363.212 148.436 363.411Z" fill="#E78B01"/>
<path fill-rule="evenodd" clip-rule="evenodd" d="M180.838 347.621L183.065 352.094C183.229 352.418 183.541 352.645 183.904 352.699L188.901 353.426C189.193 353.469 189.459 353.621 189.635 353.855C189.815 354.09 189.889 354.383 189.846 354.672C189.811 354.91 189.697 355.133 189.526 355.301L185.904 358.809C185.639 359.059 185.518 359.418 185.58 359.773L186.475 364.711C186.572 365.301 186.178 365.859 185.58 365.98C185.338 366.019 185.088 365.98 184.869 365.867L180.408 363.543C180.076 363.375 179.686 363.375 179.358 363.543L174.897 365.867C174.345 366.16 173.659 365.957 173.361 365.418C173.249 365.203 173.21 364.957 173.245 364.719L174.138 359.781C174.202 359.43 174.081 359.066 173.815 358.816L170.193 355.312C169.983 355.105 169.861 354.824 169.861 354.531C169.861 354.238 169.983 353.957 170.193 353.75C170.365 353.578 170.591 353.465 170.838 353.434L175.835 352.707C176.197 352.652 176.509 352.43 176.67 352.102L178.822 347.621C179.009 347.242 179.404 347 179.838 347.008H179.971C180.346 347.055 180.674 347.285 180.838 347.621Z" fill="#FF9C07"/>
<path fill-rule="evenodd" clip-rule="evenodd" d="M179.865 363.411C179.669 363.411 179.486 363.477 179.31 363.563L174.865 365.88C174.33 366.149 173.654 365.934 173.361 365.419C173.248 365.208 173.205 364.966 173.244 364.727L174.138 359.802C174.197 359.442 174.076 359.083 173.814 358.829L170.185 355.321C169.748 354.892 169.748 354.192 170.185 353.759C170.357 353.591 170.58 353.481 170.818 353.446L175.834 352.708C176.216 352.653 176.494 352.439 176.669 352.103L178.849 347.571C179.013 347.204 179.572 346.95 179.873 347.009C179.865 347.31 179.865 363.212 179.865 363.411Z" fill="#E78B01"/>
<path fill-rule="evenodd" clip-rule="evenodd" d="M212.266 347.621L214.493 352.094C214.657 352.418 214.969 352.645 215.332 352.699L220.329 353.426C220.621 353.469 220.887 353.621 221.063 353.855C221.243 354.09 221.317 354.383 221.274 354.672C221.239 354.91 221.125 355.133 220.954 355.301L217.332 358.809C217.067 359.059 216.946 359.418 217.008 359.773L217.903 364.711C218 365.301 217.606 365.859 217.008 365.98C216.766 366.019 216.516 365.98 216.297 365.867L211.836 363.543C211.504 363.375 211.114 363.375 210.786 363.543L206.325 365.867C205.773 366.16 205.087 365.957 204.789 365.418C204.677 365.203 204.638 364.957 204.673 364.719L205.566 359.781C205.63 359.43 205.509 359.066 205.243 358.816L201.621 355.312C201.411 355.105 201.289 354.824 201.289 354.531C201.289 354.238 201.411 353.957 201.621 353.75C201.793 353.578 202.019 353.465 202.266 353.434L207.263 352.707C207.625 352.652 207.937 352.43 208.098 352.102L210.25 347.621C210.437 347.242 210.832 347 211.266 347.008H211.399C211.774 347.055 212.102 347.285 212.266 347.621Z" fill="#FF9C07"/>
<path fill-rule="evenodd" clip-rule="evenodd" d="M211.293 363.411C211.097 363.411 210.914 363.477 210.738 363.563L206.293 365.88C205.758 366.149 205.082 365.934 204.789 365.419C204.676 365.208 204.633 364.966 204.672 364.727L205.566 359.802C205.625 359.442 205.504 359.083 205.242 358.829L201.613 355.321C201.176 354.892 201.176 354.192 201.613 353.759C201.785 353.591 202.008 353.481 202.246 353.446L207.262 352.708C207.644 352.653 207.922 352.439 208.097 352.103L210.277 347.571C210.441 347.204 211 346.95 211.301 347.009C211.293 347.31 211.293 363.212 211.293 363.411Z" fill="#E78B01"/>
<path fill-rule="evenodd" clip-rule="evenodd" d="M243.695 347.621L245.922 352.094C246.086 352.418 246.398 352.645 246.761 352.699L251.758 353.426C252.05 353.469 252.316 353.621 252.492 353.855C252.672 354.09 252.746 354.383 252.703 354.672C252.668 354.91 252.554 355.133 252.383 355.301L248.761 358.809C248.496 359.059 248.375 359.418 248.437 359.773L249.332 364.711C249.429 365.301 249.035 365.859 248.437 365.98C248.195 366.019 247.945 365.98 247.726 365.867L243.265 363.543C242.933 363.375 242.543 363.375 242.215 363.543L237.754 365.867C237.202 366.16 236.516 365.957 236.218 365.418C236.106 365.203 236.067 364.957 236.102 364.719L236.995 359.781C237.059 359.43 236.938 359.066 236.672 358.816L233.05 355.312C232.84 355.105 232.718 354.824 232.718 354.531C232.718 354.238 232.84 353.957 233.05 353.75C233.222 353.578 233.448 353.465 233.695 353.434L238.692 352.707C239.054 352.652 239.366 352.43 239.527 352.102L241.679 347.621C241.866 347.242 242.261 347 242.695 347.008H242.828C243.203 347.055 243.531 347.285 243.695 347.621Z" fill="#B4BDC4"/>
<path fill-rule="evenodd" clip-rule="evenodd" d="M242.722 363.411C242.526 363.411 242.343 363.477 242.167 363.563L237.722 365.88C237.187 366.149 236.511 365.934 236.218 365.419C236.105 365.208 236.062 364.966 236.101 364.727L236.995 359.802C237.054 359.442 236.933 359.083 236.671 358.829L233.042 355.321C232.605 354.892 232.605 354.192 233.042 353.759C233.214 353.591 233.437 353.481 233.675 353.446L238.691 352.708C239.073 352.653 239.351 352.439 239.526 352.103L241.706 347.571C241.87 347.204 242.429 346.95 242.73 347.009C242.722 347.31 242.722 363.212 242.722 363.411Z" fill="#A0A4AB"/>
<g filter="url(#filter0_d_38_3357)">
<rect x="67" y="392" width="226" height="60" rx="30" fill="#0961F5"/>
</g>
<circle cx="261" cy="422" r="24" fill="white"/>
<path fill-rule="evenodd" clip-rule="evenodd" d="M252.249 423.867H268.038L262.675 429.17C262.202 429.653 262.212 430.426 262.69 430.902C263.172 431.376 263.953 431.385 264.442 430.917L271.937 423.505C272.172 423.274 272.303 422.96 272.303 422.636V422.631C272.303 422.472 272.27 422.308 272.206 422.158C272.142 422.009 272.05 421.874 271.937 421.758L264.442 414.346C263.948 413.877 263.172 413.887 262.69 414.36C262.207 414.837 262.202 415.609 262.675 416.093L268.038 421.396H252.249C251.561 421.396 251 421.951 251 422.631C251 423.312 251.561 423.867 252.249 423.867Z" fill="#0961F5"/>
<path d="M108.924 423.23L105.378 414.77L101.868 423.23L99.132 415.4H96.108L101.4 428.702L105.378 420.422L109.338 428.702L114.648 415.4H111.624L108.924 423.23ZM116.911 419.72H114.625V428H116.911V419.72ZM119.341 422.15L120.403 420.17C120.235 419.954 120.013 419.792 119.737 419.684C119.473 419.576 119.191 419.522 118.891 419.522C118.459 419.522 118.039 419.678 117.631 419.99C117.223 420.29 116.893 420.698 116.641 421.214C116.389 421.718 116.263 422.3 116.263 422.96L116.911 423.608C116.911 423.212 116.959 422.876 117.055 422.6C117.163 422.312 117.319 422.09 117.523 421.934C117.727 421.778 117.973 421.7 118.261 421.7C118.501 421.7 118.699 421.742 118.855 421.826C119.023 421.898 119.185 422.006 119.341 422.15ZM121.53 416.516C121.53 416.888 121.668 417.2 121.944 417.452C122.22 417.704 122.55 417.83 122.934 417.83C123.318 417.83 123.642 417.704 123.906 417.452C124.182 417.2 124.32 416.888 124.32 416.516C124.32 416.132 124.182 415.82 123.906 415.58C123.642 415.328 123.318 415.202 122.934 415.202C122.55 415.202 122.22 415.328 121.944 415.58C121.668 415.82 121.53 416.132 121.53 416.516ZM121.782 419.72V428H124.05V419.72H121.782ZM125.463 419.72V421.682H130.575V419.72H125.463ZM126.885 416.84V428H129.135V416.84H126.885ZM135.722 428.18C136.718 428.18 137.57 427.988 138.278 427.604C138.998 427.208 139.574 426.62 140.006 425.84L137.972 425.21C137.732 425.606 137.426 425.906 137.054 426.11C136.694 426.302 136.256 426.398 135.74 426.398C135.284 426.398 134.894 426.296 134.57 426.092C134.246 425.888 134 425.594 133.832 425.21C133.676 424.826 133.598 424.358 133.598 423.806C133.61 423.23 133.694 422.75 133.85 422.366C134.018 421.97 134.252 421.676 134.552 421.484C134.864 421.28 135.248 421.178 135.704 421.178C136.076 421.178 136.4 421.262 136.676 421.43C136.952 421.598 137.162 421.826 137.306 422.114C137.462 422.402 137.54 422.75 137.54 423.158C137.54 423.242 137.516 423.35 137.468 423.482C137.432 423.602 137.39 423.698 137.342 423.77L137.972 422.942H132.59V424.382H140.006C140.018 424.31 140.024 424.214 140.024 424.094C140.036 423.974 140.042 423.86 140.042 423.752C140.042 422.864 139.874 422.108 139.538 421.484C139.202 420.848 138.71 420.368 138.062 420.044C137.426 419.708 136.652 419.54 135.74 419.54C134.828 419.54 134.036 419.72 133.364 420.08C132.692 420.428 132.17 420.926 131.798 421.574C131.438 422.21 131.258 422.972 131.258 423.86C131.258 424.736 131.438 425.498 131.798 426.146C132.17 426.782 132.692 427.28 133.364 427.64C134.036 428 134.822 428.18 135.722 428.18ZM148.853 425.426C148.853 425.186 148.907 424.988 149.015 424.832C149.123 424.664 149.291 424.538 149.519 424.454C149.747 424.358 150.041 424.31 150.401 424.31C150.845 424.31 151.265 424.37 151.661 424.49C152.069 424.61 152.435 424.79 152.759 425.03V423.95C152.639 423.806 152.441 423.656 152.165 423.5C151.889 423.344 151.547 423.212 151.139 423.104C150.743 422.996 150.281 422.942 149.753 422.942C148.721 422.942 147.923 423.176 147.359 423.644C146.795 424.112 146.513 424.748 146.513 425.552C146.513 426.116 146.645 426.596 146.909 426.992C147.185 427.376 147.545 427.67 147.989 427.874C148.433 428.078 148.913 428.18 149.429 428.18C149.933 428.18 150.413 428.09 150.869 427.91C151.337 427.73 151.715 427.46 152.003 427.1C152.303 426.74 152.453 426.296 152.453 425.768L152.165 424.688C152.165 425.084 152.075 425.426 151.895 425.714C151.715 425.99 151.481 426.206 151.193 426.362C150.905 426.506 150.581 426.578 150.221 426.578C149.969 426.578 149.735 426.536 149.519 426.452C149.315 426.356 149.153 426.224 149.033 426.056C148.913 425.876 148.853 425.666 148.853 425.426ZM147.953 422.06C148.073 421.976 148.259 421.874 148.511 421.754C148.763 421.634 149.063 421.532 149.411 421.448C149.759 421.364 150.125 421.322 150.509 421.322C150.761 421.322 150.989 421.346 151.193 421.394C151.397 421.442 151.571 421.52 151.715 421.628C151.871 421.736 151.985 421.874 152.057 422.042C152.129 422.198 152.165 422.39 152.165 422.618V428H154.415V422.132C154.415 421.568 154.259 421.094 153.947 420.71C153.635 420.314 153.203 420.014 152.651 419.81C152.099 419.606 151.469 419.504 150.761 419.504C149.993 419.504 149.297 419.612 148.673 419.828C148.049 420.032 147.521 420.248 147.089 420.476L147.953 422.06ZM165.058 422.132L168.838 428H171.88L167.776 422.132H165.058ZM162.196 415.4V428H164.77V415.4H162.196ZM163.762 417.596H166.264C166.72 417.596 167.11 417.674 167.434 417.83C167.77 417.974 168.028 418.19 168.208 418.478C168.388 418.754 168.478 419.09 168.478 419.486C168.478 419.882 168.388 420.224 168.208 420.512C168.028 420.788 167.77 421.004 167.434 421.16C167.11 421.304 166.72 421.376 166.264 421.376H163.762V423.428H166.426C167.422 423.428 168.268 423.26 168.964 422.924C169.66 422.588 170.194 422.12 170.566 421.52C170.938 420.908 171.124 420.206 171.124 419.414C171.124 418.61 170.938 417.908 170.566 417.308C170.194 416.708 169.66 416.24 168.964 415.904C168.268 415.568 167.422 415.4 166.426 415.4H163.762V417.596ZM177.048 428.18C178.044 428.18 178.896 427.988 179.604 427.604C180.324 427.208 180.9 426.62 181.332 425.84L179.298 425.21C179.058 425.606 178.752 425.906 178.38 426.11C178.02 426.302 177.582 426.398 177.066 426.398C176.61 426.398 176.22 426.296 175.896 426.092C175.572 425.888 175.326 425.594 175.158 425.21C175.002 424.826 174.924 424.358 174.924 423.806C174.936 423.23 175.02 422.75 175.176 422.366C175.344 421.97 175.578 421.676 175.878 421.484C176.19 421.28 176.574 421.178 177.03 421.178C177.402 421.178 177.726 421.262 178.002 421.43C178.278 421.598 178.488 421.826 178.632 422.114C178.788 422.402 178.866 422.75 178.866 423.158C178.866 423.242 178.842 423.35 178.794 423.482C178.758 423.602 178.716 423.698 178.668 423.77L179.298 422.942H173.916V424.382H181.332C181.344 424.31 181.35 424.214 181.35 424.094C181.362 423.974 181.368 423.86 181.368 423.752C181.368 422.864 181.2 422.108 180.864 421.484C180.528 420.848 180.036 420.368 179.388 420.044C178.752 419.708 177.978 419.54 177.066 419.54C176.154 419.54 175.362 419.72 174.69 420.08C174.018 420.428 173.496 420.926 173.124 421.574C172.764 422.21 172.584 422.972 172.584 423.86C172.584 424.736 172.764 425.498 173.124 426.146C173.496 426.782 174.018 427.28 174.69 427.64C175.362 428 176.148 428.18 177.048 428.18ZM181.675 419.72L186.211 428.864L190.747 419.72H188.245L186.211 424.706L184.177 419.72H181.675ZM191.755 416.516C191.755 416.888 191.893 417.2 192.169 417.452C192.445 417.704 192.775 417.83 193.159 417.83C193.543 417.83 193.867 417.704 194.131 417.452C194.407 417.2 194.545 416.888 194.545 416.516C194.545 416.132 194.407 415.82 194.131 415.58C193.867 415.328 193.543 415.202 193.159 415.202C192.775 415.202 192.445 415.328 192.169 415.58C191.893 415.82 191.755 416.132 191.755 416.516ZM192.007 419.72V428H194.275V419.72H192.007ZM200.656 428.18C201.652 428.18 202.504 427.988 203.212 427.604C203.932 427.208 204.508 426.62 204.94 425.84L202.906 425.21C202.666 425.606 202.36 425.906 201.988 426.11C201.628 426.302 201.19 426.398 200.674 426.398C200.218 426.398 199.828 426.296 199.504 426.092C199.18 425.888 198.934 425.594 198.766 425.21C198.61 424.826 198.532 424.358 198.532 423.806C198.544 423.23 198.628 422.75 198.784 422.366C198.952 421.97 199.186 421.676 199.486 421.484C199.798 421.28 200.182 421.178 200.638 421.178C201.01 421.178 201.334 421.262 201.61 421.43C201.886 421.598 202.096 421.826 202.24 422.114C202.396 422.402 202.474 422.75 202.474 423.158C202.474 423.242 202.45 423.35 202.402 423.482C202.366 423.602 202.324 423.698 202.276 423.77L202.906 422.942H197.524V424.382H204.94C204.952 424.31 204.958 424.214 204.958 424.094C204.97 423.974 204.976 423.86 204.976 423.752C204.976 422.864 204.808 422.108 204.472 421.484C204.136 420.848 203.644 420.368 202.996 420.044C202.36 419.708 201.586 419.54 200.674 419.54C199.762 419.54 198.97 419.72 198.298 420.08C197.626 420.428 197.104 420.926 196.732 421.574C196.372 422.21 196.192 422.972 196.192 423.86C196.192 424.736 196.372 425.498 196.732 426.146C197.104 426.782 197.626 427.28 198.298 427.64C198.97 428 199.756 428.18 200.656 428.18ZM205.246 419.72L209.314 428.558L211.906 423.284L214.57 428.558L218.62 419.72H216.154L214.318 424.328L211.888 419.09L209.548 424.31L207.73 419.72H205.246Z" fill="white"/>
</g>
<defs>
<filter id="filter0_d_38_3357" x="60" y="386" width="242" height="76" filterUnits="userSpaceOnUse" color-interpolation-filters="sRGB">
<feFlood flood-opacity="0" result="BackgroundImageFix"/>
<feColorMatrix in="SourceAlpha" type="matrix" values="0 0 0 0 0 0 0 0 0 0 0 0 0 0 0 0 0 0 127 0" result="hardAlpha"/>
<feOffset dx="1" dy="2"/>
<feGaussianBlur stdDeviation="4"/>
<feColorMatrix type="matrix" values="0 0 0 0 0 0 0 0 0 0 0 0 0 0 0 0 0 0 0.3 0"/>
<feBlend mode="normal" in2="BackgroundImageFix" result="effect1_dropShadow_38_3357"/>
<feBlend mode="normal" in="SourceGraphic" in2="effect1_dropShadow_38_3357" result="shape"/>
</filter>
<clipPath id="clip0_38_3357">
<rect width="360" height="500" fill="white"/>
</clipPath>
</defs>
</svg>
