<svg width="102" height="100" viewBox="0 0 102 100" fill="none" xmlns="http://www.w3.org/2000/svg">
<path fill-rule="evenodd" clip-rule="evenodd" d="M93.2855 0L87.2493 14.0845V93.9638C87.2501 97.2978 84.5471 100 81.2131 100H15.0159L21.0521 89.0767V6.03622C21.0521 2.70221 23.7549 0 27.0883 0H93.2855Z" fill="#F0F0F2"/>
<path fill-rule="evenodd" clip-rule="evenodd" d="M74.372 85.915H8.37598V93.9633C8.37598 97.2973 11.0782 99.9995 14.4122 99.9995H81.4142" fill="#DADADC"/>
<path fill-rule="evenodd" clip-rule="evenodd" d="M74.5732 85.915V93.6615C74.5732 97.1621 77.4107 99.9995 80.9113 99.9995C84.4113 99.9995 87.2493 97.1621 87.2493 93.6615V85.915" fill="#F0F0F2"/>
<path fill-rule="evenodd" clip-rule="evenodd" d="M66.9015 69.9195H45.1333C44.3003 69.9195 43.6242 69.2437 43.6242 68.4105C43.6242 67.5773 44.3003 66.9014 45.1333 66.9014H66.9015C67.7347 66.9014 68.4106 67.5773 68.4106 68.4105C68.4106 69.2437 67.7347 69.9195 66.9015 69.9195ZM64.7888 60.8652H45.1333C44.3003 60.8652 43.6242 60.1893 43.6242 59.3561C43.6242 58.5229 44.3003 57.8471 45.1333 57.8471H64.7888C65.622 57.8471 66.2979 58.5229 66.2979 59.3561C66.2979 60.1893 65.622 60.8652 64.7888 60.8652ZM66.9015 51.8109H45.1333C44.3003 51.8109 43.6242 51.135 43.6242 50.3018C43.6242 49.4686 44.3003 48.7928 45.1333 48.7928H66.9015C67.7347 48.7928 68.4106 49.4686 68.4106 50.3018C68.4106 51.135 67.7347 51.8109 66.9015 51.8109ZM73.8431 42.7565H45.1333C44.3003 42.7565 43.6242 42.0807 43.6242 41.2475C43.6242 40.4143 44.3003 39.7384 45.1333 39.7384H73.8431C74.6763 39.7384 75.3522 40.4143 75.3522 41.2475C75.3522 42.0807 74.6763 42.7565 73.8431 42.7565ZM73.8431 33.7022H30.0427C29.2097 33.7022 28.5337 33.0264 28.5337 32.1932C28.5337 31.36 29.2097 30.6841 30.0427 30.6841H73.8431C74.6763 30.6841 75.3522 31.36 75.3522 32.1932C75.3522 33.0264 74.6763 33.7022 73.8431 33.7022ZM93.6242 0C97.1454 0 100 2.85473 100 6.37585V14.0845H87.2494V6.37585C87.2494 2.85473 90.1033 0 93.6242 0Z" fill="#DADADC"/>
<path fill-rule="evenodd" clip-rule="evenodd" d="M57.9476 56.338V99.9999H21.1267V56.338C21.1267 53.004 23.8289 50.3018 27.1629 50.3018H51.9114C55.2454 50.3018 57.9476 53.004 57.9476 56.338Z" fill="#E1E1E3"/>
<path fill-rule="evenodd" clip-rule="evenodd" d="M44.1651 56.3379H50.1007C50.9896 56.3379 51.7103 57.0586 51.7103 57.9475V64.185C51.7103 65.0739 50.9896 65.7946 50.1007 65.7946H44.1651C43.2761 65.7946 42.5554 65.0739 42.5554 64.185V57.9475C42.5554 57.0586 43.2761 56.3379 44.1651 56.3379Z" fill="#52BBE9"/>
<path fill-rule="evenodd" clip-rule="evenodd" d="M44.1651 71.8311H50.1007C50.9896 71.8311 51.7103 72.5518 51.7103 73.4407V79.6781C51.7103 80.5671 50.9896 81.2878 50.1007 81.2878H44.1651C43.2761 81.2878 42.5554 80.5671 42.5554 79.6781V73.4407C42.5554 72.5518 43.2761 71.8311 44.1651 71.8311Z" fill="#52BBE9"/>
<path fill-rule="evenodd" clip-rule="evenodd" d="M39.839 50.3018V99.9999H21.1267V56.338C21.1267 53.004 23.8289 50.3018 27.1629 50.3018H39.839Z" fill="#C8C5CC"/>
<path fill-rule="evenodd" clip-rule="evenodd" d="M6.03622 41.2471H30.7847C34.1187 41.2471 36.8209 43.9493 36.8209 47.2833V99.9996H0V47.2833C0 43.9493 2.70221 41.2471 6.03622 41.2471Z" fill="#E1E1E3"/>
<path fill-rule="evenodd" clip-rule="evenodd" d="M14.2637 78.2695H22.5571C24.2243 78.2695 25.5752 79.6206 25.5752 81.2876V99.9999H11.2456V81.2876C11.2456 79.6206 12.5965 78.2695 14.2637 78.2695Z" fill="#AEADB3"/>
<path fill-rule="evenodd" clip-rule="evenodd" d="M22.5572 78.2695H19.5391C21.2063 78.2695 22.5572 79.6206 22.5572 81.2876V99.9999H25.5753V81.2876C25.5753 79.6206 24.2244 78.2695 22.5572 78.2695Z" fill="#8B8893"/>
<path fill-rule="evenodd" clip-rule="evenodd" d="M7.64579 47.2842H13.7826C14.6715 47.2842 15.3923 48.0049 15.3923 48.8938V55.1313C15.3923 56.0202 14.6715 56.7409 13.7826 56.7409H7.64579C6.75686 56.7409 6.03613 56.0202 6.03613 55.1313V48.8938C6.03613 48.0049 6.75686 47.2842 7.64579 47.2842Z" fill="#52BBE9"/>
<path fill-rule="evenodd" clip-rule="evenodd" d="M13.7828 47.2842H10.7646C11.6536 47.2842 12.3743 48.0049 12.3743 48.8938V55.1313C12.3743 56.0202 11.6536 56.7409 10.7646 56.7409H13.7828C14.6717 56.7409 15.3924 56.0202 15.3924 55.1313V48.8938C15.3924 48.0049 14.6717 47.2842 13.7828 47.2842Z" fill="#1CABE1"/>
<path fill-rule="evenodd" clip-rule="evenodd" d="M23.0381 47.2842H28.9737C29.8627 47.2842 30.5834 48.0049 30.5834 48.8938V55.1313C30.5834 56.0202 29.8627 56.7409 28.9737 56.7409H23.0381C22.1492 56.7409 21.4285 56.0202 21.4285 55.1313V48.8938C21.4285 48.0049 22.1492 47.2842 23.0381 47.2842Z" fill="#52BBE9"/>
<path fill-rule="evenodd" clip-rule="evenodd" d="M7.64579 62.7764H13.7826C14.6715 62.7764 15.3923 63.4971 15.3923 64.386V70.6234C15.3923 71.5124 14.6715 72.2331 13.7826 72.2331H7.64579C6.75686 72.2331 6.03613 71.5124 6.03613 70.6234V64.386C6.03613 63.4971 6.75686 62.7764 7.64579 62.7764Z" fill="#52BBE9"/>
<path fill-rule="evenodd" clip-rule="evenodd" d="M13.7828 62.7764H10.7646C11.6536 62.7764 12.3743 63.4971 12.3743 64.386V70.6234C12.3743 71.5124 11.6536 72.2331 10.7646 72.2331H13.7828C14.6717 72.2331 15.3924 71.5124 15.3924 70.6234V64.386C15.3924 63.4971 14.6717 62.7764 13.7828 62.7764Z" fill="#1CABE1"/>
<path fill-rule="evenodd" clip-rule="evenodd" d="M23.0381 62.7764H28.9737C29.8627 62.7764 30.5834 63.4971 30.5834 64.386V70.6234C30.5834 71.5124 29.8627 72.2331 28.9737 72.2331H23.0381C22.1492 72.2331 21.4285 71.5124 21.4285 70.6234V64.386C21.4285 63.4971 22.1492 62.7764 23.0381 62.7764Z" fill="#52BBE9"/>
<path fill-rule="evenodd" clip-rule="evenodd" d="M29.2167 62.7771H25.9558C26.9162 62.7771 27.6949 63.4979 27.6949 64.3868V70.6242C27.6949 71.5132 26.9162 72.2339 25.9558 72.2339H29.2167C30.1771 72.2339 30.9558 71.5132 30.9558 70.6242V64.3868C30.9558 63.4979 30.1771 62.7771 29.2167 62.7771ZM29.2167 47.2842H25.9558C26.9162 47.2842 27.6949 48.0049 27.6949 48.8938V55.1313C27.6949 56.0202 26.9162 56.7409 25.9558 56.7409H29.2167C30.1771 56.7409 30.9558 56.0202 30.9558 55.1313V48.8938C30.9558 48.0049 30.1771 47.2842 29.2167 47.2842Z" fill="#1CABE1"/>
<path fill-rule="evenodd" clip-rule="evenodd" d="M87.2494 41.06V79.06C87.0065 79.0694 86.7629 79.0741 86.5192 79.0741C76.018 79.0741 67.5051 70.5614 67.5051 60.06C67.5051 49.5588 76.018 41.0459 86.5192 41.0459C86.7629 41.0459 87.0065 41.0499 87.2494 41.06Z" fill="#E1E1E3"/>
<path fill-rule="evenodd" clip-rule="evenodd" d="M86.5192 46.7522C86.7645 46.7522 87.0081 46.7586 87.2494 46.7727V43.4165C87.0081 43.4041 86.7645 43.3984 86.5192 43.3984C77.3172 43.3984 69.8574 50.8582 69.8574 60.0602C69.8574 69.2622 77.3172 76.722 86.5192 76.722C86.7645 76.722 87.0081 76.7163 87.2494 76.7039V73.3477C87.0081 73.3618 86.7645 73.3683 86.5192 73.3683C79.1697 73.3683 73.2111 67.4097 73.2111 60.0602C73.2111 52.7107 79.1697 46.7522 86.5192 46.7522Z" fill="#E1E1E3"/>
<path fill-rule="evenodd" clip-rule="evenodd" d="M86.5192 75.0502C78.2406 75.0502 71.5293 68.3389 71.5293 60.0603C71.5293 51.7816 78.2406 45.0703 86.5192 45.0703C94.7981 45.0703 101.509 51.7816 101.509 60.0603C101.5 68.3349 94.7939 75.0407 86.5192 75.0502Z" fill="#24B378"/>
<mask id="mask0_38_3923" style="mask-type:luminance" maskUnits="userSpaceOnUse" x="83" y="45" width="19" height="31">
<path fill-rule="evenodd" clip-rule="evenodd" d="M83.501 45.0703H101.509V75.0523H83.501V45.0703Z" fill="white"/>
</mask>
<g mask="url(#mask0_38_3923)">
<path fill-rule="evenodd" clip-rule="evenodd" d="M86.5191 45.0703C85.5052 45.0695 84.4945 45.1717 83.501 45.3753C90.471 46.8089 95.4736 52.9442 95.4736 60.0603C95.4736 67.1764 90.471 73.3116 83.501 74.7452C89.1034 75.8959 94.8724 73.7597 98.373 69.2371C101.874 64.7148 102.496 58.5945 99.9772 53.4597C97.4589 48.325 92.2386 45.0703 86.5191 45.0703Z" fill="#19AC66"/>
</g>
<path fill-rule="evenodd" clip-rule="evenodd" d="M84.2295 65.3331C83.8295 65.3331 83.4458 65.1743 83.1629 64.8914L80.2148 61.9431C79.8305 61.562 79.6796 61.0055 79.8186 60.483C79.9579 59.9602 80.3665 59.5524 80.8885 59.4131C81.411 59.2741 81.9683 59.425 82.3486 59.8085L84.2303 61.6902L90.6893 55.2302C91.2788 54.6407 92.2337 54.6407 92.8233 55.2302C93.4128 55.8198 93.4128 56.7755 92.8233 57.3648L85.2969 64.8914C85.014 65.1743 84.6303 65.3331 84.2295 65.3331Z" fill="white"/>
<path fill-rule="evenodd" clip-rule="evenodd" d="M78.3324 15.7481H68.8262C67.993 15.7481 67.3171 15.0729 67.3171 14.2391C67.3171 13.4059 67.993 12.73 68.8262 12.73H78.3324C79.1664 12.73 79.8415 13.4059 79.8415 14.2391C79.8415 15.0729 79.1664 15.7481 78.3324 15.7481ZM78.3324 10.563H68.8262C67.993 10.563 67.3171 9.88718 67.3171 9.05398C67.3171 8.22078 67.993 7.54492 68.8262 7.54492H78.3324C79.1664 7.54492 79.8415 8.22078 79.8415 9.05398C79.8415 9.88718 79.1664 10.563 78.3324 10.563Z" fill="#24B378"/>
<path fill-rule="evenodd" clip-rule="evenodd" d="M75.7403 28.1727C75.3276 28.1733 74.933 28.0045 74.6485 27.7057L67.7352 20.4671C67.3179 20.03 67.2014 19.387 67.4389 18.8314C67.6763 18.2757 68.2218 17.9157 68.8262 17.9157H70.5546C72.5853 17.9157 74.2312 16.2699 74.2312 14.2397C74.2312 12.2089 72.5853 10.563 70.5546 10.563H68.8262C67.993 10.563 67.3171 9.88718 67.3171 9.05398C67.3171 8.22078 67.993 7.54492 68.8262 7.54492H70.5546C73.9381 7.54492 76.7888 10.0695 77.1998 13.4278C77.6101 16.7864 75.4503 19.9224 72.1672 20.7373L76.8312 25.6214C77.2485 26.0576 77.3656 26.7013 77.1276 27.257C76.8902 27.8125 76.3447 28.1727 75.7403 28.1727Z" fill="#24B378"/>
<path fill-rule="evenodd" clip-rule="evenodd" d="M31.3883 9.05469H60.7778C61.8893 9.05469 62.7899 9.95549 62.7899 11.0668V22.1332C62.7899 23.2444 61.8893 24.1452 60.7778 24.1452H31.3883C30.277 24.1452 29.3762 23.2444 29.3762 22.1332V11.0668C29.3762 9.95549 30.277 9.05469 31.3883 9.05469Z" fill="#DADADC"/>
</svg>
