<svg width="20" height="20" viewBox="0 0 20 20" fill="none" xmlns="http://www.w3.org/2000/svg">
<path fill-rule="evenodd" clip-rule="evenodd" d="M6.96522 0C6.47826 0 6.08696 0.391304 6.08696 0.878261V6.10435H1.05217C1 6.09565 0.93913 6.08696 0.878261 6.08696C0.391304 6.08696 0 6.47826 0 6.96522C0 7.44348 0.382609 7.83478 0.869565 7.84348H7.82609V1.05217C7.83478 1 7.84348 0.93913 7.84348 0.878261C7.84348 0.391304 7.44348 0 6.96522 0ZM18.2696 11.3043C18.2096 11.3043 18.1478 11.313 18.0957 11.3217H11.3043V18.2783C11.313 18.7652 11.6957 19.1478 12.1826 19.1478C12.6704 19.1478 13.0609 18.7565 13.0609 18.2696C13.0609 18.2087 13.0522 18.1478 13.0435 18.0957V13.0609H18.2696C18.7574 13.0609 19.1478 12.6696 19.1478 12.1826C19.1478 11.6957 18.7574 11.3043 18.2696 11.3043ZM7.82609 18.0957V11.3217H1.05217C1 11.313 0.93913 11.3043 0.878261 11.3043C0.391304 11.3043 0 11.6957 0 12.1826C0 12.6696 0.382609 13.0522 0.869565 13.0609H6.08696V18.2783C6.09565 18.7652 6.47826 19.1478 6.96522 19.1478C7.44348 19.1478 7.84348 18.7565 7.84348 18.2696C7.84348 18.2087 7.83478 18.1478 7.82609 18.0957ZM19.1478 6.96522C19.1478 7.44348 18.7574 7.84348 18.2696 7.84348H11.3043V0.878261C11.3043 0.391304 11.6957 0 12.1826 0C12.6704 0 13.0609 0.391304 13.0609 0.878261C13.0609 0.93913 13.0522 1 13.0435 1.05217V6.10435H18.0957C18.1478 6.09565 18.2096 6.08696 18.2696 6.08696C18.7574 6.08696 19.1478 6.47826 19.1478 6.96522Z" fill="white"/>
</svg>
