<svg width="418" height="100" viewBox="0 0 418 100" fill="none" xmlns="http://www.w3.org/2000/svg">
<rect x="-10" width="428" height="100" fill="#F5F9FF"/>
<g clip-path="url(#clip0_82_812)">
<path d="M30.2805 54V47.592H31.6575V54H30.2805ZM25.9335 54V47.592H27.3105V54H25.9335ZM26.3835 51.3V50.193H31.1085V51.3H26.3835ZM36.2902 54.081C35.6482 54.081 35.0932 53.946 34.6252 53.676C34.1572 53.406 33.7942 53.025 33.5362 52.533C33.2842 52.041 33.1582 51.459 33.1582 50.787C33.1582 50.121 33.2842 49.542 33.5362 49.05C33.7942 48.558 34.1572 48.18 34.6252 47.916C35.0932 47.646 35.6482 47.511 36.2902 47.511C36.9322 47.511 37.4842 47.646 37.9462 47.916C38.4142 48.18 38.7742 48.558 39.0262 49.05C39.2782 49.542 39.4042 50.121 39.4042 50.787C39.4042 51.459 39.2782 52.041 39.0262 52.533C38.7742 53.025 38.4142 53.406 37.9462 53.676C37.4842 53.946 36.9322 54.081 36.2902 54.081ZM36.2902 52.992C36.8182 52.992 37.2352 52.806 37.5412 52.434C37.8532 52.056 38.0092 51.507 38.0092 50.787C38.0092 50.067 37.8532 49.524 37.5412 49.158C37.2352 48.786 36.8182 48.6 36.2902 48.6C35.7562 48.6 35.3362 48.786 35.0302 49.158C34.7242 49.524 34.5712 50.067 34.5712 50.787C34.5712 51.513 34.7242 52.062 35.0302 52.434C35.3362 52.806 35.7562 52.992 36.2902 52.992ZM40.9195 54V47.592H42.0355L44.3485 52.875H43.8535L46.1575 47.592H47.2645V54H46.0225L46.0135 49.671L46.3375 49.752L44.5465 54H43.6375L41.8105 49.752L42.1525 49.671V54H40.9195ZM48.9568 54V47.592H53.3758V48.681H50.3338V50.193H53.1868V51.291H50.3338V52.911H53.3758V54H48.9568Z" fill="#202244"/>
<path fill-rule="evenodd" clip-rule="evenodd" d="M37.922 38.2583H33.922C32.625 38.2543 31.574 37.2073 31.566 35.9103V27.9533C31.566 27.5193 31.762 27.1093 32.094 26.8323L32.801 26.3083C33.059 26.0353 33.082 25.6173 32.863 25.3123C32.641 25.0083 32.234 24.9063 31.895 25.0663L31.176 25.6053C30.445 26.1683 30.016 27.0313 30 27.9533V35.9183C30.004 38.0823 31.758 39.8363 33.922 39.8403H37.922C38.355 39.8403 38.703 39.4883 38.703 39.0593C38.703 38.6253 38.355 38.2743 37.922 38.2743V38.2583Z" fill="#202244"/>
<path fill-rule="evenodd" clip-rule="evenodd" d="M48.7929 27.9342C48.7809 27.0232 48.3629 26.1602 47.6519 25.5862L41.6449 20.7972C40.3239 19.7343 38.4409 19.7343 37.1209 20.7972L35.2189 22.1802C34.8589 22.4372 34.7769 22.9343 35.0349 23.2933C35.2929 23.6483 35.7889 23.7302 36.1479 23.4732L38.0779 22.0312C38.8359 21.4062 39.9299 21.4062 40.6879 22.0312L46.6949 26.8203C47.0429 27.0982 47.2459 27.5122 47.2539 27.9532V35.9183C47.2539 37.2153 46.1989 38.2663 44.9059 38.2663H43.1209C42.9379 38.2663 42.7929 38.1173 42.7929 37.9342V34.3442C42.7929 33.1992 41.8669 32.2692 40.7229 32.2662H38.1129C37.5619 32.2662 37.0349 32.4843 36.6449 32.8752C36.2539 33.2662 36.0349 33.7933 36.0349 34.3442V35.7192C36.0349 36.1483 36.3869 36.5002 36.8159 36.5002C37.2499 36.5002 37.6019 36.1483 37.6019 35.7192V34.3442C37.5979 34.2072 37.6479 34.0782 37.7459 33.9803C37.8399 33.8872 37.9689 33.8322 38.1049 33.8322H40.7149C40.9919 33.8322 41.2189 34.0592 41.2189 34.3363V37.9342C41.2229 38.9842 42.0739 39.8323 43.1209 39.8323H44.8589C47.0269 39.8323 48.7809 38.0742 48.7809 35.9102L48.7929 27.9342Z" fill="#202244"/>
</g>
<path d="M86.1983 54V47.592H87.3143L89.6273 52.875H89.1323L91.4363 47.592H92.5433V54H91.3013L91.2923 49.671L91.6163 49.752L89.8253 54H88.9163L87.0893 49.752L87.4313 49.671V54H86.1983ZM95.7746 54V51.12L96.0716 51.93L93.1376 47.592H94.7306L96.6656 50.625H96.2876L98.2406 47.592H99.8426L96.9086 51.93L97.1876 51.12V54H95.7746ZM106.347 54.081C105.693 54.081 105.126 53.946 104.646 53.676C104.166 53.406 103.797 53.025 103.539 52.533C103.281 52.035 103.152 51.453 103.152 50.787C103.152 50.127 103.281 49.551 103.539 49.059C103.797 48.567 104.166 48.186 104.646 47.916C105.126 47.646 105.693 47.511 106.347 47.511C106.773 47.511 107.178 47.577 107.562 47.709C107.946 47.835 108.264 48.015 108.516 48.249L108.075 49.257C107.787 49.041 107.505 48.885 107.229 48.789C106.959 48.687 106.674 48.636 106.374 48.636C105.804 48.636 105.363 48.819 105.051 49.185C104.739 49.545 104.583 50.079 104.583 50.787C104.583 51.495 104.739 52.035 105.051 52.407C105.363 52.773 105.804 52.956 106.374 52.956C106.674 52.956 106.959 52.908 107.229 52.812C107.505 52.71 107.787 52.551 108.075 52.335L108.516 53.343C108.264 53.577 107.946 53.76 107.562 53.892C107.178 54.018 106.773 54.081 106.347 54.081ZM112.714 54.081C112.072 54.081 111.517 53.946 111.049 53.676C110.581 53.406 110.218 53.025 109.96 52.533C109.708 52.041 109.582 51.459 109.582 50.787C109.582 50.121 109.708 49.542 109.96 49.05C110.218 48.558 110.581 48.18 111.049 47.916C111.517 47.646 112.072 47.511 112.714 47.511C113.356 47.511 113.908 47.646 114.37 47.916C114.838 48.18 115.198 48.558 115.45 49.05C115.702 49.542 115.828 50.121 115.828 50.787C115.828 51.459 115.702 52.041 115.45 52.533C115.198 53.025 114.838 53.406 114.37 53.676C113.908 53.946 113.356 54.081 112.714 54.081ZM112.714 52.992C113.242 52.992 113.659 52.806 113.965 52.434C114.277 52.056 114.433 51.507 114.433 50.787C114.433 50.067 114.277 49.524 113.965 49.158C113.659 48.786 113.242 48.6 112.714 48.6C112.18 48.6 111.76 48.786 111.454 49.158C111.148 49.524 110.995 50.067 110.995 50.787C110.995 51.513 111.148 52.062 111.454 52.434C111.76 52.806 112.18 52.992 112.714 52.992ZM120.052 54.081C119.146 54.081 118.459 53.85 117.991 53.388C117.529 52.926 117.298 52.248 117.298 51.354V47.592H118.666V51.417C118.666 51.927 118.783 52.317 119.017 52.587C119.251 52.857 119.596 52.992 120.052 52.992C120.49 52.992 120.826 52.857 121.06 52.587C121.294 52.317 121.411 51.927 121.411 51.417V47.592H122.806V51.354C122.806 52.242 122.569 52.92 122.095 53.388C121.621 53.85 120.94 54.081 120.052 54.081ZM124.44 54V47.592H127.293C128.043 47.592 128.61 47.757 128.994 48.087C129.378 48.411 129.57 48.873 129.57 49.473C129.57 50.043 129.372 50.502 128.976 50.85C128.58 51.192 128.028 51.363 127.32 51.363L128.058 51.21C128.28 51.21 128.478 51.276 128.652 51.408C128.832 51.54 128.973 51.741 129.075 52.011L129.849 54H128.364L127.545 51.867C127.479 51.693 127.374 51.576 127.23 51.516C127.086 51.45 126.921 51.417 126.735 51.417H125.826V54H124.44ZM125.817 50.346H127.086C127.488 50.346 127.782 50.277 127.968 50.139C128.154 50.001 128.247 49.791 128.247 49.509C128.247 49.221 128.154 49.011 127.968 48.879C127.788 48.741 127.494 48.672 127.086 48.672H125.817V50.346ZM133.409 54.081C133.085 54.081 132.767 54.054 132.455 54C132.149 53.94 131.861 53.856 131.591 53.748C131.321 53.634 131.087 53.499 130.889 53.343L131.348 52.335C131.666 52.557 131.996 52.722 132.338 52.83C132.68 52.938 133.04 52.992 133.418 52.992C133.826 52.992 134.138 52.926 134.354 52.794C134.576 52.662 134.687 52.479 134.687 52.245C134.687 52.107 134.642 51.99 134.552 51.894C134.462 51.798 134.318 51.714 134.12 51.642C133.922 51.57 133.658 51.498 133.328 51.426C132.914 51.342 132.56 51.243 132.266 51.129C131.972 51.015 131.732 50.883 131.546 50.733C131.366 50.583 131.234 50.409 131.15 50.211C131.066 50.007 131.024 49.773 131.024 49.509C131.024 49.131 131.129 48.792 131.339 48.492C131.555 48.186 131.852 47.946 132.23 47.772C132.614 47.598 133.061 47.511 133.571 47.511C133.877 47.511 134.174 47.541 134.462 47.601C134.756 47.661 135.026 47.745 135.272 47.853C135.518 47.961 135.725 48.093 135.893 48.249L135.443 49.257C135.155 49.035 134.855 48.87 134.543 48.762C134.231 48.654 133.913 48.6 133.589 48.6C133.223 48.6 132.932 48.675 132.716 48.825C132.5 48.969 132.392 49.167 132.392 49.419C132.392 49.557 132.434 49.674 132.518 49.77C132.602 49.866 132.74 49.953 132.932 50.031C133.13 50.103 133.4 50.178 133.742 50.256C134.144 50.34 134.492 50.439 134.786 50.553C135.08 50.667 135.32 50.799 135.506 50.949C135.698 51.093 135.839 51.264 135.929 51.462C136.019 51.654 136.064 51.876 136.064 52.128C136.064 52.53 135.959 52.878 135.749 53.172C135.539 53.46 135.236 53.685 134.84 53.847C134.444 54.003 133.967 54.081 133.409 54.081ZM137.483 54V47.592H141.902V48.681H138.86V50.193H141.713V51.291H138.86V52.911H141.902V54H137.483ZM145.424 54.081C145.1 54.081 144.782 54.054 144.47 54C144.164 53.94 143.876 53.856 143.606 53.748C143.336 53.634 143.102 53.499 142.904 53.343L143.363 52.335C143.681 52.557 144.011 52.722 144.353 52.83C144.695 52.938 145.055 52.992 145.433 52.992C145.841 52.992 146.153 52.926 146.369 52.794C146.591 52.662 146.702 52.479 146.702 52.245C146.702 52.107 146.657 51.99 146.567 51.894C146.477 51.798 146.333 51.714 146.135 51.642C145.937 51.57 145.673 51.498 145.343 51.426C144.929 51.342 144.575 51.243 144.281 51.129C143.987 51.015 143.747 50.883 143.561 50.733C143.381 50.583 143.249 50.409 143.165 50.211C143.081 50.007 143.039 49.773 143.039 49.509C143.039 49.131 143.144 48.792 143.354 48.492C143.57 48.186 143.867 47.946 144.245 47.772C144.629 47.598 145.076 47.511 145.586 47.511C145.892 47.511 146.189 47.541 146.477 47.601C146.771 47.661 147.041 47.745 147.287 47.853C147.533 47.961 147.74 48.093 147.908 48.249L147.458 49.257C147.17 49.035 146.87 48.87 146.558 48.762C146.246 48.654 145.928 48.6 145.604 48.6C145.238 48.6 144.947 48.675 144.731 48.825C144.515 48.969 144.407 49.167 144.407 49.419C144.407 49.557 144.449 49.674 144.533 49.77C144.617 49.866 144.755 49.953 144.947 50.031C145.145 50.103 145.415 50.178 145.757 50.256C146.159 50.34 146.507 50.439 146.801 50.553C147.095 50.667 147.335 50.799 147.521 50.949C147.713 51.093 147.854 51.264 147.944 51.462C148.034 51.654 148.079 51.876 148.079 52.128C148.079 52.53 147.974 52.878 147.764 53.172C147.554 53.46 147.251 53.685 146.855 53.847C146.459 54.003 145.982 54.081 145.424 54.081Z" fill="#202244"/>
<path fill-rule="evenodd" clip-rule="evenodd" d="M115.133 25.043C115.5 25.082 115.777 25.398 115.777 25.77C115.777 26.145 115.5 26.457 115.133 26.5H112.391C112.023 26.457 111.746 26.145 111.746 25.77C111.746 25.398 112.023 25.082 112.391 25.043H115.133ZM119.594 29.273C119.867 29.242 120.137 29.371 120.285 29.609C120.43 29.848 120.43 30.152 120.285 30.391C120.137 30.629 119.867 30.758 119.594 30.727H112.383C112.016 30.688 111.738 30.375 111.738 30C111.738 29.625 112.016 29.312 112.383 29.273H119.594ZM119.594 33.512C119.988 33.512 120.305 33.836 120.305 34.234C120.305 34.633 119.988 34.957 119.594 34.957H112.383C111.988 34.957 111.668 34.633 111.668 34.234C111.668 33.836 111.988 33.512 112.383 33.512H119.594ZM119.852 20C123.067 20 124.992 21.953 125 25.211V34.789C125 38.047 123.086 40 119.863 40H117.004C116.641 39.961 116.363 39.645 116.363 39.273C116.363 38.898 116.641 38.586 117.004 38.543H119.852C122.309 38.543 123.547 37.281 123.547 34.789V25.211C123.547 22.719 122.309 21.457 119.852 21.457H112.137C109.684 21.457 108.438 22.719 108.438 25.211V34.789C108.438 37.281 109.684 38.543 112.137 38.543C112.504 38.586 112.781 38.898 112.781 39.273C112.781 39.645 112.504 39.961 112.137 40C108.926 40 107 38.047 107 34.789V25.211C107 21.941 108.926 20 112.137 20H119.852Z" fill="#202244"/>
<g clip-path="url(#clip1_82_812)">
<path d="M180.078 54V47.592H181.482V54H180.078ZM183.167 54V47.592H184.202L187.658 52.002L187.397 52.173V47.592H188.72V54H187.676L184.238 49.608L184.481 49.419V54H183.167ZM190.405 54V47.592H192.889C193.591 47.592 194.191 47.718 194.689 47.97C195.193 48.222 195.577 48.588 195.841 49.068C196.111 49.542 196.246 50.115 196.246 50.787C196.246 51.465 196.114 52.044 195.85 52.524C195.586 52.998 195.202 53.364 194.698 53.622C194.2 53.874 193.597 54 192.889 54H190.405ZM191.809 52.866H192.79C193.474 52.866 193.987 52.695 194.329 52.353C194.671 52.005 194.842 51.483 194.842 50.787C194.842 49.413 194.158 48.726 192.79 48.726H191.809V52.866ZM200.691 54.081C200.049 54.081 199.494 53.946 199.026 53.676C198.558 53.406 198.195 53.025 197.937 52.533C197.685 52.041 197.559 51.459 197.559 50.787C197.559 50.121 197.685 49.542 197.937 49.05C198.195 48.558 198.558 48.18 199.026 47.916C199.494 47.646 200.049 47.511 200.691 47.511C201.333 47.511 201.885 47.646 202.347 47.916C202.815 48.18 203.175 48.558 203.427 49.05C203.679 49.542 203.805 50.121 203.805 50.787C203.805 51.459 203.679 52.041 203.427 52.533C203.175 53.025 202.815 53.406 202.347 53.676C201.885 53.946 201.333 54.081 200.691 54.081ZM200.691 52.992C201.219 52.992 201.636 52.806 201.942 52.434C202.254 52.056 202.41 51.507 202.41 50.787C202.41 50.067 202.254 49.524 201.942 49.158C201.636 48.786 201.219 48.6 200.691 48.6C200.157 48.6 199.737 48.786 199.431 49.158C199.125 49.524 198.972 50.067 198.972 50.787C198.972 51.513 199.125 52.062 199.431 52.434C199.737 52.806 200.157 52.992 200.691 52.992ZM205.893 54H204.255L206.694 50.751L207.495 49.725L209.043 47.592H210.681L208.287 50.751L207.495 51.786L205.893 54ZM209.097 54L207.495 51.786L206.694 50.751L204.327 47.592H205.956L207.495 49.725L208.287 50.751L210.735 54H209.097Z" fill="#202244"/>
<path fill-rule="evenodd" clip-rule="evenodd" d="M190.594 28.809C191.25 28.809 191.781 29.344 191.781 30C191.781 30.656 191.25 31.187 190.594 31.187C189.938 31.187 189.402 30.656 189.402 30C189.402 29.344 189.938 28.809 190.594 28.809ZM199.398 28.809C200.054 28.809 200.586 29.344 200.586 30C200.586 30.652 200.054 31.187 199.398 31.187C198.742 31.187 198.211 30.652 198.211 30C198.211 29.344 198.742 28.809 199.398 28.809ZM194.996 28.809C195.652 28.809 196.183 29.344 196.183 30C196.183 30.652 195.652 31.187 194.996 31.187C194.34 31.187 193.809 30.652 193.809 30C193.809 29.344 194.34 28.809 194.996 28.809ZM195.008 20C196.625 20 198.234 20.398 199.668 21.152C204.543 23.727 206.418 29.785 203.847 34.664C202.094 37.988 198.64 40 194.996 40C194.281 40 193.562 39.922 192.848 39.766C192.445 39.676 192.191 39.273 192.277 38.871C192.367 38.469 192.766 38.215 193.172 38.301C196.898 39.129 200.742 37.344 202.523 33.965C204.707 29.816 203.113 24.664 198.969 22.48C197.754 21.836 196.383 21.496 195.008 21.496C190.309 21.496 186.496 25.312 186.496 30C186.496 31.363 186.828 32.723 187.461 33.93L187.652 34.305C187.887 34.746 187.938 35.293 187.785 35.789C187.573 36.344 187.402 36.883 187.258 37.422C187.816 37.254 188.504 37.004 189 36.824L189.203 36.75C189.59 36.605 190.02 36.809 190.16 37.199C190.301 37.586 190.102 38.016 189.711 38.156L189.512 38.23C188.77 38.5 187.754 38.867 187.07 39.019C187.012 39.035 186.948 39.043 186.891 39.039C186.434 39.039 186.152 38.855 186 38.695C185.762 38.457 185.648 38.121 185.664 37.695C185.664 37.644 185.672 37.598 185.68 37.547C185.859 36.789 186.09 36.035 186.371 35.301C186.391 35.23 186.379 35.101 186.32 34.992L186.129 34.617C185.391 33.203 185 31.601 185 29.996C185 24.484 189.484 20 194.996 20H195.008Z" fill="#202244"/>
</g>
<g clip-path="url(#clip2_82_812)">
<path d="M243.366 54V48.735H241.359V47.592H246.795V48.735H244.788V54H243.366ZM247.941 54V47.592H250.794C251.544 47.592 252.111 47.757 252.495 48.087C252.879 48.411 253.071 48.873 253.071 49.473C253.071 50.043 252.873 50.502 252.477 50.85C252.081 51.192 251.529 51.363 250.821 51.363L251.559 51.21C251.781 51.21 251.979 51.276 252.153 51.408C252.333 51.54 252.474 51.741 252.576 52.011L253.35 54H251.865L251.046 51.867C250.98 51.693 250.875 51.576 250.731 51.516C250.587 51.45 250.422 51.417 250.236 51.417H249.327V54H247.941ZM249.318 50.346H250.587C250.989 50.346 251.283 50.277 251.469 50.139C251.655 50.001 251.748 49.791 251.748 49.509C251.748 49.221 251.655 49.011 251.469 48.879C251.289 48.741 250.995 48.672 250.587 48.672H249.318V50.346ZM255.301 54H253.888L256.831 47.592H257.965L260.908 54H259.513L257.245 48.708H257.587L255.301 54ZM255.22 52.578L255.76 51.507H258.964L259.495 52.578H255.22ZM261.855 54V47.592H262.89L266.346 52.002L266.085 52.173V47.592H267.408V54H266.364L262.926 49.608L263.169 49.419V54H261.855ZM271.334 54.081C271.01 54.081 270.692 54.054 270.38 54C270.074 53.94 269.786 53.856 269.516 53.748C269.246 53.634 269.012 53.499 268.814 53.343L269.273 52.335C269.591 52.557 269.921 52.722 270.263 52.83C270.605 52.938 270.965 52.992 271.343 52.992C271.751 52.992 272.063 52.926 272.279 52.794C272.501 52.662 272.612 52.479 272.612 52.245C272.612 52.107 272.567 51.99 272.477 51.894C272.387 51.798 272.243 51.714 272.045 51.642C271.847 51.57 271.583 51.498 271.253 51.426C270.839 51.342 270.485 51.243 270.191 51.129C269.897 51.015 269.657 50.883 269.471 50.733C269.291 50.583 269.159 50.409 269.075 50.211C268.991 50.007 268.949 49.773 268.949 49.509C268.949 49.131 269.054 48.792 269.264 48.492C269.48 48.186 269.777 47.946 270.155 47.772C270.539 47.598 270.986 47.511 271.496 47.511C271.802 47.511 272.099 47.541 272.387 47.601C272.681 47.661 272.951 47.745 273.197 47.853C273.443 47.961 273.65 48.093 273.818 48.249L273.368 49.257C273.08 49.035 272.78 48.87 272.468 48.762C272.156 48.654 271.838 48.6 271.514 48.6C271.148 48.6 270.857 48.675 270.641 48.825C270.425 48.969 270.317 49.167 270.317 49.419C270.317 49.557 270.359 49.674 270.443 49.77C270.527 49.866 270.665 49.953 270.857 50.031C271.055 50.103 271.325 50.178 271.667 50.256C272.069 50.34 272.417 50.439 272.711 50.553C273.005 50.667 273.245 50.799 273.431 50.949C273.623 51.093 273.764 51.264 273.854 51.462C273.944 51.654 273.989 51.876 273.989 52.128C273.989 52.53 273.884 52.878 273.674 53.172C273.464 53.46 273.161 53.685 272.765 53.847C272.369 54.003 271.892 54.081 271.334 54.081ZM276.003 54H274.59L277.533 47.592H278.667L281.61 54H280.215L277.947 48.708H278.289L276.003 54ZM275.922 52.578L276.462 51.507H279.666L280.197 52.578H275.922ZM285.388 54.081C284.734 54.081 284.167 53.946 283.687 53.676C283.207 53.406 282.838 53.025 282.58 52.533C282.322 52.035 282.193 51.453 282.193 50.787C282.193 50.127 282.322 49.551 282.58 49.059C282.838 48.567 283.207 48.186 283.687 47.916C284.167 47.646 284.734 47.511 285.388 47.511C285.814 47.511 286.219 47.577 286.603 47.709C286.987 47.835 287.305 48.015 287.557 48.249L287.116 49.257C286.828 49.041 286.546 48.885 286.27 48.789C286 48.687 285.715 48.636 285.415 48.636C284.845 48.636 284.404 48.819 284.092 49.185C283.78 49.545 283.624 50.079 283.624 50.787C283.624 51.495 283.78 52.035 284.092 52.407C284.404 52.773 284.845 52.956 285.415 52.956C285.715 52.956 286 52.908 286.27 52.812C286.546 52.71 286.828 52.551 287.116 52.335L287.557 53.343C287.305 53.577 286.987 53.76 286.603 53.892C286.219 54.018 285.814 54.081 285.388 54.081ZM290.331 54V48.735H288.324V47.592H293.76V48.735H291.753V54H290.331ZM294.906 54V47.592H296.31V54H294.906ZM300.939 54.081C300.297 54.081 299.742 53.946 299.274 53.676C298.806 53.406 298.443 53.025 298.185 52.533C297.933 52.041 297.807 51.459 297.807 50.787C297.807 50.121 297.933 49.542 298.185 49.05C298.443 48.558 298.806 48.18 299.274 47.916C299.742 47.646 300.297 47.511 300.939 47.511C301.581 47.511 302.133 47.646 302.595 47.916C303.063 48.18 303.423 48.558 303.675 49.05C303.927 49.542 304.053 50.121 304.053 50.787C304.053 51.459 303.927 52.041 303.675 52.533C303.423 53.025 303.063 53.406 302.595 53.676C302.133 53.946 301.581 54.081 300.939 54.081ZM300.939 52.992C301.467 52.992 301.884 52.806 302.19 52.434C302.502 52.056 302.658 51.507 302.658 50.787C302.658 50.067 302.502 49.524 302.19 49.158C301.884 48.786 301.467 48.6 300.939 48.6C300.405 48.6 299.985 48.786 299.679 49.158C299.373 49.524 299.22 50.067 299.22 50.787C299.22 51.513 299.373 52.062 299.679 52.434C299.985 52.806 300.405 52.992 300.939 52.992ZM305.55 54V47.592H306.585L310.041 52.002L309.78 52.173V47.592H311.103V54H310.059L306.621 49.608L306.864 49.419V54H305.55Z" fill="#167F71"/>
<path fill-rule="evenodd" clip-rule="evenodd" d="M281.832 29.625C282.199 29.625 282.496 29.93 282.496 30.309C282.496 30.684 282.199 30.988 281.832 30.988H281.527C281.16 30.988 280.859 30.684 280.859 30.309C280.859 29.93 281.16 29.625 281.527 29.625H281.832ZM280.215 21C283.406 21 286 23.656 286 26.918V34.082C286 37.344 283.406 40 280.215 40C279.848 40 279.547 39.695 279.547 39.316C279.547 38.941 279.848 38.637 280.215 38.637C282.668 38.637 284.668 36.594 284.668 34.082V28.363H281.383C280.305 28.367 279.426 29.266 279.426 30.367C279.426 31.473 280.305 32.371 281.383 32.371H282.746C283.117 32.371 283.414 32.68 283.414 33.055C283.414 33.43 283.117 33.738 282.746 33.738H281.383C279.57 33.734 278.094 32.227 278.09 30.367C278.094 28.512 279.57 27 281.383 27H284.668V26.918C284.668 24.406 282.668 22.363 280.215 22.363H271.785C269.805 22.363 268.145 23.699 267.566 25.527H276.355C276.723 25.527 277.02 25.832 277.02 26.211C277.02 26.586 276.723 26.891 276.355 26.891H267.336L267.332 26.918V34.082C267.332 36.594 269.328 38.637 271.785 38.637H276.027C276.395 38.637 276.691 38.941 276.691 39.316C276.691 39.695 276.395 40 276.027 40H271.785C268.594 40 266 37.344 266 34.082V26.918C266 23.656 268.594 21 271.785 21H280.215Z" fill="#167F71"/>
</g>
<g clip-path="url(#clip3_82_812)">
<path d="M342.959 54V47.592H345.866C346.586 47.592 347.138 47.763 347.522 48.105C347.912 48.447 348.107 48.912 348.107 49.5C348.107 50.082 347.909 50.547 347.513 50.895C347.123 51.237 346.574 51.408 345.866 51.408H344.363V54H342.959ZM344.363 50.337H345.686C346.058 50.337 346.334 50.265 346.514 50.121C346.694 49.977 346.784 49.773 346.784 49.509C346.784 49.239 346.694 49.032 346.514 48.888C346.34 48.744 346.064 48.672 345.686 48.672H344.363V50.337ZM349.432 54V47.592H352.285C353.035 47.592 353.602 47.757 353.986 48.087C354.37 48.411 354.562 48.873 354.562 49.473C354.562 50.043 354.364 50.502 353.968 50.85C353.572 51.192 353.02 51.363 352.312 51.363L353.05 51.21C353.272 51.21 353.47 51.276 353.644 51.408C353.824 51.54 353.965 51.741 354.067 52.011L354.841 54H353.356L352.537 51.867C352.471 51.693 352.366 51.576 352.222 51.516C352.078 51.45 351.913 51.417 351.727 51.417H350.818V54H349.432ZM350.809 50.346H352.078C352.48 50.346 352.774 50.277 352.96 50.139C353.146 50.001 353.239 49.791 353.239 49.509C353.239 49.221 353.146 49.011 352.96 48.879C352.78 48.741 352.486 48.672 352.078 48.672H350.809V50.346ZM359.103 54.081C358.461 54.081 357.906 53.946 357.438 53.676C356.97 53.406 356.607 53.025 356.349 52.533C356.097 52.041 355.971 51.459 355.971 50.787C355.971 50.121 356.097 49.542 356.349 49.05C356.607 48.558 356.97 48.18 357.438 47.916C357.906 47.646 358.461 47.511 359.103 47.511C359.745 47.511 360.297 47.646 360.759 47.916C361.227 48.18 361.587 48.558 361.839 49.05C362.091 49.542 362.217 50.121 362.217 50.787C362.217 51.459 362.091 52.041 361.839 52.533C361.587 53.025 361.227 53.406 360.759 53.676C360.297 53.946 359.745 54.081 359.103 54.081ZM359.103 52.992C359.631 52.992 360.048 52.806 360.354 52.434C360.666 52.056 360.822 51.507 360.822 50.787C360.822 50.067 360.666 49.524 360.354 49.158C360.048 48.786 359.631 48.6 359.103 48.6C358.569 48.6 358.149 48.786 357.843 49.158C357.537 49.524 357.384 50.067 357.384 50.787C357.384 51.513 357.537 52.062 357.843 52.434C358.149 52.806 358.569 52.992 359.103 52.992ZM363.715 54V47.592H368.035V48.708H365.101V50.193H367.855V51.3H365.101V54H363.715ZM369.318 54V47.592H370.722V54H369.318ZM372.407 54V47.592H373.811V52.857H376.673V54H372.407ZM377.931 54V47.592H382.35V48.681H379.308V50.193H382.161V51.291H379.308V52.911H382.35V54H377.931Z" fill="#202244"/>
<path fill-rule="evenodd" clip-rule="evenodd" d="M361.992 21.5313C360.98 21.5273 360.012 21.9303 359.297 22.6483C358.582 23.3673 358.18 24.3443 358.18 25.3593C358.176 26.9103 359.102 28.3123 360.527 28.9103C361.949 29.5043 363.59 29.1803 364.683 28.0823C365.773 26.9883 366.101 25.3363 365.512 23.9023C364.922 22.4693 363.531 21.5313 361.992 21.5313ZM359.965 20.4063C361.953 19.5783 364.246 20.0393 365.765 21.5743C367.289 23.1053 367.742 25.4143 366.914 27.4143C366.09 29.4183 364.144 30.7233 361.992 30.7193C359.055 30.7113 356.676 28.3163 356.676 25.3593L356.684 25.1293C356.77 23.0523 358.047 21.2073 359.965 20.4063ZM359.883 32.7663C361.32 32.6453 362.766 32.6453 364.203 32.7663C364.988 32.8213 365.769 32.9343 366.535 33.1103C368.195 33.4463 369.281 34.1063 369.734 35.0743C370.097 35.8753 370.086 36.8013 369.707 37.5983C369.246 38.5673 368.16 39.2273 366.472 39.5713C365.711 39.7423 364.933 39.8523 364.148 39.9033C363.285 40.0003 362.551 40.0003 361.867 40.0003H361.598C361.211 39.9573 360.918 39.6293 360.918 39.2393C360.918 38.8483 361.211 38.5203 361.598 38.4773H362.195C362.793 38.4693 363.398 38.4423 364 38.3913C364.711 38.3443 365.418 38.2423 366.117 38.0903C367.312 37.8283 368.066 37.4493 368.301 36.9463C368.484 36.5633 368.484 36.1173 368.301 35.7353C368.066 35.2233 367.312 34.8283 366.14 34.5903C365.433 34.4303 364.715 34.3243 363.992 34.2813C362.641 34.1563 361.281 34.1563 359.93 34.2813C359.215 34.3283 358.504 34.4263 357.805 34.5783C356.605 34.8443 355.863 35.2233 355.621 35.7233C355.531 35.9143 355.488 36.1213 355.488 36.3323C355.488 36.5433 355.531 36.7543 355.621 36.9463C356.035 37.5203 356.668 37.8913 357.367 37.9773L357.469 38.0043C357.699 38.0823 357.879 38.2703 357.949 38.5123C358.031 38.7813 357.953 39.0783 357.75 39.2783C357.547 39.4773 357.25 39.5433 356.984 39.4533C355.855 39.2703 354.867 38.5943 354.281 37.6063C353.906 36.8093 353.906 35.8793 354.281 35.0823C354.746 34.0863 355.828 33.4463 357.5 33.1023C358.285 32.9303 359.082 32.8213 359.883 32.7663Z" fill="#202244"/>
</g>
<defs>
<clipPath id="clip0_82_812">
<rect width="29" height="36" fill="white" transform="translate(25 20)"/>
</clipPath>
<clipPath id="clip1_82_812">
<rect width="32" height="36" fill="white" transform="translate(179 20)"/>
</clipPath>
<clipPath id="clip2_82_812">
<rect width="71" height="35" fill="white" transform="translate(241 21)"/>
</clipPath>
<clipPath id="clip3_82_812">
<rect width="41" height="36" fill="white" transform="translate(342 20)"/>
</clipPath>
</defs>
</svg>


