<svg width="55" height="60" viewBox="0 0 55 60" fill="none" xmlns="http://www.w3.org/2000/svg">
<path fill-rule="evenodd" clip-rule="evenodd" d="M51.4741 45.4349H2.70916C1.2137 45.4349 0 44.1074 0 42.4717V2.96315C0 1.32749 1.2137 0 2.70916 0H51.4741C52.9695 0 54.1832 1.32749 54.1832 2.96315V42.4717C54.1832 44.1074 52.9695 45.4349 51.4741 45.4349Z" fill="#0455BF"/>
<path fill-rule="evenodd" clip-rule="evenodd" d="M46.0557 41.4843H5.41832C4.42135 41.4843 3.61221 40.5993 3.61221 39.5089V5.9266C3.61221 4.83616 4.42135 3.95117 5.41832 3.95117H45.1527C46.1497 3.95117 46.9588 4.83616 46.9588 5.9266V40.4966C46.9588 41.0418 46.5542 41.4843 46.0557 41.4843Z" fill="#FDFEFF"/>
<path fill-rule="evenodd" clip-rule="evenodd" d="M5.41832 39.5089V5.9266C5.41832 4.83616 6.22746 3.95117 7.22443 3.95117H5.41832C4.42135 3.95117 3.61221 4.83616 3.61221 5.9266V39.5089C3.61221 40.5993 4.42135 41.4843 5.41832 41.4843H7.22443C6.22746 41.4843 5.41832 40.5993 5.41832 39.5089Z" fill="#DFEAEF"/>
<path fill-rule="evenodd" clip-rule="evenodd" d="M35.2191 22.7176C35.2191 27.6258 31.5792 31.607 27.0916 31.607C22.604 31.607 18.9641 27.6258 18.9641 22.7176C18.9641 17.8093 22.604 13.8281 27.0916 13.8281C31.5792 13.8281 35.2191 17.8093 35.2191 22.7176Z" fill="#0455BF"/>
<path fill-rule="evenodd" clip-rule="evenodd" d="M30.7038 26.668C30.7038 25.9634 31.0518 25.3155 31.6069 24.9652C30.4076 24.1882 28.8881 25.1403 28.8977 26.668V29.6311C29.5046 29.6311 30.1114 29.5534 30.7038 29.4046V26.668Z" fill="#004787"/>
<path fill-rule="evenodd" clip-rule="evenodd" d="M28.8977 29.6313C25.8406 29.6365 23.0423 27.7638 21.654 24.7849C20.2669 21.8073 20.5258 18.2317 22.3223 15.5254C20.3946 17.0531 19.176 19.4249 18.9882 22.018C18.7992 24.6111 19.6601 27.162 21.3446 29.0031C23.0231 30.8402 25.3565 31.7819 27.7262 31.5764C30.097 31.3697 32.2703 30.0382 33.6622 27.9285C32.28 29.0347 30.6099 29.6313 28.8977 29.6313Z" fill="#004787"/>
<path fill-rule="evenodd" clip-rule="evenodd" d="M25.2855 26.6686C24.787 26.6686 24.3824 26.2261 24.3824 25.6809V19.7546C24.3824 19.0184 25.088 18.5404 25.6901 18.8696L31.1084 21.8327C31.6587 22.137 31.7766 22.939 31.3432 23.4118C31.2023 23.5672 31.2023 23.5672 25.6901 26.5606C25.5624 26.633 25.4264 26.6686 25.2855 26.6686Z" fill="#FEBC00"/>
<path fill-rule="evenodd" clip-rule="evenodd" d="M31.1083 21.8327L30.9313 21.7353L27.4961 23.6027C26.894 23.932 26.1884 23.4539 26.1884 22.7177V19.1422L25.69 18.8696C25.0879 18.5404 24.3823 19.0184 24.3823 19.7546V25.6809C24.3775 26.4171 25.0831 26.8951 25.6851 26.5711C31.1926 23.5764 31.1926 23.5764 31.3383 23.4223C31.7717 22.9443 31.6537 22.1409 31.1035 21.8433L31.1083 21.8327Z" fill="#EDAA03"/>
<path fill-rule="evenodd" clip-rule="evenodd" d="M17.158 33.582H9.03053V35.5575H34.316V33.582H17.158Z" fill="#0455BF"/>
<path fill-rule="evenodd" clip-rule="evenodd" d="M50.571 20.7422C51.568 20.7422 52.3771 21.8326 52.3771 22.7176C52.3771 23.8081 51.568 24.693 50.571 24.693C49.574 24.693 48.7649 23.6026 48.7649 22.7176C48.7649 21.6272 49.574 20.7422 50.571 20.7422Z" fill="#FEBC00"/>
<path fill-rule="evenodd" clip-rule="evenodd" d="M51.4741 23.7056C50.1616 23.7108 49.2875 22.224 49.8329 20.9229C48.6758 21.4826 48.3928 23.1446 49.2875 24.1217C50.1857 25.1042 51.7004 24.796 52.217 23.5304C51.9822 23.6437 51.7281 23.7056 51.4741 23.7056Z" fill="#EDAA03"/>
<path fill-rule="evenodd" clip-rule="evenodd" d="M43.3466 39.5091C42.3496 39.5091 41.5405 40.3941 41.5405 41.4845V38.5214C41.5405 35.8875 37.9283 35.8875 37.9283 38.5214V34.5705C37.9283 31.9366 34.316 31.9366 34.316 34.5705V26.6688C34.316 24.0349 30.7038 24.0349 30.7038 26.6688V46.593C30.7038 47.6887 29.4949 48.2339 28.7894 47.4622L25.2855 43.6298C24.5847 42.837 23.4228 42.8278 22.7124 43.6088C21.9984 44.3858 22.0068 45.6566 22.7317 46.4231L26.5606 50.6163L28.1729 52.3757C29.8429 54.201 30.7833 56.6808 30.7833 59.2634H42.8156V58.8933C42.8156 57.4736 43.2238 56.0895 43.9811 54.9319C44.7433 53.7796 45.1527 52.3955 45.1527 50.9758V41.4845C45.1527 40.3941 44.3435 39.5091 43.3466 39.5091Z" fill="#ECC19C"/>
<path fill-rule="evenodd" clip-rule="evenodd" d="M14.4489 36.5451C12.8402 36.5451 12.0359 34.4156 13.1701 33.1711C14.308 31.9305 16.255 32.8103 16.255 34.5697C16.255 35.6602 15.4458 36.5451 14.4489 36.5451Z" fill="#FEBC00"/>
<path fill-rule="evenodd" clip-rule="evenodd" d="M15.3519 35.5581C14.0395 35.5634 13.1653 34.0765 13.7108 32.7754C12.5537 33.3351 12.2707 34.9971 13.1653 35.9743C14.0636 36.9567 15.5783 36.6486 16.0948 35.383C15.86 35.4962 15.606 35.5581 15.3519 35.5581Z" fill="#EDAA03"/>
<path fill-rule="evenodd" clip-rule="evenodd" d="M22.7315 43.6297C22.8447 43.5112 22.9712 43.4084 23.1036 43.3215C21.7526 42.4563 20.1067 43.764 20.4366 45.4352H22.2427C22.1151 44.782 22.2993 44.1025 22.7315 43.6297ZM28.8976 45.4352H30.7037V41.4844H28.8976V45.4352Z" fill="#004787"/>
<mask id="mask0_38_3040" style="mask-type:luminance" maskUnits="userSpaceOnUse" x="0" y="0" width="55" height="60">
<path fill-rule="evenodd" clip-rule="evenodd" d="M0 59.2629H54.1832V0H0V59.2629Z" fill="white"/>
</mask>
<g mask="url(#mask0_38_3040)">
<path fill-rule="evenodd" clip-rule="evenodd" d="M28.8977 41.4844H30.7038V35.5581H28.8977V41.4844ZM30.7038 30.6709C30.4919 30.7842 30.2764 30.8921 30.0596 30.9843C29.9838 31.0159 29.9091 31.0462 29.8285 31.0778C29.6262 31.1595 29.4203 31.2267 29.2084 31.2885C29.1193 31.3136 29.0205 31.3452 28.9254 31.3702L28.8929 31.3807V33.5827H30.699L30.7038 30.6709Z" fill="#DFEAEF"/>
<path fill-rule="evenodd" clip-rule="evenodd" d="M30.7038 29.4053C30.1114 29.5541 29.5046 29.6318 28.8977 29.6318V31.3754L28.9302 31.3702C29.3167 31.2674 29.6924 31.1384 30.0596 30.9843C30.28 30.8868 30.4967 30.7894 30.7038 30.6656V29.4053ZM28.8977 35.5581H30.7038V33.5826H28.8977V35.5581Z" fill="#004787"/>
</g>
</svg>
