<svg width="76" height="76" viewBox="0 0 76 76" fill="none" xmlns="http://www.w3.org/2000/svg">
<g filter="url(#filter0_d_38_107)">
<circle cx="37" cy="36" r="30" fill="#0961F5"/>
</g>
<path fill-rule="evenodd" clip-rule="evenodd" d="M24.7808 37.6458H45.0168L38.1432 44.443C37.5364 45.0621 37.5492 46.0517 38.1624 46.6628C38.7804 47.2693 39.7811 47.2819 40.4072 46.6818L50.0139 37.1818C50.3149 36.8858 50.4831 36.4836 50.4831 36.0688V36.0624C50.4831 35.8582 50.4398 35.6476 50.3582 35.456C50.2765 35.2644 50.158 35.0918 50.0139 34.943L40.4072 25.443C39.7747 24.8429 38.7804 24.8556 38.1624 25.462C37.5428 26.0732 37.5364 27.0628 38.1432 27.6818L45.0168 34.4791H24.7808C23.8986 34.4791 23.1797 35.19 23.1797 36.0624C23.1797 36.9348 23.8986 37.6458 24.7808 37.6458Z" fill="white"/>
<defs>
<filter id="filter0_d_38_107" x="0" y="0" width="76" height="76" filterUnits="userSpaceOnUse" color-interpolation-filters="sRGB">
<feFlood flood-opacity="0" result="BackgroundImageFix"/>
<feColorMatrix in="SourceAlpha" type="matrix" values="0 0 0 0 0 0 0 0 0 0 0 0 0 0 0 0 0 0 127 0" result="hardAlpha"/>
<feOffset dx="1" dy="2"/>
<feGaussianBlur stdDeviation="4"/>
<feColorMatrix type="matrix" values="0 0 0 0 0 0 0 0 0 0 0 0 0 0 0 0 0 0 0.3 0"/>
<feBlend mode="normal" in2="BackgroundImageFix" result="effect1_dropShadow_38_107"/>
<feBlend mode="normal" in="SourceGraphic" in2="effect1_dropShadow_38_107" result="shape"/>
</filter>
</defs>
</svg>
