<svg width="216" height="76" viewBox="0 0 216 76" fill="none" xmlns="http://www.w3.org/2000/svg">
<g filter="url(#filter0_d_38_141)">
<rect x="7" y="6" width="200" height="60" rx="30" fill="#0961F5"/>
</g>
<circle cx="174" cy="36" r="24" fill="white"/>
<path fill-rule="evenodd" clip-rule="evenodd" d="M164.249 36.8668H180.038L174.675 42.1704C174.202 42.6534 174.212 43.4255 174.69 43.9024C175.172 44.3755 175.953 44.3854 176.442 43.9172L183.937 36.5049C184.172 36.2738 184.303 35.96 184.303 35.6364V35.6314C184.303 35.4721 184.27 35.3078 184.206 35.1583C184.142 35.0088 184.05 34.8741 183.937 34.758L176.442 27.3457C175.948 26.8774 175.172 26.8873 174.69 27.3605C174.207 27.8373 174.202 28.6095 174.675 29.0925L180.038 34.396H164.249C163.561 34.396 163 34.9507 163 35.6314C163 36.3121 163.561 36.8668 164.249 36.8668Z" fill="#0961F5"/>
<path d="M44.488 37.32H48.106C47.998 37.704 47.842 38.058 47.638 38.382C47.434 38.706 47.182 38.994 46.882 39.246C46.594 39.498 46.246 39.696 45.838 39.84C45.43 39.972 44.968 40.038 44.452 40.038C43.672 40.038 42.97 39.858 42.346 39.498C41.734 39.138 41.248 38.634 40.888 37.986C40.528 37.326 40.348 36.564 40.348 35.7C40.348 34.824 40.528 34.068 40.888 33.432C41.26 32.796 41.758 32.31 42.382 31.974C43.006 31.626 43.696 31.452 44.452 31.452C45.256 31.452 45.934 31.626 46.486 31.974C47.05 32.31 47.488 32.754 47.8 33.306L49.996 32.028C49.612 31.44 49.15 30.936 48.61 30.516C48.082 30.084 47.47 29.748 46.774 29.508C46.09 29.268 45.316 29.148 44.452 29.148C43.48 29.148 42.58 29.304 41.752 29.616C40.924 29.928 40.204 30.372 39.592 30.948C38.98 31.524 38.5 32.22 38.152 33.036C37.816 33.84 37.648 34.728 37.648 35.7C37.648 36.672 37.81 37.566 38.134 38.382C38.47 39.198 38.938 39.9 39.538 40.488C40.15 41.076 40.864 41.532 41.68 41.856C42.508 42.18 43.408 42.342 44.38 42.342C45.412 42.342 46.33 42.156 47.134 41.784C47.938 41.412 48.61 40.902 49.15 40.254C49.702 39.594 50.104 38.838 50.356 37.986C50.62 37.134 50.734 36.228 50.698 35.268H44.488V37.32ZM56.4896 42.18C57.4856 42.18 58.3376 41.988 59.0456 41.604C59.7656 41.208 60.3416 40.62 60.7736 39.84L58.7396 39.21C58.4996 39.606 58.1936 39.906 57.8216 40.11C57.4616 40.302 57.0236 40.398 56.5076 40.398C56.0516 40.398 55.6616 40.296 55.3376 40.092C55.0136 39.888 54.7676 39.594 54.5996 39.21C54.4436 38.826 54.3656 38.358 54.3656 37.806C54.3776 37.23 54.4616 36.75 54.6176 36.366C54.7856 35.97 55.0196 35.676 55.3196 35.484C55.6316 35.28 56.0156 35.178 56.4716 35.178C56.8436 35.178 57.1676 35.262 57.4436 35.43C57.7196 35.598 57.9296 35.826 58.0736 36.114C58.2296 36.402 58.3076 36.75 58.3076 37.158C58.3076 37.242 58.2836 37.35 58.2356 37.482C58.1996 37.602 58.1576 37.698 58.1096 37.77L58.7396 36.942H53.3576V38.382H60.7736C60.7856 38.31 60.7916 38.214 60.7916 38.094C60.8036 37.974 60.8096 37.86 60.8096 37.752C60.8096 36.864 60.6416 36.108 60.3056 35.484C59.9696 34.848 59.4776 34.368 58.8296 34.044C58.1936 33.708 57.4196 33.54 56.5076 33.54C55.5956 33.54 54.8036 33.72 54.1316 34.08C53.4596 34.428 52.9376 34.926 52.5656 35.574C52.2056 36.21 52.0256 36.972 52.0256 37.86C52.0256 38.736 52.2056 39.498 52.5656 40.146C52.9376 40.782 53.4596 41.28 54.1316 41.64C54.8036 42 55.5896 42.18 56.4896 42.18ZM61.506 33.72V35.682H66.618V33.72H61.506ZM62.928 30.84V42H65.178V30.84H62.928ZM74.5695 37.77L72.7335 39.066C73.0095 39.654 73.3935 40.2 73.8855 40.704C74.3775 41.208 74.9535 41.61 75.6135 41.91C76.2855 42.198 77.0055 42.342 77.7735 42.342C78.3495 42.342 78.8955 42.252 79.4115 42.072C79.9395 41.904 80.4135 41.658 80.8335 41.334C81.2535 40.998 81.5835 40.59 81.8235 40.11C82.0635 39.63 82.1835 39.084 82.1835 38.472C82.1835 37.932 82.0935 37.458 81.9135 37.05C81.7455 36.63 81.5055 36.27 81.1935 35.97C80.8935 35.658 80.5515 35.394 80.1675 35.178C79.7955 34.962 79.4055 34.782 78.9975 34.638C78.3615 34.422 77.8335 34.212 77.4135 34.008C76.9935 33.792 76.6815 33.57 76.4775 33.342C76.2735 33.102 76.1715 32.826 76.1715 32.514C76.1715 32.202 76.2975 31.932 76.5495 31.704C76.8015 31.464 77.1795 31.344 77.6835 31.344C78.0675 31.344 78.4095 31.422 78.7095 31.578C79.0095 31.722 79.2735 31.92 79.5015 32.172C79.7415 32.412 79.9455 32.682 80.1135 32.982L82.1295 31.866C81.9135 31.422 81.6075 30.996 81.2115 30.588C80.8275 30.168 80.3415 29.826 79.7535 29.562C79.1775 29.286 78.4875 29.148 77.6835 29.148C76.9035 29.148 76.1955 29.292 75.5595 29.58C74.9355 29.856 74.4375 30.258 74.0655 30.786C73.7055 31.302 73.5255 31.92 73.5255 32.64C73.5255 33.24 73.6395 33.756 73.8675 34.188C74.0955 34.608 74.3835 34.968 74.7315 35.268C75.0795 35.556 75.4455 35.796 75.8295 35.988C76.2255 36.168 76.5735 36.312 76.8735 36.42C77.4375 36.636 77.9115 36.84 78.2955 37.032C78.6915 37.212 78.9855 37.422 79.1775 37.662C79.3815 37.902 79.4835 38.22 79.4835 38.616C79.4835 39.072 79.3215 39.432 78.9975 39.696C78.6735 39.96 78.2535 40.092 77.7375 40.092C77.2935 40.092 76.8795 39.996 76.4955 39.804C76.1115 39.612 75.7575 39.342 75.4335 38.994C75.1215 38.646 74.8335 38.238 74.5695 37.77ZM83.0041 33.72V35.682H88.1161V33.72H83.0041ZM84.4261 30.84V42H86.6761V30.84H84.4261ZM91.0131 39.426C91.0131 39.186 91.0671 38.988 91.1751 38.832C91.2831 38.664 91.4511 38.538 91.6791 38.454C91.9071 38.358 92.2011 38.31 92.5611 38.31C93.0051 38.31 93.4251 38.37 93.8211 38.49C94.2291 38.61 94.5951 38.79 94.9191 39.03V37.95C94.7991 37.806 94.6011 37.656 94.3251 37.5C94.0491 37.344 93.7071 37.212 93.2991 37.104C92.9031 36.996 92.4411 36.942 91.9131 36.942C90.8811 36.942 90.0831 37.176 89.5191 37.644C88.9551 38.112 88.6731 38.748 88.6731 39.552C88.6731 40.116 88.8051 40.596 89.0691 40.992C89.3451 41.376 89.7051 41.67 90.1491 41.874C90.5931 42.078 91.0731 42.18 91.5891 42.18C92.0931 42.18 92.5731 42.09 93.0291 41.91C93.4971 41.73 93.8751 41.46 94.1631 41.1C94.4631 40.74 94.6131 40.296 94.6131 39.768L94.3251 38.688C94.3251 39.084 94.2351 39.426 94.0551 39.714C93.8751 39.99 93.6411 40.206 93.3531 40.362C93.0651 40.506 92.7411 40.578 92.3811 40.578C92.1291 40.578 91.8951 40.536 91.6791 40.452C91.4751 40.356 91.3131 40.224 91.1931 40.056C91.0731 39.876 91.0131 39.666 91.0131 39.426ZM90.1131 36.06C90.2331 35.976 90.4191 35.874 90.6711 35.754C90.9231 35.634 91.2231 35.532 91.5711 35.448C91.9191 35.364 92.2851 35.322 92.6691 35.322C92.9211 35.322 93.1491 35.346 93.3531 35.394C93.5571 35.442 93.7311 35.52 93.8751 35.628C94.0311 35.736 94.1451 35.874 94.2171 36.042C94.2891 36.198 94.3251 36.39 94.3251 36.618V42H96.5751V36.132C96.5751 35.568 96.4191 35.094 96.1071 34.71C95.7951 34.314 95.3631 34.014 94.8111 33.81C94.2591 33.606 93.6291 33.504 92.9211 33.504C92.1531 33.504 91.4571 33.612 90.8331 33.828C90.2091 34.032 89.6811 34.248 89.2491 34.476L90.1131 36.06ZM101.03 33.72H98.7438V42H101.03V33.72ZM103.46 36.15L104.522 34.17C104.354 33.954 104.132 33.792 103.856 33.684C103.592 33.576 103.31 33.522 103.01 33.522C102.578 33.522 102.158 33.678 101.75 33.99C101.342 34.29 101.012 34.698 100.76 35.214C100.508 35.718 100.382 36.3 100.382 36.96L101.03 37.608C101.03 37.212 101.078 36.876 101.174 36.6C101.282 36.312 101.438 36.09 101.642 35.934C101.846 35.778 102.092 35.7 102.38 35.7C102.62 35.7 102.818 35.742 102.974 35.826C103.142 35.898 103.304 36.006 103.46 36.15ZM104.695 33.72V35.682H109.807V33.72H104.695ZM106.117 30.84V42H108.367V30.84H106.117ZM114.954 42.18C115.95 42.18 116.802 41.988 117.51 41.604C118.23 41.208 118.806 40.62 119.238 39.84L117.204 39.21C116.964 39.606 116.658 39.906 116.286 40.11C115.926 40.302 115.488 40.398 114.972 40.398C114.516 40.398 114.126 40.296 113.802 40.092C113.478 39.888 113.232 39.594 113.064 39.21C112.908 38.826 112.83 38.358 112.83 37.806C112.842 37.23 112.926 36.75 113.082 36.366C113.25 35.97 113.484 35.676 113.784 35.484C114.096 35.28 114.48 35.178 114.936 35.178C115.308 35.178 115.632 35.262 115.908 35.43C116.184 35.598 116.394 35.826 116.538 36.114C116.694 36.402 116.772 36.75 116.772 37.158C116.772 37.242 116.748 37.35 116.7 37.482C116.664 37.602 116.622 37.698 116.574 37.77L117.204 36.942H111.822V38.382H119.238C119.25 38.31 119.256 38.214 119.256 38.094C119.268 37.974 119.274 37.86 119.274 37.752C119.274 36.864 119.106 36.108 118.77 35.484C118.434 34.848 117.942 34.368 117.294 34.044C116.658 33.708 115.884 33.54 114.972 33.54C114.06 33.54 113.268 33.72 112.596 34.08C111.924 34.428 111.402 34.926 111.03 35.574C110.67 36.21 110.49 36.972 110.49 37.86C110.49 38.736 110.67 39.498 111.03 40.146C111.402 40.782 111.924 41.28 112.596 41.64C113.268 42 114.054 42.18 114.954 42.18ZM127.279 27.96V42H129.619V27.96H127.279ZM120.475 37.86C120.475 38.772 120.661 39.552 121.033 40.2C121.405 40.848 121.897 41.34 122.509 41.676C123.121 42.012 123.769 42.18 124.453 42.18C125.149 42.18 125.761 42.006 126.289 41.658C126.829 41.31 127.249 40.812 127.549 40.164C127.861 39.516 128.017 38.748 128.017 37.86C128.017 36.96 127.861 36.192 127.549 35.556C127.249 34.908 126.829 34.41 126.289 34.062C125.761 33.714 125.149 33.54 124.453 33.54C123.769 33.54 123.121 33.708 122.509 34.044C121.897 34.38 121.405 34.872 121.033 35.52C120.661 36.156 120.475 36.936 120.475 37.86ZM122.887 37.86C122.887 37.368 122.989 36.942 123.193 36.582C123.397 36.222 123.673 35.946 124.021 35.754C124.369 35.562 124.741 35.466 125.137 35.466C125.485 35.466 125.821 35.562 126.145 35.754C126.481 35.934 126.751 36.204 126.955 36.564C127.171 36.924 127.279 37.356 127.279 37.86C127.279 38.364 127.171 38.796 126.955 39.156C126.751 39.516 126.481 39.792 126.145 39.984C125.821 40.164 125.485 40.254 125.137 40.254C124.741 40.254 124.369 40.158 124.021 39.966C123.673 39.774 123.397 39.498 123.193 39.138C122.989 38.778 122.887 38.352 122.887 37.86Z" fill="white"/>
<defs>
<filter id="filter0_d_38_141" x="0" y="0" width="216" height="76" filterUnits="userSpaceOnUse" color-interpolation-filters="sRGB">
<feFlood flood-opacity="0" result="BackgroundImageFix"/>
<feColorMatrix in="SourceAlpha" type="matrix" values="0 0 0 0 0 0 0 0 0 0 0 0 0 0 0 0 0 0 127 0" result="hardAlpha"/>
<feOffset dx="1" dy="2"/>
<feGaussianBlur stdDeviation="4"/>
<feColorMatrix type="matrix" values="0 0 0 0 0 0 0 0 0 0 0 0 0 0 0 0 0 0 0.3 0"/>
<feBlend mode="normal" in2="BackgroundImageFix" result="effect1_dropShadow_38_141"/>
<feBlend mode="normal" in="SourceGraphic" in2="effect1_dropShadow_38_141" result="shape"/>
</filter>
</defs>
</svg>
