<svg width="366" height="76" viewBox="0 0 366 76" fill="none" xmlns="http://www.w3.org/2000/svg">
<g filter="url(#filter0_d_38_255)">
<rect x="7" y="6" width="350" height="60" rx="30" fill="#0961F5"/>
</g>
<circle cx="324" cy="36" r="24" fill="white"/>
<path fill-rule="evenodd" clip-rule="evenodd" d="M314.249 36.8668H330.038L324.675 42.1704C324.202 42.6534 324.212 43.4255 324.69 43.9024C325.172 44.3755 325.953 44.3854 326.442 43.9172L333.937 36.5049C334.172 36.2738 334.303 35.96 334.303 35.6364V35.6314C334.303 35.4721 334.27 35.3078 334.206 35.1583C334.142 35.0088 334.05 34.8741 333.937 34.758L326.442 27.3457C325.948 26.8774 325.172 26.8873 324.69 27.3605C324.207 27.8373 324.202 28.6095 324.675 29.0925L330.038 34.396H314.249C313.561 34.396 313 34.9507 313 35.6314C313 36.3121 313.561 36.8668 314.249 36.8668Z" fill="#0961F5"/>
<path d="M152.466 37.77L150.63 39.066C150.906 39.654 151.29 40.2 151.782 40.704C152.274 41.208 152.85 41.61 153.51 41.91C154.182 42.198 154.902 42.342 155.67 42.342C156.246 42.342 156.792 42.252 157.308 42.072C157.836 41.904 158.31 41.658 158.73 41.334C159.15 40.998 159.48 40.59 159.72 40.11C159.96 39.63 160.08 39.084 160.08 38.472C160.08 37.932 159.99 37.458 159.81 37.05C159.642 36.63 159.402 36.27 159.09 35.97C158.79 35.658 158.448 35.394 158.064 35.178C157.692 34.962 157.302 34.782 156.894 34.638C156.258 34.422 155.73 34.212 155.31 34.008C154.89 33.792 154.578 33.57 154.374 33.342C154.17 33.102 154.068 32.826 154.068 32.514C154.068 32.202 154.194 31.932 154.446 31.704C154.698 31.464 155.076 31.344 155.58 31.344C155.964 31.344 156.306 31.422 156.606 31.578C156.906 31.722 157.17 31.92 157.398 32.172C157.638 32.412 157.842 32.682 158.01 32.982L160.026 31.866C159.81 31.422 159.504 30.996 159.108 30.588C158.724 30.168 158.238 29.826 157.65 29.562C157.074 29.286 156.384 29.148 155.58 29.148C154.8 29.148 154.092 29.292 153.456 29.58C152.832 29.856 152.334 30.258 151.962 30.786C151.602 31.302 151.422 31.92 151.422 32.64C151.422 33.24 151.536 33.756 151.764 34.188C151.992 34.608 152.28 34.968 152.628 35.268C152.976 35.556 153.342 35.796 153.726 35.988C154.122 36.168 154.47 36.312 154.77 36.42C155.334 36.636 155.808 36.84 156.192 37.032C156.588 37.212 156.882 37.422 157.074 37.662C157.278 37.902 157.38 38.22 157.38 38.616C157.38 39.072 157.218 39.432 156.894 39.696C156.57 39.96 156.15 40.092 155.634 40.092C155.19 40.092 154.776 39.996 154.392 39.804C154.008 39.612 153.654 39.342 153.33 38.994C153.018 38.646 152.73 38.238 152.466 37.77ZM161.855 30.516C161.855 30.888 161.993 31.2 162.269 31.452C162.545 31.704 162.875 31.83 163.259 31.83C163.643 31.83 163.967 31.704 164.231 31.452C164.507 31.2 164.645 30.888 164.645 30.516C164.645 30.132 164.507 29.82 164.231 29.58C163.967 29.328 163.643 29.202 163.259 29.202C162.875 29.202 162.545 29.328 162.269 29.58C161.993 29.82 161.855 30.132 161.855 30.516ZM162.107 33.72V42H164.375V33.72H162.107ZM166.453 42.576C166.501 43.296 166.693 43.932 167.029 44.484C167.377 45.048 167.875 45.48 168.523 45.78C169.171 46.092 169.975 46.248 170.935 46.248C171.727 46.248 172.459 46.092 173.131 45.78C173.803 45.48 174.337 45 174.733 44.34C175.141 43.68 175.345 42.84 175.345 41.82V33.72H173.095V41.82C173.095 42.384 172.987 42.852 172.771 43.224C172.567 43.596 172.291 43.872 171.943 44.052C171.607 44.232 171.247 44.322 170.863 44.322C170.443 44.322 170.077 44.25 169.765 44.106C169.453 43.962 169.207 43.758 169.027 43.494C168.847 43.242 168.751 42.936 168.739 42.576H166.453ZM166.291 37.788C166.291 38.7 166.477 39.474 166.849 40.11C167.221 40.734 167.713 41.208 168.325 41.532C168.937 41.856 169.585 42.018 170.269 42.018C170.965 42.018 171.577 41.856 172.105 41.532C172.645 41.196 173.065 40.71 173.365 40.074C173.677 39.438 173.833 38.676 173.833 37.788C173.833 36.888 173.677 36.126 173.365 35.502C173.065 34.866 172.645 34.38 172.105 34.044C171.577 33.708 170.965 33.54 170.269 33.54C169.585 33.54 168.937 33.702 168.325 34.026C167.713 34.35 167.221 34.83 166.849 35.466C166.477 36.09 166.291 36.864 166.291 37.788ZM168.703 37.788C168.703 37.284 168.805 36.864 169.009 36.528C169.213 36.18 169.489 35.916 169.837 35.736C170.185 35.556 170.557 35.466 170.953 35.466C171.217 35.466 171.475 35.52 171.727 35.628C171.979 35.724 172.207 35.868 172.411 36.06C172.627 36.252 172.795 36.492 172.915 36.78C173.035 37.068 173.095 37.404 173.095 37.788C173.095 38.292 172.987 38.718 172.771 39.066C172.567 39.402 172.297 39.66 171.961 39.84C171.637 40.008 171.301 40.092 170.953 40.092C170.557 40.092 170.185 40.002 169.837 39.822C169.489 39.642 169.213 39.384 169.009 39.048C168.805 38.7 168.703 38.28 168.703 37.788ZM182.953 36.96V42H185.365V36.708C185.365 35.712 185.125 34.938 184.645 34.386C184.165 33.822 183.433 33.54 182.449 33.54C181.861 33.54 181.357 33.666 180.937 33.918C180.529 34.158 180.199 34.512 179.947 34.98V33.72H177.607V42H179.947V36.96C179.947 36.612 180.013 36.312 180.145 36.06C180.277 35.808 180.469 35.616 180.721 35.484C180.973 35.34 181.261 35.268 181.585 35.268C182.065 35.268 182.413 35.412 182.629 35.7C182.845 35.988 182.953 36.408 182.953 36.96ZM193.184 29.4V37.86C193.184 38.604 193.304 39.258 193.544 39.822C193.784 40.386 194.12 40.86 194.552 41.244C194.984 41.628 195.494 41.916 196.082 42.108C196.67 42.312 197.312 42.414 198.008 42.414C198.692 42.414 199.328 42.312 199.916 42.108C200.504 41.916 201.014 41.628 201.446 41.244C201.89 40.86 202.232 40.386 202.472 39.822C202.712 39.258 202.832 38.604 202.832 37.86V29.4H200.258V37.698C200.258 38.418 200.066 39 199.682 39.444C199.31 39.876 198.752 40.092 198.008 40.092C197.264 40.092 196.7 39.876 196.316 39.444C195.944 39 195.758 38.418 195.758 37.698V29.4H193.184ZM207.526 45.96V33.72H205.186V45.96H207.526ZM214.33 37.86C214.33 36.912 214.144 36.114 213.772 35.466C213.4 34.806 212.908 34.308 212.296 33.972C211.696 33.636 211.048 33.468 210.352 33.468C209.644 33.468 209.026 33.648 208.498 34.008C207.982 34.368 207.58 34.878 207.292 35.538C207.016 36.186 206.878 36.96 206.878 37.86C206.878 38.748 207.016 39.522 207.292 40.182C207.58 40.842 207.982 41.352 208.498 41.712C209.026 42.072 209.644 42.252 210.352 42.252C211.048 42.252 211.696 42.084 212.296 41.748C212.908 41.412 213.4 40.914 213.772 40.254C214.144 39.594 214.33 38.796 214.33 37.86ZM211.918 37.86C211.918 38.352 211.816 38.772 211.612 39.12C211.408 39.468 211.132 39.732 210.784 39.912C210.448 40.092 210.076 40.182 209.668 40.182C209.32 40.182 208.978 40.098 208.642 39.93C208.318 39.75 208.048 39.486 207.832 39.138C207.628 38.79 207.526 38.364 207.526 37.86C207.526 37.356 207.628 36.93 207.832 36.582C208.048 36.234 208.318 35.976 208.642 35.808C208.978 35.628 209.32 35.538 209.668 35.538C210.076 35.538 210.448 35.628 210.784 35.808C211.132 35.988 211.408 36.252 211.612 36.6C211.816 36.948 211.918 37.368 211.918 37.86Z" fill="white"/>
<defs>
<filter id="filter0_d_38_255" x="0" y="0" width="366" height="76" filterUnits="userSpaceOnUse" color-interpolation-filters="sRGB">
<feFlood flood-opacity="0" result="BackgroundImageFix"/>
<feColorMatrix in="SourceAlpha" type="matrix" values="0 0 0 0 0 0 0 0 0 0 0 0 0 0 0 0 0 0 127 0" result="hardAlpha"/>
<feOffset dx="1" dy="2"/>
<feGaussianBlur stdDeviation="4"/>
<feColorMatrix type="matrix" values="0 0 0 0 0 0 0 0 0 0 0 0 0 0 0 0 0 0 0.3 0"/>
<feBlend mode="normal" in2="BackgroundImageFix" result="effect1_dropShadow_38_255"/>
<feBlend mode="normal" in="SourceGraphic" in2="effect1_dropShadow_38_255" result="shape"/>
</filter>
</defs>
</svg>
