<svg width="366" height="76" viewBox="0 0 366 76" fill="none" xmlns="http://www.w3.org/2000/svg">
<g filter="url(#filter0_d_38_347)">
<rect x="7" y="6" width="350" height="60" rx="30" fill="#0961F5"/>
</g>
<circle cx="324" cy="36" r="24" fill="white"/>
<path fill-rule="evenodd" clip-rule="evenodd" d="M314.249 36.8668H330.038L324.675 42.1704C324.202 42.6534 324.212 43.4255 324.69 43.9024C325.172 44.3755 325.953 44.3854 326.442 43.9172L333.937 36.5049C334.172 36.2738 334.303 35.96 334.303 35.6364V35.6314C334.303 35.4721 334.27 35.3078 334.206 35.1583C334.142 35.0088 334.05 34.8741 333.937 34.758L326.442 27.3457C325.948 26.8774 325.172 26.8873 324.69 27.3605C324.207 27.8373 324.202 28.6095 324.675 29.0925L330.038 34.396H314.249C313.561 34.396 313 34.9507 313 35.6314C313 36.3121 313.561 36.8668 314.249 36.8668Z" fill="#0961F5"/>
<path d="M155.466 37.77L153.63 39.066C153.906 39.654 154.29 40.2 154.782 40.704C155.274 41.208 155.85 41.61 156.51 41.91C157.182 42.198 157.902 42.342 158.67 42.342C159.246 42.342 159.792 42.252 160.308 42.072C160.836 41.904 161.31 41.658 161.73 41.334C162.15 40.998 162.48 40.59 162.72 40.11C162.96 39.63 163.08 39.084 163.08 38.472C163.08 37.932 162.99 37.458 162.81 37.05C162.642 36.63 162.402 36.27 162.09 35.97C161.79 35.658 161.448 35.394 161.064 35.178C160.692 34.962 160.302 34.782 159.894 34.638C159.258 34.422 158.73 34.212 158.31 34.008C157.89 33.792 157.578 33.57 157.374 33.342C157.17 33.102 157.068 32.826 157.068 32.514C157.068 32.202 157.194 31.932 157.446 31.704C157.698 31.464 158.076 31.344 158.58 31.344C158.964 31.344 159.306 31.422 159.606 31.578C159.906 31.722 160.17 31.92 160.398 32.172C160.638 32.412 160.842 32.682 161.01 32.982L163.026 31.866C162.81 31.422 162.504 30.996 162.108 30.588C161.724 30.168 161.238 29.826 160.65 29.562C160.074 29.286 159.384 29.148 158.58 29.148C157.8 29.148 157.092 29.292 156.456 29.58C155.832 29.856 155.334 30.258 154.962 30.786C154.602 31.302 154.422 31.92 154.422 32.64C154.422 33.24 154.536 33.756 154.764 34.188C154.992 34.608 155.28 34.968 155.628 35.268C155.976 35.556 156.342 35.796 156.726 35.988C157.122 36.168 157.47 36.312 157.77 36.42C158.334 36.636 158.808 36.84 159.192 37.032C159.588 37.212 159.882 37.422 160.074 37.662C160.278 37.902 160.38 38.22 160.38 38.616C160.38 39.072 160.218 39.432 159.894 39.696C159.57 39.96 159.15 40.092 158.634 40.092C158.19 40.092 157.776 39.996 157.392 39.804C157.008 39.612 156.654 39.342 156.33 38.994C156.018 38.646 155.73 38.238 155.466 37.77ZM164.855 30.516C164.855 30.888 164.993 31.2 165.269 31.452C165.545 31.704 165.875 31.83 166.259 31.83C166.643 31.83 166.967 31.704 167.231 31.452C167.507 31.2 167.645 30.888 167.645 30.516C167.645 30.132 167.507 29.82 167.231 29.58C166.967 29.328 166.643 29.202 166.259 29.202C165.875 29.202 165.545 29.328 165.269 29.58C164.993 29.82 164.855 30.132 164.855 30.516ZM165.107 33.72V42H167.375V33.72H165.107ZM169.453 42.576C169.501 43.296 169.693 43.932 170.029 44.484C170.377 45.048 170.875 45.48 171.523 45.78C172.171 46.092 172.975 46.248 173.935 46.248C174.727 46.248 175.459 46.092 176.131 45.78C176.803 45.48 177.337 45 177.733 44.34C178.141 43.68 178.345 42.84 178.345 41.82V33.72H176.095V41.82C176.095 42.384 175.987 42.852 175.771 43.224C175.567 43.596 175.291 43.872 174.943 44.052C174.607 44.232 174.247 44.322 173.863 44.322C173.443 44.322 173.077 44.25 172.765 44.106C172.453 43.962 172.207 43.758 172.027 43.494C171.847 43.242 171.751 42.936 171.739 42.576H169.453ZM169.291 37.788C169.291 38.7 169.477 39.474 169.849 40.11C170.221 40.734 170.713 41.208 171.325 41.532C171.937 41.856 172.585 42.018 173.269 42.018C173.965 42.018 174.577 41.856 175.105 41.532C175.645 41.196 176.065 40.71 176.365 40.074C176.677 39.438 176.833 38.676 176.833 37.788C176.833 36.888 176.677 36.126 176.365 35.502C176.065 34.866 175.645 34.38 175.105 34.044C174.577 33.708 173.965 33.54 173.269 33.54C172.585 33.54 171.937 33.702 171.325 34.026C170.713 34.35 170.221 34.83 169.849 35.466C169.477 36.09 169.291 36.864 169.291 37.788ZM171.703 37.788C171.703 37.284 171.805 36.864 172.009 36.528C172.213 36.18 172.489 35.916 172.837 35.736C173.185 35.556 173.557 35.466 173.953 35.466C174.217 35.466 174.475 35.52 174.727 35.628C174.979 35.724 175.207 35.868 175.411 36.06C175.627 36.252 175.795 36.492 175.915 36.78C176.035 37.068 176.095 37.404 176.095 37.788C176.095 38.292 175.987 38.718 175.771 39.066C175.567 39.402 175.297 39.66 174.961 39.84C174.637 40.008 174.301 40.092 173.953 40.092C173.557 40.092 173.185 40.002 172.837 39.822C172.489 39.642 172.213 39.384 172.009 39.048C171.805 38.7 171.703 38.28 171.703 37.788ZM185.953 36.96V42H188.365V36.708C188.365 35.712 188.125 34.938 187.645 34.386C187.165 33.822 186.433 33.54 185.449 33.54C184.861 33.54 184.357 33.666 183.937 33.918C183.529 34.158 183.199 34.512 182.947 34.98V33.72H180.607V42H182.947V36.96C182.947 36.612 183.013 36.312 183.145 36.06C183.277 35.808 183.469 35.616 183.721 35.484C183.973 35.34 184.261 35.268 184.585 35.268C185.065 35.268 185.413 35.412 185.629 35.7C185.845 35.988 185.953 36.408 185.953 36.96ZM196.274 29.4V42H198.884V29.4H196.274ZM206.73 36.96V42H209.142V36.708C209.142 35.712 208.902 34.938 208.422 34.386C207.942 33.822 207.21 33.54 206.226 33.54C205.638 33.54 205.134 33.666 204.714 33.918C204.306 34.158 203.976 34.512 203.724 34.98V33.72H201.384V42H203.724V36.96C203.724 36.612 203.79 36.312 203.922 36.06C204.054 35.808 204.246 35.616 204.498 35.484C204.75 35.34 205.038 35.268 205.362 35.268C205.842 35.268 206.19 35.412 206.406 35.7C206.622 35.988 206.73 36.408 206.73 36.96Z" fill="white"/>
<defs>
<filter id="filter0_d_38_347" x="0" y="0" width="366" height="76" filterUnits="userSpaceOnUse" color-interpolation-filters="sRGB">
<feFlood flood-opacity="0" result="BackgroundImageFix"/>
<feColorMatrix in="SourceAlpha" type="matrix" values="0 0 0 0 0 0 0 0 0 0 0 0 0 0 0 0 0 0 127 0" result="hardAlpha"/>
<feOffset dx="1" dy="2"/>
<feGaussianBlur stdDeviation="4"/>
<feColorMatrix type="matrix" values="0 0 0 0 0 0 0 0 0 0 0 0 0 0 0 0 0 0 0.3 0"/>
<feBlend mode="normal" in2="BackgroundImageFix" result="effect1_dropShadow_38_347"/>
<feBlend mode="normal" in="SourceGraphic" in2="effect1_dropShadow_38_347" result="shape"/>
</filter>
</defs>
</svg>
