<svg width="366" height="76" viewBox="0 0 366 76" fill="none" xmlns="http://www.w3.org/2000/svg">
<g filter="url(#filter0_d_38_177)">
<rect x="7" y="6" width="350" height="60" rx="30" fill="#0961F5"/>
</g>
<circle cx="324" cy="36" r="24" fill="white"/>
<path fill-rule="evenodd" clip-rule="evenodd" d="M314.249 36.8668H330.038L324.675 42.1704C324.202 42.6534 324.212 43.4255 324.69 43.9024C325.172 44.3755 325.953 44.3854 326.442 43.9172L333.937 36.5049C334.172 36.2738 334.303 35.96 334.303 35.6364V35.6314C334.303 35.4721 334.27 35.3078 334.206 35.1583C334.142 35.0088 334.05 34.8741 333.937 34.758L326.442 27.3457C325.948 26.8774 325.172 26.8873 324.69 27.3605C324.207 27.8373 324.202 28.6095 324.675 29.0925L330.038 34.396H314.249C313.561 34.396 313 34.9507 313 35.6314C313 36.3121 313.561 36.8668 314.249 36.8668Z" fill="#0961F5"/>
<path d="M38.466 37.77L36.63 39.066C36.906 39.654 37.29 40.2 37.782 40.704C38.274 41.208 38.85 41.61 39.51 41.91C40.182 42.198 40.902 42.342 41.67 42.342C42.246 42.342 42.792 42.252 43.308 42.072C43.836 41.904 44.31 41.658 44.73 41.334C45.15 40.998 45.48 40.59 45.72 40.11C45.96 39.63 46.08 39.084 46.08 38.472C46.08 37.932 45.99 37.458 45.81 37.05C45.642 36.63 45.402 36.27 45.09 35.97C44.79 35.658 44.448 35.394 44.064 35.178C43.692 34.962 43.302 34.782 42.894 34.638C42.258 34.422 41.73 34.212 41.31 34.008C40.89 33.792 40.578 33.57 40.374 33.342C40.17 33.102 40.068 32.826 40.068 32.514C40.068 32.202 40.194 31.932 40.446 31.704C40.698 31.464 41.076 31.344 41.58 31.344C41.964 31.344 42.306 31.422 42.606 31.578C42.906 31.722 43.17 31.92 43.398 32.172C43.638 32.412 43.842 32.682 44.01 32.982L46.026 31.866C45.81 31.422 45.504 30.996 45.108 30.588C44.724 30.168 44.238 29.826 43.65 29.562C43.074 29.286 42.384 29.148 41.58 29.148C40.8 29.148 40.092 29.292 39.456 29.58C38.832 29.856 38.334 30.258 37.962 30.786C37.602 31.302 37.422 31.92 37.422 32.64C37.422 33.24 37.536 33.756 37.764 34.188C37.992 34.608 38.28 34.968 38.628 35.268C38.976 35.556 39.342 35.796 39.726 35.988C40.122 36.168 40.47 36.312 40.77 36.42C41.334 36.636 41.808 36.84 42.192 37.032C42.588 37.212 42.882 37.422 43.074 37.662C43.278 37.902 43.38 38.22 43.38 38.616C43.38 39.072 43.218 39.432 42.894 39.696C42.57 39.96 42.15 40.092 41.634 40.092C41.19 40.092 40.776 39.996 40.392 39.804C40.008 39.612 39.654 39.342 39.33 38.994C39.018 38.646 38.73 38.238 38.466 37.77ZM47.8545 30.516C47.8545 30.888 47.9925 31.2 48.2685 31.452C48.5445 31.704 48.8745 31.83 49.2585 31.83C49.6425 31.83 49.9665 31.704 50.2305 31.452C50.5065 31.2 50.6445 30.888 50.6445 30.516C50.6445 30.132 50.5065 29.82 50.2305 29.58C49.9665 29.328 49.6425 29.202 49.2585 29.202C48.8745 29.202 48.5445 29.328 48.2685 29.58C47.9925 29.82 47.8545 30.132 47.8545 30.516ZM48.1065 33.72V42H50.3745V33.72H48.1065ZM52.4533 42.576C52.5013 43.296 52.6933 43.932 53.0293 44.484C53.3773 45.048 53.8753 45.48 54.5233 45.78C55.1713 46.092 55.9753 46.248 56.9353 46.248C57.7273 46.248 58.4593 46.092 59.1313 45.78C59.8033 45.48 60.3373 45 60.7333 44.34C61.1413 43.68 61.3453 42.84 61.3453 41.82V33.72H59.0953V41.82C59.0953 42.384 58.9873 42.852 58.7713 43.224C58.5673 43.596 58.2913 43.872 57.9433 44.052C57.6073 44.232 57.2473 44.322 56.8633 44.322C56.4433 44.322 56.0773 44.25 55.7653 44.106C55.4533 43.962 55.2073 43.758 55.0273 43.494C54.8473 43.242 54.7513 42.936 54.7393 42.576H52.4533ZM52.2913 37.788C52.2913 38.7 52.4773 39.474 52.8493 40.11C53.2213 40.734 53.7133 41.208 54.3253 41.532C54.9373 41.856 55.5853 42.018 56.2693 42.018C56.9653 42.018 57.5773 41.856 58.1053 41.532C58.6453 41.196 59.0653 40.71 59.3653 40.074C59.6773 39.438 59.8333 38.676 59.8333 37.788C59.8333 36.888 59.6773 36.126 59.3653 35.502C59.0653 34.866 58.6453 34.38 58.1053 34.044C57.5773 33.708 56.9653 33.54 56.2693 33.54C55.5853 33.54 54.9373 33.702 54.3253 34.026C53.7133 34.35 53.2213 34.83 52.8493 35.466C52.4773 36.09 52.2913 36.864 52.2913 37.788ZM54.7033 37.788C54.7033 37.284 54.8053 36.864 55.0093 36.528C55.2133 36.18 55.4893 35.916 55.8373 35.736C56.1853 35.556 56.5573 35.466 56.9533 35.466C57.2173 35.466 57.4753 35.52 57.7273 35.628C57.9793 35.724 58.2073 35.868 58.4113 36.06C58.6273 36.252 58.7953 36.492 58.9153 36.78C59.0353 37.068 59.0953 37.404 59.0953 37.788C59.0953 38.292 58.9873 38.718 58.7713 39.066C58.5673 39.402 58.2973 39.66 57.9613 39.84C57.6373 40.008 57.3013 40.092 56.9533 40.092C56.5573 40.092 56.1853 40.002 55.8373 39.822C55.4893 39.642 55.2133 39.384 55.0093 39.048C54.8053 38.7 54.7033 38.28 54.7033 37.788ZM68.9531 36.96V42H71.3651V36.708C71.3651 35.712 71.1251 34.938 70.6451 34.386C70.1651 33.822 69.4331 33.54 68.4491 33.54C67.8611 33.54 67.3571 33.666 66.9371 33.918C66.5291 34.158 66.1991 34.512 65.9471 34.98V33.72H63.6071V42H65.9471V36.96C65.9471 36.612 66.0131 36.312 66.1451 36.06C66.2771 35.808 66.4691 35.616 66.7211 35.484C66.9731 35.34 67.2611 35.268 67.5851 35.268C68.0651 35.268 68.4131 35.412 68.6291 35.7C68.8451 35.988 68.9531 36.408 68.9531 36.96ZM79.2743 29.4V42H81.8843V29.4H79.2743ZM89.7304 36.96V42H92.1424V36.708C92.1424 35.712 91.9024 34.938 91.4224 34.386C90.9424 33.822 90.2104 33.54 89.2264 33.54C88.6384 33.54 88.1344 33.666 87.7144 33.918C87.3064 34.158 86.9764 34.512 86.7244 34.98V33.72H84.3844V42H86.7244V36.96C86.7244 36.612 86.7904 36.312 86.9224 36.06C87.0544 35.808 87.2464 35.616 87.4984 35.484C87.7504 35.34 88.0384 35.268 88.3624 35.268C88.8424 35.268 89.1904 35.412 89.4064 35.7C89.6224 35.988 89.7304 36.408 89.7304 36.96ZM98.6116 33.72L102.68 42.558L105.272 37.284L107.936 42.558L111.986 33.72H109.52L107.684 38.328L105.254 33.09L102.914 38.31L101.096 33.72H98.6116ZM112.982 30.516C112.982 30.888 113.12 31.2 113.396 31.452C113.672 31.704 114.002 31.83 114.386 31.83C114.77 31.83 115.094 31.704 115.358 31.452C115.634 31.2 115.772 30.888 115.772 30.516C115.772 30.132 115.634 29.82 115.358 29.58C115.094 29.328 114.77 29.202 114.386 29.202C114.002 29.202 113.672 29.328 113.396 29.58C113.12 29.82 112.982 30.132 112.982 30.516ZM113.234 33.72V42H115.502V33.72H113.234ZM116.914 33.72V35.682H122.026V33.72H116.914ZM118.336 30.84V42H120.586V30.84H118.336ZM125.607 27.96H123.267V42H125.607V27.96ZM128.613 36.96V42H130.953V36.618C130.953 35.934 130.851 35.358 130.647 34.89C130.443 34.41 130.131 34.05 129.711 33.81C129.291 33.57 128.757 33.45 128.109 33.45C127.461 33.45 126.915 33.606 126.471 33.918C126.027 34.23 125.691 34.65 125.463 35.178C125.247 35.706 125.139 36.3 125.139 36.96H125.607C125.607 36.612 125.673 36.312 125.805 36.06C125.937 35.808 126.129 35.616 126.381 35.484C126.633 35.34 126.921 35.268 127.245 35.268C127.737 35.268 128.085 35.412 128.289 35.7C128.505 35.988 128.613 36.408 128.613 36.96ZM145.866 29.4L143.148 34.476L140.448 29.4H137.514L141.852 36.798V42H144.462V36.78L148.8 29.4H145.866ZM147.617 37.86C147.617 38.712 147.815 39.468 148.211 40.128C148.619 40.776 149.165 41.28 149.849 41.64C150.545 42 151.331 42.18 152.207 42.18C153.083 42.18 153.863 42 154.547 41.64C155.243 41.28 155.789 40.776 156.185 40.128C156.593 39.468 156.797 38.712 156.797 37.86C156.797 36.996 156.593 36.24 156.185 35.592C155.789 34.944 155.243 34.44 154.547 34.08C153.863 33.72 153.083 33.54 152.207 33.54C151.331 33.54 150.545 33.72 149.849 34.08C149.165 34.44 148.619 34.944 148.211 35.592C147.815 36.24 147.617 36.996 147.617 37.86ZM149.993 37.86C149.993 37.392 150.089 36.978 150.281 36.618C150.485 36.258 150.755 35.982 151.091 35.79C151.427 35.598 151.799 35.502 152.207 35.502C152.615 35.502 152.987 35.598 153.323 35.79C153.659 35.982 153.923 36.258 154.115 36.618C154.319 36.978 154.421 37.392 154.421 37.86C154.421 38.328 154.319 38.742 154.115 39.102C153.923 39.45 153.659 39.726 153.323 39.93C152.987 40.122 152.615 40.218 152.207 40.218C151.799 40.218 151.427 40.122 151.091 39.93C150.755 39.726 150.485 39.45 150.281 39.102C150.089 38.742 149.993 38.328 149.993 37.86ZM160.959 38.76V33.72H158.547V39.012C158.547 39.996 158.787 40.77 159.267 41.334C159.759 41.898 160.497 42.18 161.481 42.18C162.069 42.18 162.567 42.06 162.975 41.82C163.383 41.568 163.719 41.208 163.983 40.74V42H166.305V33.72H163.983V38.76C163.983 39.108 163.911 39.408 163.767 39.66C163.635 39.912 163.443 40.11 163.191 40.254C162.951 40.386 162.663 40.452 162.327 40.452C161.847 40.452 161.499 40.308 161.283 40.02C161.067 39.72 160.959 39.3 160.959 38.76ZM170.887 33.72H168.601V42H170.887V33.72ZM173.317 36.15L174.379 34.17C174.211 33.954 173.989 33.792 173.713 33.684C173.449 33.576 173.167 33.522 172.867 33.522C172.435 33.522 172.015 33.678 171.607 33.99C171.199 34.29 170.869 34.698 170.617 35.214C170.365 35.718 170.239 36.3 170.239 36.96L170.887 37.608C170.887 37.212 170.935 36.876 171.031 36.6C171.139 36.312 171.295 36.09 171.499 35.934C171.703 35.778 171.949 35.7 172.237 35.7C172.477 35.7 172.675 35.742 172.831 35.826C172.999 35.898 173.161 36.006 173.317 36.15ZM182.973 39.138H189.633L189.327 37.104H183.279L182.973 39.138ZM186.267 33.486L188.157 37.86L188.121 38.508L189.741 42H192.657L186.267 28.662L179.877 42H182.775L184.431 38.4L184.377 37.824L186.267 33.486ZM195.572 37.86C195.572 37.392 195.68 36.978 195.896 36.618C196.112 36.258 196.4 35.976 196.76 35.772C197.132 35.556 197.54 35.448 197.984 35.448C198.32 35.448 198.656 35.502 198.992 35.61C199.328 35.718 199.634 35.874 199.91 36.078C200.198 36.27 200.414 36.498 200.558 36.762V34.368C200.27 34.116 199.892 33.918 199.424 33.774C198.968 33.618 198.434 33.54 197.822 33.54C196.946 33.54 196.154 33.72 195.446 34.08C194.75 34.44 194.198 34.944 193.79 35.592C193.394 36.24 193.196 36.996 193.196 37.86C193.196 38.712 193.394 39.468 193.79 40.128C194.198 40.776 194.75 41.28 195.446 41.64C196.154 42 196.946 42.18 197.822 42.18C198.434 42.18 198.968 42.108 199.424 41.964C199.892 41.808 200.27 41.598 200.558 41.334V38.94C200.414 39.204 200.204 39.438 199.928 39.642C199.664 39.834 199.364 39.99 199.028 40.11C198.692 40.218 198.344 40.272 197.984 40.272C197.54 40.272 197.132 40.17 196.76 39.966C196.4 39.762 196.112 39.48 195.896 39.12C195.68 38.76 195.572 38.34 195.572 37.86ZM204.379 37.86C204.379 37.392 204.487 36.978 204.703 36.618C204.919 36.258 205.207 35.976 205.567 35.772C205.939 35.556 206.347 35.448 206.791 35.448C207.127 35.448 207.463 35.502 207.799 35.61C208.135 35.718 208.441 35.874 208.717 36.078C209.005 36.27 209.221 36.498 209.365 36.762V34.368C209.077 34.116 208.699 33.918 208.231 33.774C207.775 33.618 207.241 33.54 206.629 33.54C205.753 33.54 204.961 33.72 204.253 34.08C203.557 34.44 203.005 34.944 202.597 35.592C202.201 36.24 202.003 36.996 202.003 37.86C202.003 38.712 202.201 39.468 202.597 40.128C203.005 40.776 203.557 41.28 204.253 41.64C204.961 42 205.753 42.18 206.629 42.18C207.241 42.18 207.775 42.108 208.231 41.964C208.699 41.808 209.077 41.598 209.365 41.334V38.94C209.221 39.204 209.011 39.438 208.735 39.642C208.471 39.834 208.171 39.99 207.835 40.11C207.499 40.218 207.151 40.272 206.791 40.272C206.347 40.272 205.939 40.17 205.567 39.966C205.207 39.762 204.919 39.48 204.703 39.12C204.487 38.76 204.379 38.34 204.379 37.86ZM210.864 37.86C210.864 38.712 211.062 39.468 211.458 40.128C211.866 40.776 212.412 41.28 213.096 41.64C213.792 42 214.578 42.18 215.454 42.18C216.33 42.18 217.11 42 217.794 41.64C218.49 41.28 219.036 40.776 219.432 40.128C219.84 39.468 220.044 38.712 220.044 37.86C220.044 36.996 219.84 36.24 219.432 35.592C219.036 34.944 218.49 34.44 217.794 34.08C217.11 33.72 216.33 33.54 215.454 33.54C214.578 33.54 213.792 33.72 213.096 34.08C212.412 34.44 211.866 34.944 211.458 35.592C211.062 36.24 210.864 36.996 210.864 37.86ZM213.24 37.86C213.24 37.392 213.336 36.978 213.528 36.618C213.732 36.258 214.002 35.982 214.338 35.79C214.674 35.598 215.046 35.502 215.454 35.502C215.862 35.502 216.234 35.598 216.57 35.79C216.906 35.982 217.17 36.258 217.362 36.618C217.566 36.978 217.668 37.392 217.668 37.86C217.668 38.328 217.566 38.742 217.362 39.102C217.17 39.45 216.906 39.726 216.57 39.93C216.234 40.122 215.862 40.218 215.454 40.218C215.046 40.218 214.674 40.122 214.338 39.93C214.002 39.726 213.732 39.45 213.528 39.102C213.336 38.742 213.24 38.328 213.24 37.86ZM224.205 38.76V33.72H221.793V39.012C221.793 39.996 222.033 40.77 222.513 41.334C223.005 41.898 223.743 42.18 224.727 42.18C225.315 42.18 225.813 42.06 226.221 41.82C226.629 41.568 226.965 41.208 227.229 40.74V42H229.551V33.72H227.229V38.76C227.229 39.108 227.157 39.408 227.013 39.66C226.881 39.912 226.689 40.11 226.437 40.254C226.197 40.386 225.909 40.452 225.573 40.452C225.093 40.452 224.745 40.308 224.529 40.02C224.313 39.72 224.205 39.3 224.205 38.76ZM237.193 36.96V42H239.605V36.708C239.605 35.712 239.365 34.938 238.885 34.386C238.405 33.822 237.673 33.54 236.689 33.54C236.101 33.54 235.597 33.666 235.177 33.918C234.769 34.158 234.439 34.512 234.187 34.98V33.72H231.847V42H234.187V36.96C234.187 36.612 234.253 36.312 234.385 36.06C234.517 35.808 234.709 35.616 234.961 35.484C235.213 35.34 235.501 35.268 235.825 35.268C236.305 35.268 236.653 35.412 236.869 35.7C237.085 35.988 237.193 36.408 237.193 36.96ZM240.84 33.72V35.682H245.952V33.72H240.84ZM242.262 30.84V42H244.512V30.84H242.262Z" fill="white"/>
<defs>
<filter id="filter0_d_38_177" x="0" y="0" width="366" height="76" filterUnits="userSpaceOnUse" color-interpolation-filters="sRGB">
<feFlood flood-opacity="0" result="BackgroundImageFix"/>
<feColorMatrix in="SourceAlpha" type="matrix" values="0 0 0 0 0 0 0 0 0 0 0 0 0 0 0 0 0 0 127 0" result="hardAlpha"/>
<feOffset dx="1" dy="2"/>
<feGaussianBlur stdDeviation="4"/>
<feColorMatrix type="matrix" values="0 0 0 0 0 0 0 0 0 0 0 0 0 0 0 0 0 0 0.3 0"/>
<feBlend mode="normal" in2="BackgroundImageFix" result="effect1_dropShadow_38_177"/>
<feBlend mode="normal" in="SourceGraphic" in2="effect1_dropShadow_38_177" result="shape"/>
</filter>
</defs>
</svg>
