<svg width="232" height="120" viewBox="0 0 232 120" fill="none" xmlns="http://www.w3.org/2000/svg">
<g clip-path="url(#clip0_38_155)">
<g filter="url(#filter0_d_38_155)">
<circle cx="24" cy="24" r="24" fill="white"/>
</g>
<mask id="mask0_38_155" style="mask-type:luminance" maskUnits="userSpaceOnUse" x="15" y="20" width="5" height="10">
<path fill-rule="evenodd" clip-rule="evenodd" d="M15 20.4014H19.4324V29.7391H15V20.4014Z" fill="white"/>
</mask>
<g mask="url(#mask0_38_155)">
<path fill-rule="evenodd" clip-rule="evenodd" d="M19.4324 27.0864L18.7362 29.6854L16.1917 29.7391C15.4314 28.3287 15 26.715 15 25.0002C15 23.342 15.4033 21.7782 16.1182 20.4014H16.1186L18.3839 20.8165L19.3764 23.0683C19.1687 23.6739 19.0555 24.3238 19.0555 25.0002C19.0555 25.7343 19.1886 26.4376 19.4324 27.0864Z" fill="#FBBB00"/>
</g>
<mask id="mask1_38_155" style="mask-type:luminance" maskUnits="userSpaceOnUse" x="25" y="23" width="10" height="10">
<path fill-rule="evenodd" clip-rule="evenodd" d="M25.2198 23.1318H35V32.7983H25.2198V23.1318Z" fill="white"/>
</mask>
<g mask="url(#mask1_38_155)">
<path fill-rule="evenodd" clip-rule="evenodd" d="M34.8252 23.1318C34.9401 23.7367 35 24.3615 35 25C35 25.7159 34.9247 26.4143 34.7813 27.0878C34.2945 29.3802 33.0226 31.3818 31.2605 32.7983L31.2599 32.7978L28.4066 32.6523L28.0027 30.1313C29.172 29.4456 30.0857 28.3725 30.5671 27.0878H25.2198V23.1318H34.8252Z" fill="#518EF8"/>
</g>
<path fill-rule="evenodd" clip-rule="evenodd" d="M31.26 32.7975L31.2604 32.7979C29.5467 34.1755 27.3697 34.9996 25.0001 34.9996C21.1918 34.9996 17.8808 32.871 16.1918 29.7387L19.4324 27.0859C20.277 29.3396 22.4511 30.9441 25.0001 30.9441C26.0956 30.9441 27.1221 30.648 28.0028 30.131L31.26 32.7975Z" fill="#28B446"/>
<path fill-rule="evenodd" clip-rule="evenodd" d="M31.3829 17.3023L28.1434 19.9544C27.2319 19.3846 26.1543 19.0555 25 19.0555C22.3934 19.0555 20.1785 20.7335 19.3764 23.0681L16.1186 20.4012H16.1182C17.7824 17.1922 21.1351 15 25 15C27.4263 15 29.651 15.8643 31.3829 17.3023Z" fill="#F14336"/>
<path d="M66.48 30.144C65.3173 30.144 64.3093 29.904 63.456 29.424C62.6027 28.944 61.9467 28.2667 61.488 27.392C61.0293 26.5067 60.8 25.472 60.8 24.288C60.8 23.1147 61.0293 22.0907 61.488 21.216C61.9467 20.3413 62.6027 19.664 63.456 19.184C64.3093 18.704 65.3173 18.464 66.48 18.464C67.2373 18.464 67.9573 18.5813 68.64 18.816C69.3227 19.04 69.888 19.36 70.336 19.776L69.552 21.568C69.04 21.184 68.5387 20.9067 68.048 20.736C67.568 20.5547 67.0613 20.464 66.528 20.464C65.5147 20.464 64.7307 20.7893 64.176 21.44C63.6213 22.08 63.344 23.0293 63.344 24.288C63.344 25.5467 63.6213 26.5067 64.176 27.168C64.7307 27.8187 65.5147 28.144 66.528 28.144C67.0613 28.144 67.568 28.0587 68.048 27.888C68.5387 27.7067 69.04 27.424 69.552 27.04L70.336 28.832C69.888 29.248 69.3227 29.5733 68.64 29.808C67.9573 30.032 67.2373 30.144 66.48 30.144ZM75.8449 30.128C74.9702 30.128 74.2129 29.9573 73.5729 29.616C72.9329 29.2747 72.4369 28.7893 72.0849 28.16C71.7435 27.52 71.5729 26.768 71.5729 25.904C71.5729 25.04 71.7435 24.2933 72.0849 23.664C72.4369 23.0347 72.9329 22.5493 73.5729 22.208C74.2129 21.856 74.9702 21.68 75.8449 21.68C76.6982 21.68 77.4449 21.856 78.0849 22.208C78.7249 22.5493 79.2155 23.0347 79.5569 23.664C79.9089 24.2933 80.0849 25.04 80.0849 25.904C80.0849 26.768 79.9089 27.52 79.5569 28.16C79.2155 28.7893 78.7249 29.2747 78.0849 29.616C77.4449 29.9573 76.6982 30.128 75.8449 30.128ZM75.8449 28.288C76.4315 28.288 76.8849 28.096 77.2049 27.712C77.5249 27.3173 77.6849 26.7147 77.6849 25.904C77.6849 25.104 77.5249 24.512 77.2049 24.128C76.8849 23.7333 76.4315 23.536 75.8449 23.536C75.2475 23.536 74.7835 23.7333 74.4529 24.128C74.1329 24.512 73.9729 25.104 73.9729 25.904C73.9729 26.7147 74.1329 27.3173 74.4529 27.712C74.7729 28.096 75.2369 28.288 75.8449 28.288ZM81.8291 30V24.208C81.8291 23.824 81.8185 23.44 81.7971 23.056C81.7865 22.6613 81.7545 22.272 81.7011 21.888H83.9731L84.1491 23.472L83.9731 23.456C84.2505 22.88 84.6345 22.4427 85.1251 22.144C85.6265 21.8347 86.2025 21.68 86.8531 21.68C88.7625 21.68 89.7171 22.816 89.7171 25.088V30H87.3011V25.2C87.3011 24.624 87.1945 24.208 86.9811 23.952C86.7785 23.696 86.4531 23.568 86.0051 23.568C85.4718 23.568 85.0451 23.7387 84.7251 24.08C84.4051 24.4213 84.2451 24.88 84.2451 25.456V30H81.8291ZM90.914 23.696V21.888H96.93V23.696H90.914ZM96.93 28.048V29.904C96.706 29.9893 96.482 30.048 96.258 30.08C96.034 30.112 95.794 30.128 95.538 30.128C94.5353 30.128 93.7673 29.8453 93.234 29.28C92.7113 28.704 92.45 27.9093 92.45 26.896V19.984L94.866 19.2V26.848C94.866 27.168 94.9247 27.424 95.042 27.616C95.1593 27.808 95.314 27.9467 95.506 28.032C95.698 28.1067 95.906 28.144 96.13 28.144C96.258 28.144 96.3807 28.1387 96.498 28.128C96.626 28.1067 96.77 28.08 96.93 28.048ZM98.3697 30V21.888H100.786V30H98.3697ZM98.2737 18.08H100.882V20.352H98.2737V18.08ZM102.96 30V24.208C102.96 23.824 102.95 23.44 102.928 23.056C102.918 22.6613 102.886 22.272 102.832 21.888H105.104L105.28 23.472L105.104 23.456C105.382 22.88 105.766 22.4427 106.256 22.144C106.758 21.8347 107.334 21.68 107.984 21.68C109.894 21.68 110.848 22.816 110.848 25.088V30H108.432V25.2C108.432 24.624 108.326 24.208 108.112 23.952C107.91 23.696 107.584 23.568 107.136 23.568C106.603 23.568 106.176 23.7387 105.856 24.08C105.536 24.4213 105.376 24.88 105.376 25.456V30H102.96ZM115.933 30.128C114.92 30.128 114.163 29.8453 113.661 29.28C113.16 28.7147 112.909 27.8613 112.909 26.72V21.888H115.325V26.768C115.325 27.2693 115.427 27.6427 115.629 27.888C115.843 28.1227 116.168 28.24 116.605 28.24C117.096 28.24 117.496 28.0693 117.805 27.728C118.115 27.3867 118.269 26.9333 118.269 26.368V21.888H120.701V30H118.349V28.384L118.557 28.4C118.323 28.9653 117.976 29.3973 117.517 29.696C117.069 29.984 116.541 30.128 115.933 30.128ZM129.996 29.136C129.602 29.4453 129.122 29.6907 128.556 29.872C127.991 30.0427 127.42 30.128 126.844 30.128C125.938 30.128 125.154 29.9573 124.492 29.616C123.842 29.2747 123.34 28.7893 122.988 28.16C122.636 27.5307 122.46 26.784 122.46 25.92C122.46 25.088 122.631 24.352 122.972 23.712C123.314 23.072 123.778 22.576 124.364 22.224C124.962 21.8613 125.655 21.68 126.444 21.68C127.202 21.68 127.858 21.8507 128.412 22.192C128.967 22.5227 129.394 22.9973 129.692 23.616C129.991 24.224 130.14 24.9493 130.14 25.792V26.144H124.588L124.62 24.944H128.7L128.076 25.44C128.087 24.7573 127.954 24.2453 127.676 23.904C127.41 23.552 127.02 23.376 126.508 23.376C125.954 23.376 125.522 23.5787 125.212 23.984C124.914 24.3787 124.764 24.96 124.764 25.728C124.764 26.6347 124.94 27.2907 125.292 27.696C125.655 28.1013 126.204 28.304 126.94 28.304C127.367 28.304 127.788 28.2347 128.204 28.096C128.62 27.9573 129.004 27.76 129.356 27.504L129.996 29.136ZM138.861 30L135.581 21.888H138.061L140.205 27.68H139.805L141.933 21.888H143.581L145.725 27.68H145.373L147.485 21.888H149.821L146.541 30H144.509L142.141 23.936H143.197L140.909 30H138.861ZM151.007 30V21.888H153.423V30H151.007ZM150.911 18.08H153.519V20.352H150.911V18.08ZM154.686 23.696V21.888H160.702V23.696H154.686ZM160.702 28.048V29.904C160.478 29.9893 160.254 30.048 160.03 30.08C159.806 30.112 159.566 30.128 159.31 30.128C158.307 30.128 157.539 29.8453 157.006 29.28C156.483 28.704 156.222 27.9093 156.222 26.896V19.984L158.638 19.2V26.848C158.638 27.168 158.697 27.424 158.814 27.616C158.931 27.808 159.086 27.9467 159.278 28.032C159.47 28.1067 159.678 28.144 159.902 28.144C160.03 28.144 160.153 28.1387 160.27 28.128C160.398 28.1067 160.542 28.08 160.702 28.048ZM162.142 30V18.224H164.558V23.536L164.286 23.456C164.563 22.88 164.947 22.4427 165.438 22.144C165.939 21.8347 166.515 21.68 167.166 21.68C169.075 21.68 170.03 22.816 170.03 25.088V30H167.614V25.2C167.614 24.624 167.507 24.208 167.294 23.952C167.091 23.696 166.766 23.568 166.318 23.568C165.784 23.568 165.358 23.7387 165.038 24.08C164.718 24.4213 164.558 24.88 164.558 25.456V30H162.142ZM182.551 30.144C181.335 30.144 180.284 29.9093 179.399 29.44C178.524 28.9707 177.847 28.2987 177.367 27.424C176.897 26.5493 176.663 25.504 176.663 24.288C176.663 23.0933 176.897 22.0587 177.367 21.184C177.847 20.3093 178.519 19.6373 179.383 19.168C180.247 18.6987 181.265 18.464 182.439 18.464C183.249 18.464 184.012 18.576 184.727 18.8C185.441 19.024 186.028 19.3387 186.487 19.744L185.687 21.536C185.143 21.152 184.62 20.8747 184.119 20.704C183.628 20.5333 183.089 20.448 182.503 20.448C181.404 20.448 180.577 20.768 180.023 21.408C179.479 22.048 179.207 23.008 179.207 24.288C179.207 25.6 179.489 26.5867 180.055 27.248C180.631 27.8987 181.5 28.224 182.663 28.224C183.068 28.224 183.473 28.192 183.879 28.128C184.295 28.0533 184.695 27.9467 185.079 27.808L184.535 28.624V25.456H182.295V23.712H186.791V29.296C186.417 29.4773 185.996 29.632 185.527 29.76C185.068 29.888 184.583 29.984 184.071 30.048C183.569 30.112 183.063 30.144 182.551 30.144ZM192.832 30.128C191.958 30.128 191.2 29.9573 190.56 29.616C189.92 29.2747 189.424 28.7893 189.072 28.16C188.731 27.52 188.56 26.768 188.56 25.904C188.56 25.04 188.731 24.2933 189.072 23.664C189.424 23.0347 189.92 22.5493 190.56 22.208C191.2 21.856 191.958 21.68 192.832 21.68C193.686 21.68 194.432 21.856 195.072 22.208C195.712 22.5493 196.203 23.0347 196.544 23.664C196.896 24.2933 197.072 25.04 197.072 25.904C197.072 26.768 196.896 27.52 196.544 28.16C196.203 28.7893 195.712 29.2747 195.072 29.616C194.432 29.9573 193.686 30.128 192.832 30.128ZM192.832 28.288C193.419 28.288 193.872 28.096 194.192 27.712C194.512 27.3173 194.672 26.7147 194.672 25.904C194.672 25.104 194.512 24.512 194.192 24.128C193.872 23.7333 193.419 23.536 192.832 23.536C192.235 23.536 191.771 23.7333 191.44 24.128C191.12 24.512 190.96 25.104 190.96 25.904C190.96 26.7147 191.12 27.3173 191.44 27.712C191.76 28.096 192.224 28.288 192.832 28.288ZM202.689 30.128C201.814 30.128 201.057 29.9573 200.417 29.616C199.777 29.2747 199.281 28.7893 198.929 28.16C198.587 27.52 198.417 26.768 198.417 25.904C198.417 25.04 198.587 24.2933 198.929 23.664C199.281 23.0347 199.777 22.5493 200.417 22.208C201.057 21.856 201.814 21.68 202.689 21.68C203.542 21.68 204.289 21.856 204.929 22.208C205.569 22.5493 206.059 23.0347 206.401 23.664C206.753 24.2933 206.929 25.04 206.929 25.904C206.929 26.768 206.753 27.52 206.401 28.16C206.059 28.7893 205.569 29.2747 204.929 29.616C204.289 29.9573 203.542 30.128 202.689 30.128ZM202.689 28.288C203.275 28.288 203.729 28.096 204.049 27.712C204.369 27.3173 204.529 26.7147 204.529 25.904C204.529 25.104 204.369 24.512 204.049 24.128C203.729 23.7333 203.275 23.536 202.689 23.536C202.091 23.536 201.627 23.7333 201.297 24.128C200.977 24.512 200.817 25.104 200.817 25.904C200.817 26.7147 200.977 27.3173 201.297 27.712C201.617 28.096 202.081 28.288 202.689 28.288ZM212.497 33.584C211.217 33.584 210.097 33.3333 209.137 32.832L209.505 31.04C209.985 31.2853 210.47 31.4667 210.961 31.584C211.452 31.7013 211.937 31.76 212.417 31.76C213.11 31.76 213.628 31.6 213.969 31.28C214.31 30.96 214.481 30.4693 214.481 29.808V27.936L214.673 28.032C214.545 28.3307 214.348 28.6133 214.081 28.88C213.814 29.1467 213.489 29.3653 213.105 29.536C212.732 29.696 212.326 29.776 211.889 29.776C211.185 29.776 210.561 29.6107 210.017 29.28C209.473 28.9387 209.046 28.464 208.737 27.856C208.428 27.248 208.273 26.5387 208.273 25.728C208.273 24.9173 208.428 24.2133 208.737 23.616C209.046 23.008 209.473 22.5333 210.017 22.192C210.561 21.8507 211.185 21.68 211.889 21.68C212.55 21.68 213.132 21.8453 213.633 22.176C214.145 22.496 214.492 22.9227 214.673 23.456L214.481 23.6V21.888H216.881V29.616C216.881 30.9173 216.508 31.904 215.761 32.576C215.025 33.248 213.937 33.584 212.497 33.584ZM212.593 27.936C213.18 27.936 213.638 27.744 213.969 27.36C214.31 26.9653 214.481 26.4213 214.481 25.728C214.481 25.056 214.316 24.5227 213.985 24.128C213.654 23.7333 213.19 23.536 212.593 23.536C211.996 23.536 211.526 23.7333 211.185 24.128C210.844 24.512 210.673 25.0453 210.673 25.728C210.673 26.4107 210.844 26.9493 211.185 27.344C211.537 27.7387 212.006 27.936 212.593 27.936ZM219.014 30V18.224H221.43V30H219.014ZM230.74 29.136C230.345 29.4453 229.865 29.6907 229.3 29.872C228.735 30.0427 228.164 30.128 227.588 30.128C226.681 30.128 225.897 29.9573 225.236 29.616C224.585 29.2747 224.084 28.7893 223.732 28.16C223.38 27.5307 223.204 26.784 223.204 25.92C223.204 25.088 223.375 24.352 223.716 23.712C224.057 23.072 224.521 22.576 225.108 22.224C225.705 21.8613 226.399 21.68 227.188 21.68C227.945 21.68 228.601 21.8507 229.156 22.192C229.711 22.5227 230.137 22.9973 230.436 23.616C230.735 24.224 230.884 24.9493 230.884 25.792V26.144H225.332L225.364 24.944H229.444L228.82 25.44C228.831 24.7573 228.697 24.2453 228.42 23.904C228.153 23.552 227.764 23.376 227.252 23.376C226.697 23.376 226.265 23.5787 225.956 23.984C225.657 24.3787 225.508 24.96 225.508 25.728C225.508 26.6347 225.684 27.2907 226.036 27.696C226.399 28.1013 226.948 28.304 227.684 28.304C228.111 28.304 228.532 28.2347 228.948 28.096C229.364 27.9573 229.748 27.76 230.1 27.504L230.74 29.136Z" fill="#545454"/>
<g filter="url(#filter1_d_38_155)">
<circle cx="24" cy="96" r="24" fill="white"/>
</g>
<mask id="mask2_38_155" style="mask-type:luminance" maskUnits="userSpaceOnUse" x="16" y="86" width="17" height="21">
<path fill-rule="evenodd" clip-rule="evenodd" d="M16 86H32.2848V106.001H16V86Z" fill="white"/>
</mask>
<g mask="url(#mask2_38_155)">
<path fill-rule="evenodd" clip-rule="evenodd" d="M29.6047 96.629C29.6167 95.07 30.4327 93.633 31.7647 92.82C30.9247 91.613 29.5697 90.871 28.1047 90.82C26.5417 90.66 25.1047 91.73 24.2727 91.73C23.4447 91.73 22.2727 90.84 20.9717 90.859C19.2457 90.918 17.6747 91.879 16.8347 93.391C15.0737 96.449 16.3817 101 18.1437 103.469C18.9447 104.68 19.9447 106.051 21.2647 106C22.5847 105.949 23.0147 105.18 24.5427 105.18C26.0737 105.18 26.5417 106 27.8427 105.969C29.1437 105.942 30.0657 104.731 30.9057 103.52C31.4997 102.641 31.9637 101.68 32.2847 100.672C30.6637 99.981 29.6087 98.391 29.6047 96.629ZM27.0847 89.191C27.8467 88.309 28.2297 87.16 28.1437 86C26.9837 86.094 25.9057 86.641 25.1437 87.52C24.4057 88.371 24.0457 89.488 24.1437 90.609C25.2927 90.621 26.3777 90.094 27.0847 89.191Z" fill="#1D1D1B"/>
</g>
<path d="M66.48 102.144C65.3173 102.144 64.3093 101.904 63.456 101.424C62.6027 100.944 61.9467 100.267 61.488 99.392C61.0293 98.5067 60.8 97.472 60.8 96.288C60.8 95.1147 61.0293 94.0907 61.488 93.216C61.9467 92.3413 62.6027 91.664 63.456 91.184C64.3093 90.704 65.3173 90.464 66.48 90.464C67.2373 90.464 67.9573 90.5813 68.64 90.816C69.3227 91.04 69.888 91.36 70.336 91.776L69.552 93.568C69.04 93.184 68.5387 92.9067 68.048 92.736C67.568 92.5547 67.0613 92.464 66.528 92.464C65.5147 92.464 64.7307 92.7893 64.176 93.44C63.6213 94.08 63.344 95.0293 63.344 96.288C63.344 97.5467 63.6213 98.5067 64.176 99.168C64.7307 99.8187 65.5147 100.144 66.528 100.144C67.0613 100.144 67.568 100.059 68.048 99.888C68.5387 99.7067 69.04 99.424 69.552 99.04L70.336 100.832C69.888 101.248 69.3227 101.573 68.64 101.808C67.9573 102.032 67.2373 102.144 66.48 102.144ZM75.8449 102.128C74.9702 102.128 74.2129 101.957 73.5729 101.616C72.9329 101.275 72.4369 100.789 72.0849 100.16C71.7435 99.52 71.5729 98.768 71.5729 97.904C71.5729 97.04 71.7435 96.2933 72.0849 95.664C72.4369 95.0347 72.9329 94.5493 73.5729 94.208C74.2129 93.856 74.9702 93.68 75.8449 93.68C76.6982 93.68 77.4449 93.856 78.0849 94.208C78.7249 94.5493 79.2155 95.0347 79.5569 95.664C79.9089 96.2933 80.0849 97.04 80.0849 97.904C80.0849 98.768 79.9089 99.52 79.5569 100.16C79.2155 100.789 78.7249 101.275 78.0849 101.616C77.4449 101.957 76.6982 102.128 75.8449 102.128ZM75.8449 100.288C76.4315 100.288 76.8849 100.096 77.2049 99.712C77.5249 99.3173 77.6849 98.7147 77.6849 97.904C77.6849 97.104 77.5249 96.512 77.2049 96.128C76.8849 95.7333 76.4315 95.536 75.8449 95.536C75.2475 95.536 74.7835 95.7333 74.4529 96.128C74.1329 96.512 73.9729 97.104 73.9729 97.904C73.9729 98.7147 74.1329 99.3173 74.4529 99.712C74.7729 100.096 75.2369 100.288 75.8449 100.288ZM81.8291 102V96.208C81.8291 95.824 81.8185 95.44 81.7971 95.056C81.7865 94.6613 81.7545 94.272 81.7011 93.888H83.9731L84.1491 95.472L83.9731 95.456C84.2505 94.88 84.6345 94.4427 85.1251 94.144C85.6265 93.8347 86.2025 93.68 86.8531 93.68C88.7625 93.68 89.7171 94.816 89.7171 97.088V102H87.3011V97.2C87.3011 96.624 87.1945 96.208 86.9811 95.952C86.7785 95.696 86.4531 95.568 86.0051 95.568C85.4718 95.568 85.0451 95.7387 84.7251 96.08C84.4051 96.4213 84.2451 96.88 84.2451 97.456V102H81.8291ZM90.914 95.696V93.888H96.93V95.696H90.914ZM96.93 100.048V101.904C96.706 101.989 96.482 102.048 96.258 102.08C96.034 102.112 95.794 102.128 95.538 102.128C94.5353 102.128 93.7673 101.845 93.234 101.28C92.7113 100.704 92.45 99.9093 92.45 98.896V91.984L94.866 91.2V98.848C94.866 99.168 94.9247 99.424 95.042 99.616C95.1593 99.808 95.314 99.9467 95.506 100.032C95.698 100.107 95.906 100.144 96.13 100.144C96.258 100.144 96.3807 100.139 96.498 100.128C96.626 100.107 96.77 100.08 96.93 100.048ZM98.3697 102V93.888H100.786V102H98.3697ZM98.2737 90.08H100.882V92.352H98.2737V90.08ZM102.96 102V96.208C102.96 95.824 102.95 95.44 102.928 95.056C102.918 94.6613 102.886 94.272 102.832 93.888H105.104L105.28 95.472L105.104 95.456C105.382 94.88 105.766 94.4427 106.256 94.144C106.758 93.8347 107.334 93.68 107.984 93.68C109.894 93.68 110.848 94.816 110.848 97.088V102H108.432V97.2C108.432 96.624 108.326 96.208 108.112 95.952C107.91 95.696 107.584 95.568 107.136 95.568C106.603 95.568 106.176 95.7387 105.856 96.08C105.536 96.4213 105.376 96.88 105.376 97.456V102H102.96ZM115.933 102.128C114.92 102.128 114.163 101.845 113.661 101.28C113.16 100.715 112.909 99.8613 112.909 98.72V93.888H115.325V98.768C115.325 99.2693 115.427 99.6427 115.629 99.888C115.843 100.123 116.168 100.24 116.605 100.24C117.096 100.24 117.496 100.069 117.805 99.728C118.115 99.3867 118.269 98.9333 118.269 98.368V93.888H120.701V102H118.349V100.384L118.557 100.4C118.323 100.965 117.976 101.397 117.517 101.696C117.069 101.984 116.541 102.128 115.933 102.128ZM129.996 101.136C129.602 101.445 129.122 101.691 128.556 101.872C127.991 102.043 127.42 102.128 126.844 102.128C125.938 102.128 125.154 101.957 124.492 101.616C123.842 101.275 123.34 100.789 122.988 100.16C122.636 99.5307 122.46 98.784 122.46 97.92C122.46 97.088 122.631 96.352 122.972 95.712C123.314 95.072 123.778 94.576 124.364 94.224C124.962 93.8613 125.655 93.68 126.444 93.68C127.202 93.68 127.858 93.8507 128.412 94.192C128.967 94.5227 129.394 94.9973 129.692 95.616C129.991 96.224 130.14 96.9493 130.14 97.792V98.144H124.588L124.62 96.944H128.7L128.076 97.44C128.087 96.7573 127.954 96.2453 127.676 95.904C127.41 95.552 127.02 95.376 126.508 95.376C125.954 95.376 125.522 95.5787 125.212 95.984C124.914 96.3787 124.764 96.96 124.764 97.728C124.764 98.6347 124.94 99.2907 125.292 99.696C125.655 100.101 126.204 100.304 126.94 100.304C127.367 100.304 127.788 100.235 128.204 100.096C128.62 99.9573 129.004 99.76 129.356 99.504L129.996 101.136ZM138.861 102L135.581 93.888H138.061L140.205 99.68H139.805L141.933 93.888H143.581L145.725 99.68H145.373L147.485 93.888H149.821L146.541 102H144.509L142.141 95.936H143.197L140.909 102H138.861ZM151.007 102V93.888H153.423V102H151.007ZM150.911 90.08H153.519V92.352H150.911V90.08ZM154.686 95.696V93.888H160.702V95.696H154.686ZM160.702 100.048V101.904C160.478 101.989 160.254 102.048 160.03 102.08C159.806 102.112 159.566 102.128 159.31 102.128C158.307 102.128 157.539 101.845 157.006 101.28C156.483 100.704 156.222 99.9093 156.222 98.896V91.984L158.638 91.2V98.848C158.638 99.168 158.697 99.424 158.814 99.616C158.931 99.808 159.086 99.9467 159.278 100.032C159.47 100.107 159.678 100.144 159.902 100.144C160.03 100.144 160.153 100.139 160.27 100.128C160.398 100.107 160.542 100.08 160.702 100.048ZM162.142 102V90.224H164.558V95.536L164.286 95.456C164.563 94.88 164.947 94.4427 165.438 94.144C165.939 93.8347 166.515 93.68 167.166 93.68C169.075 93.68 170.03 94.816 170.03 97.088V102H167.614V97.2C167.614 96.624 167.507 96.208 167.294 95.952C167.091 95.696 166.766 95.568 166.318 95.568C165.784 95.568 165.358 95.7387 165.038 96.08C164.718 96.4213 164.558 96.88 164.558 97.456V102H162.142ZM178.199 102H175.687L180.919 90.608H182.935L188.167 102H185.687L181.655 92.592H182.263L178.199 102ZM178.055 99.472L179.015 97.568H184.711L185.655 99.472H178.055ZM189.179 105.456V96.208C189.179 95.824 189.168 95.44 189.147 95.056C189.136 94.6613 189.104 94.272 189.051 93.888H191.323L191.499 95.456H191.403C191.574 94.912 191.904 94.48 192.395 94.16C192.896 93.84 193.478 93.68 194.139 93.68C194.843 93.68 195.462 93.8613 195.995 94.224C196.539 94.576 196.966 95.0773 197.275 95.728C197.584 96.368 197.739 97.1093 197.739 97.952C197.739 98.7947 197.584 99.5307 197.275 100.16C196.966 100.789 196.539 101.275 195.995 101.616C195.462 101.957 194.843 102.128 194.139 102.128C193.478 102.128 192.896 101.973 192.395 101.664C191.904 101.355 191.574 100.923 191.403 100.368L191.595 100.064V105.456H189.179ZM193.451 100.288C194.048 100.288 194.507 100.091 194.827 99.696C195.147 99.2907 195.307 98.7093 195.307 97.952C195.307 97.1947 195.142 96.6027 194.811 96.176C194.491 95.7493 194.038 95.536 193.451 95.536C192.843 95.536 192.379 95.744 192.059 96.16C191.739 96.5653 191.579 97.152 191.579 97.92C191.579 98.688 191.739 99.2747 192.059 99.68C192.379 100.085 192.843 100.288 193.451 100.288ZM199.488 105.456V96.208C199.488 95.824 199.478 95.44 199.456 95.056C199.446 94.6613 199.414 94.272 199.36 93.888H201.632L201.808 95.456H201.712C201.883 94.912 202.214 94.48 202.704 94.16C203.206 93.84 203.787 93.68 204.448 93.68C205.152 93.68 205.771 93.8613 206.304 94.224C206.848 94.576 207.275 95.0773 207.584 95.728C207.894 96.368 208.048 97.1093 208.048 97.952C208.048 98.7947 207.894 99.5307 207.584 100.16C207.275 100.789 206.848 101.275 206.304 101.616C205.771 101.957 205.152 102.128 204.448 102.128C203.787 102.128 203.206 101.973 202.704 101.664C202.214 101.355 201.883 100.923 201.712 100.368L201.904 100.064V105.456H199.488ZM203.76 100.288C204.358 100.288 204.816 100.091 205.136 99.696C205.456 99.2907 205.616 98.7093 205.616 97.952C205.616 97.1947 205.451 96.6027 205.12 96.176C204.8 95.7493 204.347 95.536 203.76 95.536C203.152 95.536 202.688 95.744 202.368 96.16C202.048 96.5653 201.888 97.152 201.888 97.92C201.888 98.688 202.048 99.2747 202.368 99.68C202.688 100.085 203.152 100.288 203.76 100.288ZM209.798 102V90.224H212.214V102H209.798ZM221.525 101.136C221.13 101.445 220.65 101.691 220.085 101.872C219.519 102.043 218.949 102.128 218.373 102.128C217.466 102.128 216.682 101.957 216.021 101.616C215.37 101.275 214.869 100.789 214.517 100.16C214.165 99.5307 213.989 98.784 213.989 97.92C213.989 97.088 214.159 96.352 214.501 95.712C214.842 95.072 215.306 94.576 215.893 94.224C216.49 93.8613 217.183 93.68 217.973 93.68C218.73 93.68 219.386 93.8507 219.941 94.192C220.495 94.5227 220.922 94.9973 221.221 95.616C221.519 96.224 221.669 96.9493 221.669 97.792V98.144H216.117L216.149 96.944H220.229L219.605 97.44C219.615 96.7573 219.482 96.2453 219.205 95.904C218.938 95.552 218.549 95.376 218.037 95.376C217.482 95.376 217.05 95.5787 216.741 95.984C216.442 96.3787 216.293 96.96 216.293 97.728C216.293 98.6347 216.469 99.2907 216.821 99.696C217.183 100.101 217.733 100.304 218.469 100.304C218.895 100.304 219.317 100.235 219.733 100.096C220.149 99.9573 220.533 99.76 220.885 99.504L221.525 101.136Z" fill="#545454"/>
</g>
<defs>
<filter id="filter0_d_38_155" x="-9" y="-8" width="68" height="68" filterUnits="userSpaceOnUse" color-interpolation-filters="sRGB">
<feFlood flood-opacity="0" result="BackgroundImageFix"/>
<feColorMatrix in="SourceAlpha" type="matrix" values="0 0 0 0 0 0 0 0 0 0 0 0 0 0 0 0 0 0 127 0" result="hardAlpha"/>
<feOffset dx="1" dy="2"/>
<feGaussianBlur stdDeviation="5"/>
<feColorMatrix type="matrix" values="0 0 0 0 0 0 0 0 0 0 0 0 0 0 0 0 0 0 0.1 0"/>
<feBlend mode="normal" in2="BackgroundImageFix" result="effect1_dropShadow_38_155"/>
<feBlend mode="normal" in="SourceGraphic" in2="effect1_dropShadow_38_155" result="shape"/>
</filter>
<filter id="filter1_d_38_155" x="-9" y="64" width="68" height="68" filterUnits="userSpaceOnUse" color-interpolation-filters="sRGB">
<feFlood flood-opacity="0" result="BackgroundImageFix"/>
<feColorMatrix in="SourceAlpha" type="matrix" values="0 0 0 0 0 0 0 0 0 0 0 0 0 0 0 0 0 0 127 0" result="hardAlpha"/>
<feOffset dx="1" dy="2"/>
<feGaussianBlur stdDeviation="5"/>
<feColorMatrix type="matrix" values="0 0 0 0 0 0 0 0 0 0 0 0 0 0 0 0 0 0 0.1 0"/>
<feBlend mode="normal" in2="BackgroundImageFix" result="effect1_dropShadow_38_155"/>
<feBlend mode="normal" in="SourceGraphic" in2="effect1_dropShadow_38_155" result="shape"/>
</filter>
<clipPath id="clip0_38_155">
<rect width="232" height="120" fill="white"/>
</clipPath>
</defs>
</svg>
