<svg width="166" height="68" viewBox="0 0 166 68" fill="none" xmlns="http://www.w3.org/2000/svg">
<g filter="url(#filter0_d_38_262)">
<circle cx="33" cy="32" r="24" fill="white"/>
</g>
<mask id="mask0_38_262" style="mask-type:luminance" maskUnits="userSpaceOnUse" x="24" y="28" width="5" height="10">
<path fill-rule="evenodd" clip-rule="evenodd" d="M24 28.4014H28.4324V37.7391H24V28.4014Z" fill="white"/>
</mask>
<g mask="url(#mask0_38_262)">
<path fill-rule="evenodd" clip-rule="evenodd" d="M28.4324 35.0864L27.7362 37.6854L25.1917 37.7391C24.4314 36.3287 24 34.715 24 33.0002C24 31.342 24.4033 29.7782 25.1182 28.4014H25.1186L27.3839 28.8165L28.3764 31.0683C28.1687 31.6739 28.0555 32.3238 28.0555 33.0002C28.0555 33.7343 28.1886 34.4376 28.4324 35.0864Z" fill="#FBBB00"/>
</g>
<mask id="mask1_38_262" style="mask-type:luminance" maskUnits="userSpaceOnUse" x="34" y="31" width="10" height="10">
<path fill-rule="evenodd" clip-rule="evenodd" d="M34.2198 31.1318H44V40.7983H34.2198V31.1318Z" fill="white"/>
</mask>
<g mask="url(#mask1_38_262)">
<path fill-rule="evenodd" clip-rule="evenodd" d="M43.8252 31.1318C43.9401 31.7367 44 32.3615 44 33C44 33.7159 43.9247 34.4143 43.7813 35.0878C43.2945 37.3802 42.0226 39.3818 40.2605 40.7983L40.2599 40.7978L37.4066 40.6523L37.0027 38.1313C38.172 37.4456 39.0857 36.3725 39.5671 35.0878H34.2198V31.1318H43.8252Z" fill="#518EF8"/>
</g>
<path fill-rule="evenodd" clip-rule="evenodd" d="M40.26 40.7975L40.2604 40.7979C38.5467 42.1755 36.3697 42.9996 34.0001 42.9996C30.1918 42.9996 26.8808 40.871 25.1918 37.7387L28.4324 35.0859C29.277 37.3396 31.4511 38.9441 34.0001 38.9441C35.0956 38.9441 36.1221 38.648 37.0028 38.131L40.26 40.7975Z" fill="#28B446"/>
<path fill-rule="evenodd" clip-rule="evenodd" d="M40.3829 25.3023L37.1434 27.9544C36.2319 27.3846 35.1543 27.0555 34 27.0555C31.3934 27.0555 29.1785 28.7335 28.3764 31.0681L25.1186 28.4012H25.1182C26.7824 25.1922 30.1351 23 34 23C36.4263 23 38.651 23.8643 40.3829 25.3023Z" fill="#F14336"/>
<g filter="url(#filter1_d_38_262)">
<circle cx="131" cy="32" r="24" fill="white"/>
</g>
<mask id="mask2_38_262" style="mask-type:luminance" maskUnits="userSpaceOnUse" x="123" y="22" width="17" height="21">
<path fill-rule="evenodd" clip-rule="evenodd" d="M123 22H139.285V42.0009H123V22Z" fill="white"/>
</mask>
<g mask="url(#mask2_38_262)">
<path fill-rule="evenodd" clip-rule="evenodd" d="M136.605 32.629C136.617 31.07 137.433 29.633 138.765 28.82C137.925 27.613 136.57 26.871 135.105 26.82C133.542 26.66 132.105 27.73 131.273 27.73C130.445 27.73 129.273 26.84 127.972 26.859C126.246 26.918 124.675 27.879 123.835 29.391C122.074 32.449 123.382 37 125.144 39.469C125.945 40.68 126.945 42.051 128.265 42C129.585 41.949 130.015 41.18 131.543 41.18C133.074 41.18 133.542 42 134.843 41.969C136.144 41.942 137.066 40.731 137.906 39.52C138.5 38.641 138.964 37.68 139.285 36.672C137.664 35.981 136.609 34.391 136.605 32.629ZM134.085 25.191C134.847 24.309 135.23 23.16 135.144 22C133.984 22.094 132.906 22.641 132.144 23.52C131.406 24.371 131.046 25.488 131.144 26.609C132.293 26.621 133.378 26.094 134.085 25.191Z" fill="#1D1D1B"/>
</g>
<defs>
<filter id="filter0_d_38_262" x="0" y="0" width="68" height="68" filterUnits="userSpaceOnUse" color-interpolation-filters="sRGB">
<feFlood flood-opacity="0" result="BackgroundImageFix"/>
<feColorMatrix in="SourceAlpha" type="matrix" values="0 0 0 0 0 0 0 0 0 0 0 0 0 0 0 0 0 0 127 0" result="hardAlpha"/>
<feOffset dx="1" dy="2"/>
<feGaussianBlur stdDeviation="5"/>
<feColorMatrix type="matrix" values="0 0 0 0 0 0 0 0 0 0 0 0 0 0 0 0 0 0 0.1 0"/>
<feBlend mode="normal" in2="BackgroundImageFix" result="effect1_dropShadow_38_262"/>
<feBlend mode="normal" in="SourceGraphic" in2="effect1_dropShadow_38_262" result="shape"/>
</filter>
<filter id="filter1_d_38_262" x="98" y="0" width="68" height="68" filterUnits="userSpaceOnUse" color-interpolation-filters="sRGB">
<feFlood flood-opacity="0" result="BackgroundImageFix"/>
<feColorMatrix in="SourceAlpha" type="matrix" values="0 0 0 0 0 0 0 0 0 0 0 0 0 0 0 0 0 0 127 0" result="hardAlpha"/>
<feOffset dx="1" dy="2"/>
<feGaussianBlur stdDeviation="5"/>
<feColorMatrix type="matrix" values="0 0 0 0 0 0 0 0 0 0 0 0 0 0 0 0 0 0 0.1 0"/>
<feBlend mode="normal" in2="BackgroundImageFix" result="effect1_dropShadow_38_262"/>
<feBlend mode="normal" in="SourceGraphic" in2="effect1_dropShadow_38_262" result="shape"/>
</filter>
</defs>
</svg>
