<svg width="68" height="68" viewBox="0 0 68 68" fill="none" xmlns="http://www.w3.org/2000/svg">
<g filter="url(#filter0_d_38_2215)">
<circle cx="33" cy="31" r="26" fill="#F5F9FF"/>
</g>
<path fill-rule="evenodd" clip-rule="evenodd" d="M39.3318 29.9868C39.7567 29.9868 40.1006 30.34 40.1006 30.7788C40.1006 31.2131 39.7567 31.5651 39.3318 31.5651H38.9786C38.5537 31.5651 38.2052 31.2131 38.2052 30.7788C38.2052 30.34 38.5537 29.9868 38.9786 29.9868H39.3318ZM37.4595 20C41.1543 20 44.1579 23.0754 44.1579 26.8524V35.1476C44.1579 38.9246 41.1543 42 37.4595 42C37.0345 42 36.686 41.6468 36.686 41.208C36.686 40.7738 37.0345 40.4218 37.4595 40.4218C40.2998 40.4218 42.6156 38.0562 42.6156 35.1476V28.5256H38.8119C37.5637 28.5302 36.5459 29.5712 36.5459 30.846C36.5459 32.1266 37.5637 33.1664 38.8119 33.1664H40.3901C40.8197 33.1664 41.1636 33.5242 41.1636 33.9584C41.1636 34.3926 40.8197 34.7493 40.3901 34.7493H38.8119C36.7126 34.7446 35.0036 32.9997 34.9989 30.846C35.0036 28.6981 36.7126 26.9474 38.8119 26.9474H42.6156V26.8524C42.6156 23.9438 40.2998 21.5782 37.4595 21.5782H27.6984C25.4058 21.5782 23.4837 23.1252 22.8133 25.2418H32.99C33.4161 25.2418 33.76 25.5949 33.76 26.0338C33.76 26.468 33.4161 26.8212 32.99 26.8212H22.5469L22.5423 26.8524V35.1476C22.5423 38.0562 24.8535 40.4218 27.6984 40.4218H32.6102C33.0363 40.4218 33.3791 40.7738 33.3791 41.208C33.3791 41.6468 33.0363 42 32.6102 42H27.6984C24.0036 42 21 38.9246 21 35.1476V26.8524C21 23.0754 24.0036 20 27.6984 20H37.4595Z" fill="#202244"/>
<defs>
<filter id="filter0_d_38_2215" x="0" y="0" width="68" height="68" filterUnits="userSpaceOnUse" color-interpolation-filters="sRGB">
<feFlood flood-opacity="0" result="BackgroundImageFix"/>
<feColorMatrix in="SourceAlpha" type="matrix" values="0 0 0 0 0 0 0 0 0 0 0 0 0 0 0 0 0 0 127 0" result="hardAlpha"/>
<feOffset dx="1" dy="3"/>
<feGaussianBlur stdDeviation="4"/>
<feColorMatrix type="matrix" values="0 0 0 0 0 0 0 0 0 0 0 0 0 0 0 0 0 0 0.1 0"/>
<feBlend mode="normal" in2="BackgroundImageFix" result="effect1_dropShadow_38_2215"/>
<feBlend mode="normal" in="SourceGraphic" in2="effect1_dropShadow_38_2215" result="shape"/>
</filter>
</defs>
</svg>
