<svg width="68" height="68" viewBox="0 0 68 68" fill="none" xmlns="http://www.w3.org/2000/svg">
<g filter="url(#filter0_d_38_2200)">
<circle cx="33" cy="31" r="26" fill="#F5F9FF"/>
</g>
<path fill-rule="evenodd" clip-rule="evenodd" d="M30.9375 26.472L31.4827 27.0172C31.6171 27.1516 31.7928 27.2187 31.9688 27.2187C32.1447 27.2187 32.3204 27.1516 32.4548 27.0172C32.7233 26.7488 32.7233 26.3136 32.4548 26.0451L31.9096 25.4999L35.75 21.6595L36.663 22.5725C36.2897 23.1339 36.0924 23.7946 36.0938 24.4687C36.0938 26.3648 37.6351 27.9062 39.5312 27.9062C40.2053 27.9075 40.866 27.7102 41.4274 27.3369L42.3404 28.2499L38.5 32.0903L37.9548 31.5451C37.7816 31.3664 37.5265 31.2952 37.2862 31.3571C37.0459 31.4203 36.8579 31.608 36.7947 31.8486C36.7328 32.0889 36.8039 32.344 36.9827 32.5172L37.5279 33.0624L30.25 40.3403L29.337 39.4273C29.7103 38.8659 29.9076 38.2053 29.9062 37.5312C29.9062 35.635 28.3649 34.0937 26.4688 34.0937C25.7947 34.0923 25.134 34.2896 24.5726 34.6629L23.6596 33.7499L30.9375 26.472ZM22.2014 34.236L24.0384 36.073C24.3069 36.3414 24.7421 36.3414 25.0106 36.073C25.3959 35.6849 25.9208 35.4673 26.4688 35.4687C27.6062 35.4687 28.5312 36.3937 28.5312 37.5312C28.5326 38.0791 28.315 38.604 27.9269 38.9894C27.6585 39.2578 27.6585 39.693 27.9269 39.9615L29.7639 41.7985C29.8983 41.9329 30.074 41.9999 30.25 41.9999C30.426 41.9999 30.6017 41.9329 30.7361 41.7985L43.7986 28.736C43.9275 28.6071 44 28.4324 44 28.2499C44 28.0674 43.9275 27.8928 43.7986 27.7639L41.9616 25.9269C41.6931 25.6584 41.2579 25.6584 40.9894 25.9269C40.6041 26.3149 40.0792 26.5325 39.5312 26.5312C38.3938 26.5312 37.4688 25.6061 37.4688 24.4687C37.4688 23.918 37.6836 23.3999 38.0731 23.0105C38.3415 22.742 38.3415 22.3068 38.0731 22.0384L36.2361 20.2014C35.9676 19.9329 35.5324 19.9329 35.2639 20.2014L22.2014 33.2639C22.0725 33.3928 22 33.5674 22 33.7499C22 33.9324 22.0725 34.1071 22.2014 34.236Z" fill="#202244"/>
<path fill-rule="evenodd" clip-rule="evenodd" d="M34.9202 30.4545L35.6077 31.142C35.7421 31.2764 35.9177 31.3435 36.0937 31.3435C36.2697 31.3435 36.4454 31.2764 36.5798 31.142C36.8482 30.8736 36.8482 30.4384 36.5798 30.1699L35.8923 29.4824C35.719 29.3037 35.464 29.2325 35.2237 29.2944C34.9834 29.3576 34.7954 29.5457 34.7321 29.7859C34.6702 30.0262 34.7414 30.2813 34.9202 30.4545ZM33.5452 29.0795C33.6796 29.2139 33.8552 29.281 34.0312 29.281C34.2072 29.281 34.3832 29.2139 34.5173 29.0795C34.7857 28.8111 34.7857 28.3759 34.5173 28.1074L33.8298 27.4199C33.6565 27.2412 33.4015 27.17 33.1612 27.2319C32.9209 27.2951 32.7329 27.4832 32.6696 27.7234C32.6077 27.9637 32.6789 28.2188 32.8577 28.392L33.5452 29.0795Z" fill="#202244"/>
<defs>
<filter id="filter0_d_38_2200" x="0" y="0" width="68" height="68" filterUnits="userSpaceOnUse" color-interpolation-filters="sRGB">
<feFlood flood-opacity="0" result="BackgroundImageFix"/>
<feColorMatrix in="SourceAlpha" type="matrix" values="0 0 0 0 0 0 0 0 0 0 0 0 0 0 0 0 0 0 127 0" result="hardAlpha"/>
<feOffset dx="1" dy="3"/>
<feGaussianBlur stdDeviation="4"/>
<feColorMatrix type="matrix" values="0 0 0 0 0 0 0 0 0 0 0 0 0 0 0 0 0 0 0.1 0"/>
<feBlend mode="normal" in2="BackgroundImageFix" result="effect1_dropShadow_38_2200"/>
<feBlend mode="normal" in="SourceGraphic" in2="effect1_dropShadow_38_2200" result="shape"/>
</filter>
</defs>
</svg>
