<svg width="68" height="68" viewBox="0 0 68 68" fill="none" xmlns="http://www.w3.org/2000/svg">
<g filter="url(#filter0_d_38_2191)">
<circle cx="33" cy="31" r="26" fill="#0961F5"/>
</g>
<path fill-rule="evenodd" clip-rule="evenodd" d="M38.9987 30.1711C39.3464 30.1711 39.6278 30.46 39.6278 30.8191C39.6278 31.1743 39.3464 31.4623 38.9987 31.4623H38.7098C38.3621 31.4623 38.0769 31.1743 38.0769 30.8191C38.0769 30.46 38.3621 30.1711 38.7098 30.1711H38.9987ZM37.4668 22C40.4899 22 42.9474 24.5162 42.9474 27.6065V34.3935C42.9474 37.4838 40.4899 40 37.4668 40C37.1192 40 36.834 39.7111 36.834 39.352C36.834 38.9967 37.1192 38.7087 37.4668 38.7087C39.7907 38.7087 41.6855 36.7733 41.6855 34.3935V28.9755H38.5734C37.5521 28.9793 36.7194 29.8309 36.7194 30.874C36.7194 31.9218 37.5521 32.7725 38.5734 32.7725H39.8646C40.2161 32.7725 40.4975 33.0653 40.4975 33.4205C40.4975 33.7758 40.2161 34.0676 39.8646 34.0676H38.5734C36.8558 34.0638 35.4575 32.6361 35.4537 30.874C35.4575 29.1166 36.8558 27.6842 38.5734 27.6842H41.6855V27.6065C41.6855 25.2267 39.7907 23.2913 37.4668 23.2913H29.4805C27.6047 23.2913 26.0321 24.5569 25.4836 26.2887H33.81C34.1586 26.2887 34.44 26.5777 34.44 26.9367C34.44 27.292 34.1586 27.5809 33.81 27.5809H25.2657L25.2619 27.6065V34.3935C25.2619 36.7733 27.1528 38.7087 29.4805 38.7087H33.4993C33.8479 38.7087 34.1283 38.9967 34.1283 39.352C34.1283 39.7111 33.8479 40 33.4993 40H29.4805C26.4575 40 24 37.4838 24 34.3935V27.6065C24 24.5162 26.4575 22 29.4805 22H37.4668Z" fill="white"/>
<path d="M41.6855 28.9755H41.7855V28.8755H41.6855V28.9755ZM38.5734 28.9755V28.8755L38.573 28.8755L38.5734 28.9755ZM38.5734 34.0676L38.5731 34.1676H38.5734V34.0676ZM35.4537 30.874L35.3537 30.8738L35.3537 30.8742L35.4537 30.874ZM41.6855 27.6842V27.7842H41.7855V27.6842H41.6855ZM25.4836 26.2887L25.3882 26.2585L25.347 26.3887H25.4836V26.2887ZM25.2657 27.5809V27.4809H25.1794L25.1668 27.5663L25.2657 27.5809ZM25.2619 27.6065L25.163 27.5919L25.1619 27.5992V27.6065H25.2619ZM38.9987 30.1711V30.2711C39.2885 30.2711 39.5278 30.5125 39.5278 30.8191H39.6278H39.7278C39.7278 30.4075 39.4043 30.0711 38.9987 30.0711V30.1711ZM39.6278 30.8191H39.5278C39.5278 31.1212 39.2891 31.3623 38.9987 31.3623V31.4623V31.5623C39.4038 31.5623 39.7278 31.2274 39.7278 30.8191H39.6278ZM38.9987 31.4623V31.3623H38.7098V31.4623V31.5623H38.9987V31.4623ZM38.7098 31.4623V31.3623C38.4187 31.3623 38.1769 31.1204 38.1769 30.8191H38.0769H37.9769C37.9769 31.2282 38.3055 31.5623 38.7098 31.5623V31.4623ZM38.0769 30.8191H38.1769C38.1769 30.5133 38.4192 30.2711 38.7098 30.2711V30.1711V30.0711C38.305 30.0711 37.9769 30.4067 37.9769 30.8191H38.0769ZM38.7098 30.1711V30.2711H38.9987V30.1711V30.0711H38.7098V30.1711ZM37.4668 22V22.1C40.4325 22.1 42.8474 24.5693 42.8474 27.6065H42.9474H43.0474C43.0474 24.4632 40.5473 21.9 37.4668 21.9V22ZM42.9474 27.6065H42.8474V34.3935H42.9474H43.0474V27.6065H42.9474ZM42.9474 34.3935H42.8474C42.8474 37.4307 40.4325 39.9 37.4668 39.9V40V40.1C40.5473 40.1 43.0474 37.5368 43.0474 34.3935H42.9474ZM37.4668 40V39.9C37.1763 39.9 36.934 39.6578 36.934 39.352H36.834H36.734C36.734 39.7643 37.062 40.1 37.4668 40.1V40ZM36.834 39.352H36.934C36.934 39.0506 37.1757 38.8087 37.4668 38.8087V38.7087V38.6087C37.0626 38.6087 36.734 38.9429 36.734 39.352H36.834ZM37.4668 38.7087V38.8087C39.848 38.8087 41.7855 36.8264 41.7855 34.3935H41.6855H41.5855C41.5855 36.7201 39.7334 38.6087 37.4668 38.6087V38.7087ZM41.6855 34.3935H41.7855V28.9755H41.6855H41.5855V34.3935H41.6855ZM41.6855 28.9755V28.8755H38.5734V28.9755V29.0755H41.6855V28.9755ZM38.5734 28.9755L38.573 28.8755C37.4948 28.8795 36.6194 29.7777 36.6194 30.874H36.7194H36.8194C36.8194 29.8842 37.6094 29.0791 38.5737 29.0755L38.5734 28.9755ZM36.7194 30.874H36.6194C36.6194 31.9748 37.4947 32.8725 38.5734 32.8725V32.7725V32.6725C37.6095 32.6725 36.8194 31.8687 36.8194 30.874H36.7194ZM38.5734 32.7725V32.8725H39.8646V32.7725V32.6725H38.5734V32.7725ZM39.8646 32.7725V32.8725C40.1582 32.8725 40.3975 33.1178 40.3975 33.4205H40.4975H40.5975C40.5975 33.0128 40.274 32.6725 39.8646 32.6725V32.7725ZM40.4975 33.4205H40.3975C40.3975 33.7231 40.1584 33.9676 39.8646 33.9676V34.0676V34.1676C40.2738 34.1676 40.5975 33.8285 40.5975 33.4205H40.4975ZM39.8646 34.0676V33.9676H38.5734V34.0676V34.1676H39.8646V34.0676ZM38.5734 34.0676L38.5736 33.9676C36.9132 33.9639 35.5574 32.583 35.5537 30.8738L35.4537 30.874L35.3537 30.8742C35.3576 32.6892 36.7984 34.1637 38.5731 34.1676L38.5734 34.0676ZM35.4537 30.874L35.5537 30.8742C35.5574 29.1696 36.9133 27.7842 38.5734 27.7842V27.6842V27.5842C36.7983 27.5842 35.3576 29.0636 35.3537 30.8738L35.4537 30.874ZM38.5734 27.6842V27.7842H41.6855V27.6842V27.5842H38.5734V27.6842ZM41.6855 27.6842H41.7855V27.6065H41.6855H41.5855V27.6842H41.6855ZM41.6855 27.6065H41.7855C41.7855 25.1736 39.848 23.1913 37.4668 23.1913V23.2913V23.3913C39.7334 23.3913 41.5855 25.2799 41.5855 27.6065H41.6855ZM37.4668 23.2913V23.1913H29.4805V23.2913V23.3913H37.4668V23.2913ZM29.4805 23.2913V23.1913C27.5577 23.1913 25.9489 24.4886 25.3882 26.2585L25.4836 26.2887L25.5789 26.3189C26.1154 24.6253 27.6518 23.3913 29.4805 23.3913V23.2913ZM25.4836 26.2887V26.3887H33.81V26.2887V26.1887H25.4836V26.2887ZM33.81 26.2887V26.3887C34.1008 26.3887 34.34 26.6303 34.34 26.9367H34.44H34.54C34.54 26.5251 34.2165 26.1887 33.81 26.1887V26.2887ZM34.44 26.9367H34.34C34.34 27.239 34.1012 27.4809 33.81 27.4809V27.5809V27.6809C34.2161 27.6809 34.54 27.345 34.54 26.9367H34.44ZM33.81 27.5809V27.4809H25.2657V27.5809V27.6809H33.81V27.5809ZM25.2657 27.5809L25.1668 27.5663L25.163 27.5919L25.2619 27.6065L25.3608 27.6212L25.3646 27.5956L25.2657 27.5809ZM25.2619 27.6065H25.1619V34.3935H25.2619H25.3619V27.6065H25.2619ZM25.2619 34.3935H25.1619C25.1619 36.8263 27.0955 38.8087 29.4805 38.8087V38.7087V38.6087C27.2102 38.6087 25.3619 36.7202 25.3619 34.3935H25.2619ZM29.4805 38.7087V38.8087H33.4993V38.7087V38.6087H29.4805V38.7087ZM33.4993 38.7087V38.8087C33.7904 38.8087 34.0283 39.0497 34.0283 39.352H34.1283H34.2283C34.2283 38.9438 33.9053 38.6087 33.4993 38.6087V38.7087ZM34.1283 39.352H34.0283C34.0283 39.6586 33.7899 39.9 33.4993 39.9V40V40.1C33.9059 40.1 34.2283 39.7635 34.2283 39.352H34.1283ZM33.4993 40V39.9H29.4805V40V40.1H33.4993V40ZM29.4805 40V39.9C26.5149 39.9 24.1 37.4307 24.1 34.3935H24H23.9C23.9 37.5368 26.4001 40.1 29.4805 40.1V40ZM24 34.3935H24.1V27.6065H24H23.9V34.3935H24ZM24 27.6065H24.1C24.1 24.5693 26.5149 22.1 29.4805 22.1V22V21.9C26.4001 21.9 23.9 24.4632 23.9 27.6065H24ZM29.4805 22V22.1H37.4668V22V21.9H29.4805V22Z" fill="white"/>
<defs>
<filter id="filter0_d_38_2191" x="0" y="0" width="68" height="68" filterUnits="userSpaceOnUse" color-interpolation-filters="sRGB">
<feFlood flood-opacity="0" result="BackgroundImageFix"/>
<feColorMatrix in="SourceAlpha" type="matrix" values="0 0 0 0 0 0 0 0 0 0 0 0 0 0 0 0 0 0 127 0" result="hardAlpha"/>
<feOffset dx="1" dy="3"/>
<feGaussianBlur stdDeviation="4"/>
<feColorMatrix type="matrix" values="0 0 0 0 0 0 0 0 0 0 0 0 0 0 0 0 0 0 0.1 0"/>
<feBlend mode="normal" in2="BackgroundImageFix" result="effect1_dropShadow_38_2191"/>
<feBlend mode="normal" in="SourceGraphic" in2="effect1_dropShadow_38_2191" result="shape"/>
</filter>
</defs>
</svg>
