<svg width="68" height="68" viewBox="0 0 68 68" fill="none" xmlns="http://www.w3.org/2000/svg">
<g filter="url(#filter0_d_38_2226)">
<circle cx="33" cy="31" r="26" fill="#F5F9FF"/>
</g>
<path fill-rule="evenodd" clip-rule="evenodd" d="M32.9923 22.5313C31.9803 22.5273 31.0122 22.9303 30.2973 23.6483C29.5823 24.3673 29.1803 25.3443 29.1803 26.3593C29.1762 27.9103 30.1023 29.3123 31.5273 29.9103C32.9493 30.5043 34.5903 30.1803 35.6833 29.0823C36.7733 27.9883 37.1013 26.3363 36.5123 24.9023C35.9223 23.4693 34.5312 22.5313 32.9923 22.5313ZM30.9653 21.4063C32.9532 20.5783 35.2463 21.0393 36.7652 22.5743C38.2892 24.1053 38.7422 26.4143 37.9142 28.4143C37.0903 30.4183 35.1442 31.7233 32.9922 31.7193C30.0553 31.7113 27.6762 29.3163 27.6762 26.3593L27.6842 26.1293C27.7703 24.0523 29.0472 22.2073 30.9653 21.4063ZM30.8833 33.7663C32.3203 33.6453 33.7662 33.6453 35.2032 33.7663C35.9882 33.8213 36.7692 33.9343 37.5352 34.1103C39.1952 34.4463 40.2812 35.1063 40.7343 36.0743C41.0972 36.8753 41.0863 37.8013 40.7072 38.5983C40.2462 39.5673 39.1602 40.2273 37.4722 40.5713C36.7113 40.7423 35.9332 40.8523 35.1482 40.9033C34.2852 41.0003 33.5513 41.0003 32.8672 41.0003H32.5982C32.2112 40.9573 31.9183 40.6293 31.9183 40.2393C31.9183 39.8483 32.2112 39.5203 32.5982 39.4773H33.1952C33.7932 39.4693 34.3982 39.4423 35.0002 39.3913C35.7113 39.3443 36.4183 39.2423 37.1173 39.0903C38.3123 38.8283 39.0663 38.4493 39.3013 37.9463C39.4843 37.5633 39.4843 37.1173 39.3013 36.7353C39.0663 36.2233 38.3123 35.8283 37.1403 35.5903C36.4333 35.4303 35.7153 35.3243 34.9923 35.2813C33.6413 35.1563 32.2812 35.1563 30.9303 35.2813C30.2153 35.3283 29.5043 35.4263 28.8052 35.5783C27.6052 35.8443 26.8633 36.2233 26.6213 36.7233C26.5312 36.9143 26.4883 37.1213 26.4883 37.3323C26.4883 37.5433 26.5312 37.7543 26.6213 37.9463C27.0352 38.5203 27.6683 38.8913 28.3672 38.9773L28.4692 39.0043C28.6992 39.0823 28.8793 39.2703 28.9492 39.5123C29.0312 39.7813 28.9533 40.0783 28.7503 40.2783C28.5473 40.4773 28.2503 40.5433 27.9843 40.4533C26.8553 40.2703 25.8673 39.5943 25.2812 38.6063C24.9062 37.8093 24.9062 36.8793 25.2812 36.0823C25.7463 35.0863 26.8283 34.4463 28.5003 34.1023C29.2853 33.9303 30.0823 33.8213 30.8833 33.7663Z" fill="#200E32"/>
<defs>
<filter id="filter0_d_38_2226" x="0" y="0" width="68" height="68" filterUnits="userSpaceOnUse" color-interpolation-filters="sRGB">
<feFlood flood-opacity="0" result="BackgroundImageFix"/>
<feColorMatrix in="SourceAlpha" type="matrix" values="0 0 0 0 0 0 0 0 0 0 0 0 0 0 0 0 0 0 127 0" result="hardAlpha"/>
<feOffset dx="1" dy="3"/>
<feGaussianBlur stdDeviation="4"/>
<feColorMatrix type="matrix" values="0 0 0 0 0 0 0 0 0 0 0 0 0 0 0 0 0 0 0.1 0"/>
<feBlend mode="normal" in2="BackgroundImageFix" result="effect1_dropShadow_38_2226"/>
<feBlend mode="normal" in="SourceGraphic" in2="effect1_dropShadow_38_2226" result="shape"/>
</filter>
</defs>
</svg>
